<ttFont>
<head>
    <!-- Most of this table will be recalculated by the compiler -->
    <tableVersion value="1.0"/>
    <fontRevision value="1.0"/>
    <checkSumAdjustment value="0xc91b935f"/>
    <magicNumber value="0x5f0f3cf5"/>
    <flags value="00000000 00011011"/>
    <unitsPerEm value="1000"/>
    <created value="Tue Jan  8 12:46:00 2013"/>
    <modified value="Thu Nov  6 12:31:42 2014"/>
    <xMin value="-112"/>
    <yMin value="-315"/>
    <xMax value="1260"/>
    <yMax value="1131"/>
    <macStyle value="00000000 00000010"/>
    <lowestRecPPEM value="9"/>
    <fontDirectionHint value="2"/>
    <indexToLocFormat value="0"/>
    <glyphDataFormat value="0"/>
  </head>
    <TTGlyph name=".notdef" xMin="67" yMin="0" xMax="531" yMax="650">
      <contour>
        <pt x="67" y="650" on="1"/>
        <pt x="531" y="650" on="1"/>
        <pt x="531" y="0" on="1"/>
        <pt x="67" y="0" on="1"/>
      </contour>
      <contour>
        <pt x="457" y="604" on="1"/>
        <pt x="141" y="604" on="1"/>
        <pt x="300" y="367" on="1"/>
      </contour>
      <contour>
        <pt x="485" y="88" on="1"/>
        <pt x="485" y="562" on="1"/>
        <pt x="327" y="325" on="1"/>
      </contour>
      <contour>
        <pt x="457" y="47" on="1"/>
        <pt x="300" y="283" on="1"/>
        <pt x="141" y="47" on="1"/>
      </contour>
      <contour>
        <pt x="114" y="88" on="1"/>
        <pt x="271" y="325" on="1"/>
        <pt x="114" y="562" on="1"/>
      </contour>
    </TTGlyph>
    <TTGlyph name="A" xMin="-23" yMin="0" xMax="654" yMax="663">
      <contour>
        <pt x="294" y="663" on="1"/>
        <pt x="452" y="663" on="1"/>
        <pt x="464" y="663" on="0"/>
        <pt x="473" y="656" on="0"/>
        <pt x="475" y="648" on="1"/>
        <pt x="654" y="0" on="1"/>
        <pt x="501" y="0" on="1"/>
        <pt x="492" y="0" on="0"/>
        <pt x="484" y="4" on="0"/>
        <pt x="482" y="14" on="1"/>
        <pt x="456" y="116" on="1"/>
        <pt x="199" y="116" on="1"/>
        <pt x="153" y="14" on="1"/>
        <pt x="148" y="4" on="0"/>
        <pt x="139" y="0" on="0"/>
        <pt x="131" y="0" on="1"/>
        <pt x="-23" y="0" on="1"/>
      </contour>
      <contour>
        <pt x="367" y="515" on="1"/>
        <pt x="356" y="480" on="0"/>
        <pt x="313" y="372" on="0"/>
        <pt x="282" y="302" on="1"/>
        <pt x="259" y="247" on="1"/>
        <pt x="423" y="247" on="1"/>
        <pt x="411" y="299" on="1"/>
        <pt x="395" y="365" on="0"/>
        <pt x="374" y="470" on="0"/>
        <pt x="369" y="515" on="1"/>
      </contour>
    </TTGlyph>
    <TTGlyph name="AE" xMin="-45" yMin="0" xMax="1006" yMax="663">
      <contour>
        <pt x="990" y="527" on="1"/>
        <pt x="668" y="527" on="1"/>
        <pt x="654" y="402" on="1"/>
        <pt x="943" y="402" on="1"/>
        <pt x="927" y="268" on="1"/>
        <pt x="637" y="268" on="1"/>
        <pt x="622" y="136" on="1"/>
        <pt x="953" y="136" on="1"/>
        <pt x="937" y="0" on="1"/>
        <pt x="441" y="0" on="1"/>
        <pt x="455" y="116" on="1"/>
        <pt x="227" y="116" on="1"/>
        <pt x="153" y="13" on="1"/>
        <pt x="147" y="5" on="0"/>
        <pt x="136" y="0" on="0"/>
        <pt x="125" y="0" on="1"/>
        <pt x="-45" y="0" on="1"/>
        <pt x="447" y="663" on="1"/>
        <pt x="1006" y="663" on="1"/>
      </contour>
      <contour>
        <pt x="502" y="513" on="1"/>
        <pt x="494" y="498" on="0"/>
        <pt x="466" y="456" on="0"/>
        <pt x="433" y="406" on="0"/>
        <pt x="395" y="353" on="0"/>
        <pt x="360" y="303" on="0"/>
        <pt x="330" y="261" on="0"/>
        <pt x="320" y="247" on="1"/>
        <pt x="470" y="247" on="1"/>
      </contour>
    </TTGlyph>
    <TTGlyph name="AEacute" xMin="-45" yMin="0" xMax="1006" yMax="933">
      <component glyphName="AE" x="0" y="0" flags="0x204"/>
      <component glyphName="acute.cap" x="416" y="0" flags="0x4"/>
    </TTGlyph>
    <TTGlyph name="Aacute" xMin="-23" yMin="0" xMax="654" yMax="933">
      <component glyphName="A" x="0" y="0" flags="0x204"/>
      <component glyphName="acute.cap" x="135" y="0" flags="0x4"/>
    </TTGlyph>
    <TTGlyph name="Abreve" xMin="-23" yMin="0" xMax="654" yMax="904">
      <component glyphName="A" x="0" y="0" flags="0x204"/>
      <component glyphName="breve.cap" x="123" y="0" flags="0x4"/>
    </TTGlyph>
    <TTGlyph name="Acaron" xMin="-23" yMin="0" xMax="654" yMax="931">
      <component glyphName="A" x="0" y="0" flags="0x204"/>
      <component glyphName="caron.cap" x="126" y="0" flags="0x4"/>
    </TTGlyph>
    <TTGlyph name="Acircumflex" xMin="-23" yMin="0" xMax="654" yMax="919">
      <component glyphName="A" x="0" y="0" flags="0x204"/>
      <component glyphName="circumflex.cap" x="128" y="0" flags="0x4"/>
    </TTGlyph>
    <TTGlyph name="Adieresis" xMin="-23" yMin="0" xMax="654" yMax="879">
      <component glyphName="A" x="0" y="0" flags="0x204"/>
      <component glyphName="dieresis.cap" x="134" y="0" flags="0x4"/>
    </TTGlyph>
    <TTGlyph name="Agrave" xMin="-23" yMin="0" xMax="654" yMax="937">
      <component glyphName="A" x="0" y="0" flags="0x204"/>
      <component glyphName="grave.cap" x="141" y="0" flags="0x4"/>
    </TTGlyph>
    <TTGlyph name="Amacron" xMin="-23" yMin="0" xMax="654" yMax="869">
      <component glyphName="A" x="0" y="0" flags="0x204"/>
      <component glyphName="macron.cap" x="130" y="0" flags="0x4"/>
    </TTGlyph>
    <TTGlyph name="Aogonek" xMin="-23" yMin="-226" xMax="654" yMax="933">
      <contour>
        <pt x="456" y="116" on="1"/>
        <pt x="199" y="116" on="1"/>
        <pt x="153" y="14" on="1"/>
        <pt x="148" y="4" on="0"/>
        <pt x="139" y="0" on="0"/>
        <pt x="131" y="0" on="1"/>
        <pt x="-23" y="0" on="1"/>
        <pt x="294" y="663" on="1"/>
        <pt x="452" y="663" on="1"/>
        <pt x="464" y="663" on="0"/>
        <pt x="473" y="656" on="0"/>
        <pt x="475" y="648" on="1"/>
        <pt x="654" y="0" on="1"/>
        <pt x="597" y="0" on="1"/>
        <pt x="552" y="0" on="0"/>
        <pt x="507" y="-45" on="0"/>
        <pt x="507" y="-80" on="1"/>
        <pt x="507" y="-100" on="0"/>
        <pt x="534" y="-128" on="0"/>
        <pt x="561" y="-128" on="1"/>
        <pt x="572" y="-128" on="0"/>
        <pt x="603" y="-124" on="0"/>
        <pt x="618" y="-122" on="1"/>
        <pt x="631" y="-199" on="1"/>
        <pt x="607" y="-212" on="0"/>
        <pt x="544" y="-226" on="0"/>
        <pt x="519" y="-226" on="1"/>
        <pt x="462" y="-226" on="0"/>
        <pt x="394" y="-165" on="0"/>
        <pt x="394" y="-117" on="1"/>
        <pt x="394" y="-77" on="0"/>
        <pt x="442" y="-8" on="0"/>
        <pt x="481" y="20" on="1"/>
      </contour>
      <contour>
        <pt x="321" y="717" on="1"/>
        <pt x="282" y="779" on="1"/>
        <pt x="469" y="924" on="1"/>
        <pt x="480" y="932" on="0"/>
        <pt x="499" y="933" on="0"/>
        <pt x="507" y="918" on="1"/>
        <pt x="555" y="830" on="1"/>
      </contour>
      <contour>
        <pt x="367" y="515" on="1"/>
        <pt x="356" y="480" on="0"/>
        <pt x="313" y="372" on="0"/>
        <pt x="282" y="302" on="1"/>
        <pt x="259" y="247" on="1"/>
        <pt x="423" y="247" on="1"/>
        <pt x="411" y="299" on="1"/>
        <pt x="395" y="365" on="0"/>
        <pt x="374" y="470" on="0"/>
        <pt x="369" y="515" on="1"/>
      </contour>
    </TTGlyph>
    <TTGlyph name="Aring" xMin="-23" yMin="0" xMax="654" yMax="899">
      <contour>
        <pt x="654" y="0" on="1"/>
        <pt x="501" y="0" on="1"/>
        <pt x="492" y="0" on="0"/>
        <pt x="484" y="4" on="0"/>
        <pt x="482" y="14" on="1"/>
        <pt x="456" y="116" on="1"/>
        <pt x="199" y="116" on="1"/>
        <pt x="153" y="14" on="1"/>
        <pt x="148" y="4" on="0"/>
        <pt x="139" y="0" on="0"/>
        <pt x="131" y="0" on="1"/>
        <pt x="-23" y="0" on="1"/>
        <pt x="298" y="672" on="1"/>
        <pt x="281" y="689" on="0"/>
        <pt x="262" y="734" on="0"/>
        <pt x="262" y="761" on="1"/>
        <pt x="262" y="790" on="0"/>
        <pt x="283" y="841" on="0"/>
        <pt x="321" y="878" on="0"/>
        <pt x="372" y="899" on="0"/>
        <pt x="402" y="899" on="1"/>
        <pt x="430" y="899" on="0"/>
        <pt x="477" y="880" on="0"/>
        <pt x="510" y="846" on="0"/>
        <pt x="529" y="800" on="0"/>
        <pt x="529" y="773" on="1"/>
        <pt x="529" y="736" on="0"/>
        <pt x="497" y="677" on="0"/>
        <pt x="471" y="663" on="1"/>
      </contour>
      <contour>
        <pt x="393" y="718" on="1"/>
        <pt x="419" y="718" on="0"/>
        <pt x="445" y="747" on="0"/>
        <pt x="445" y="770" on="1"/>
        <pt x="445" y="790" on="0"/>
        <pt x="421" y="818" on="0"/>
        <pt x="398" y="818" on="1"/>
        <pt x="373" y="818" on="0"/>
        <pt x="346" y="787" on="0"/>
        <pt x="346" y="764" on="1"/>
        <pt x="346" y="744" on="0"/>
        <pt x="370" y="718" on="0"/>
      </contour>
      <contour>
        <pt x="367" y="515" on="1"/>
        <pt x="356" y="480" on="0"/>
        <pt x="313" y="372" on="0"/>
        <pt x="282" y="302" on="1"/>
        <pt x="259" y="247" on="1"/>
        <pt x="423" y="247" on="1"/>
        <pt x="411" y="299" on="1"/>
        <pt x="395" y="365" on="0"/>
        <pt x="374" y="470" on="0"/>
        <pt x="369" y="515" on="1"/>
      </contour>
    </TTGlyph>
    <TTGlyph name="Aringacute" xMin="-23" yMin="0" xMax="654" yMax="1131">
      <contour>
        <pt x="321" y="915" on="1"/>
        <pt x="282" y="977" on="1"/>
        <pt x="469" y="1122" on="1"/>
        <pt x="480" y="1130" on="0"/>
        <pt x="499" y="1131" on="0"/>
        <pt x="507" y="1116" on="1"/>
        <pt x="555" y="1028" on="1"/>
      </contour>
      <contour>
        <pt x="654" y="0" on="1"/>
        <pt x="501" y="0" on="1"/>
        <pt x="492" y="0" on="0"/>
        <pt x="484" y="4" on="0"/>
        <pt x="482" y="14" on="1"/>
        <pt x="456" y="116" on="1"/>
        <pt x="199" y="116" on="1"/>
        <pt x="153" y="14" on="1"/>
        <pt x="148" y="4" on="0"/>
        <pt x="139" y="0" on="0"/>
        <pt x="131" y="0" on="1"/>
        <pt x="-23" y="0" on="1"/>
        <pt x="298" y="672" on="1"/>
        <pt x="281" y="689" on="0"/>
        <pt x="262" y="734" on="0"/>
        <pt x="262" y="761" on="1"/>
        <pt x="262" y="790" on="0"/>
        <pt x="283" y="841" on="0"/>
        <pt x="321" y="878" on="0"/>
        <pt x="372" y="899" on="0"/>
        <pt x="402" y="899" on="1"/>
        <pt x="430" y="899" on="0"/>
        <pt x="477" y="880" on="0"/>
        <pt x="510" y="846" on="0"/>
        <pt x="529" y="800" on="0"/>
        <pt x="529" y="773" on="1"/>
        <pt x="529" y="736" on="0"/>
        <pt x="497" y="677" on="0"/>
        <pt x="471" y="663" on="1"/>
      </contour>
      <contour>
        <pt x="393" y="718" on="1"/>
        <pt x="419" y="718" on="0"/>
        <pt x="445" y="747" on="0"/>
        <pt x="445" y="770" on="1"/>
        <pt x="445" y="790" on="0"/>
        <pt x="421" y="818" on="0"/>
        <pt x="398" y="818" on="1"/>
        <pt x="373" y="818" on="0"/>
        <pt x="346" y="787" on="0"/>
        <pt x="346" y="764" on="1"/>
        <pt x="346" y="744" on="0"/>
        <pt x="370" y="718" on="0"/>
      </contour>
      <contour>
        <pt x="367" y="515" on="1"/>
        <pt x="356" y="480" on="0"/>
        <pt x="313" y="372" on="0"/>
        <pt x="282" y="302" on="1"/>
        <pt x="259" y="247" on="1"/>
        <pt x="423" y="247" on="1"/>
        <pt x="411" y="299" on="1"/>
        <pt x="395" y="365" on="0"/>
        <pt x="374" y="470" on="0"/>
        <pt x="369" y="515" on="1"/>
      </contour>
    </TTGlyph>
    <TTGlyph name="Atilde" xMin="-23" yMin="0" xMax="654" yMax="897">
      <component glyphName="A" x="0" y="0" flags="0x204"/>
      <component glyphName="tilde.cap" x="108" y="0" flags="0x4"/>
    </TTGlyph>
    <TTGlyph name="B" xMin="31" yMin="0" xMax="619" yMax="663">
      <contour>
        <pt x="110" y="663" on="1"/>
        <pt x="394" y="663" on="1"/>
        <pt x="496" y="663" on="0"/>
        <pt x="611" y="592" on="0"/>
        <pt x="611" y="510" on="1"/>
        <pt x="611" y="468" on="0"/>
        <pt x="568" y="387" on="0"/>
        <pt x="533" y="358" on="1"/>
        <pt x="574" y="336" on="0"/>
        <pt x="619" y="264" on="0"/>
        <pt x="619" y="217" on="1"/>
        <pt x="619" y="173" on="0"/>
        <pt x="587" y="95" on="0"/>
        <pt x="518" y="35" on="0"/>
        <pt x="411" y="0" on="0"/>
        <pt x="336" y="0" on="1"/>
        <pt x="31" y="0" on="1"/>
      </contour>
      <contour>
        <pt x="213" y="137" on="1"/>
        <pt x="347" y="137" on="1"/>
        <pt x="453" y="137" on="0"/>
        <pt x="453" y="218" on="1"/>
        <pt x="453" y="245" on="0"/>
        <pt x="439" y="257" on="1"/>
        <pt x="429" y="265" on="0"/>
        <pt x="399" y="271" on="0"/>
        <pt x="376" y="271" on="1"/>
        <pt x="229" y="271" on="1"/>
      </contour>
      <contour>
        <pt x="397" y="394" on="1"/>
        <pt x="408" y="394" on="0"/>
        <pt x="420" y="399" on="0"/>
        <pt x="425" y="405" on="1"/>
        <pt x="435" y="416" on="0"/>
        <pt x="447" y="453" on="0"/>
        <pt x="447" y="472" on="1"/>
        <pt x="447" y="505" on="0"/>
        <pt x="414" y="526" on="0"/>
        <pt x="380" y="526" on="1"/>
        <pt x="259" y="526" on="1"/>
        <pt x="243" y="394" on="1"/>
      </contour>
    </TTGlyph>
    <TTGlyph name="C" xMin="38" yMin="-11" xMax="659" yMax="672">
      <contour>
        <pt x="638" y="106" on="1"/>
        <pt x="610" y="80" on="0"/>
        <pt x="540" y="37" on="0"/>
        <pt x="461" y="6" on="0"/>
        <pt x="378" y="-11" on="0"/>
        <pt x="337" y="-11" on="1"/>
        <pt x="269" y="-11" on="0"/>
        <pt x="158" y="35" on="0"/>
        <pt x="80" y="118" on="0"/>
        <pt x="38" y="234" on="0"/>
        <pt x="38" y="303" on="1"/>
        <pt x="38" y="376" on="0"/>
        <pt x="90" y="510" on="0"/>
        <pt x="183" y="612" on="0"/>
        <pt x="310" y="672" on="0"/>
        <pt x="386" y="672" on="1"/>
        <pt x="431" y="672" on="0"/>
        <pt x="515" y="645" on="0"/>
        <pt x="587" y="593" on="0"/>
        <pt x="642" y="518" on="0"/>
        <pt x="659" y="469" on="1"/>
        <pt x="550" y="404" on="1"/>
        <pt x="469" y="474" on="1"/>
        <pt x="443" y="497" on="0"/>
        <pt x="399" y="519" on="0"/>
        <pt x="368" y="519" on="1"/>
        <pt x="333" y="519" on="0"/>
        <pt x="275" y="487" on="0"/>
        <pt x="233" y="431" on="0"/>
        <pt x="209" y="354" on="0"/>
        <pt x="209" y="309" on="1"/>
        <pt x="209" y="227" on="0"/>
        <pt x="292" y="146" on="0"/>
        <pt x="364" y="146" on="1"/>
        <pt x="418" y="146" on="0"/>
        <pt x="498" y="172" on="1"/>
        <pt x="589" y="201" on="1"/>
      </contour>
    </TTGlyph>
    <TTGlyph name="Cacute" xMin="38" yMin="-11" xMax="659" yMax="933">
      <component glyphName="C" x="0" y="0" flags="0x204"/>
      <component glyphName="acute.cap" x="126" y="0" flags="0x4"/>
    </TTGlyph>
    <TTGlyph name="Ccaron" xMin="38" yMin="-11" xMax="659" yMax="931">
      <component glyphName="C" x="0" y="0" flags="0x204"/>
      <component glyphName="caron.cap" x="129" y="0" flags="0x4"/>
    </TTGlyph>
    <TTGlyph name="Ccedilla" xMin="38" yMin="-248" xMax="659" yMax="672">
      <contour>
        <pt x="638" y="106" on="1"/>
        <pt x="587" y="59" on="0"/>
        <pt x="445" y="-3" on="0"/>
        <pt x="370" y="-9" on="1"/>
        <pt x="357" y="-25" on="0"/>
        <pt x="357" y="-35" on="1"/>
        <pt x="357" y="-43" on="0"/>
        <pt x="386" y="-55" on="0"/>
        <pt x="420" y="-73" on="0"/>
        <pt x="449" y="-102" on="0"/>
        <pt x="449" y="-127" on="1"/>
        <pt x="449" y="-155" on="0"/>
        <pt x="416" y="-199" on="0"/>
        <pt x="361" y="-229" on="0"/>
        <pt x="286" y="-247" on="0"/>
        <pt x="244" y="-248" on="1"/>
        <pt x="239" y="-166" on="1"/>
        <pt x="292" y="-157" on="1"/>
        <pt x="326" y="-151" on="0"/>
        <pt x="326" y="-137" on="1"/>
        <pt x="326" y="-129" on="0"/>
        <pt x="302" y="-117" on="0"/>
        <pt x="272" y="-103" on="0"/>
        <pt x="248" y="-83" on="0"/>
        <pt x="248" y="-68" on="1"/>
        <pt x="248" y="-43" on="0"/>
        <pt x="286" y="-7" on="1"/>
        <pt x="229" y="1" on="0"/>
        <pt x="137" y="53" on="0"/>
        <pt x="72" y="134" on="0"/>
        <pt x="38" y="240" on="0"/>
        <pt x="38" y="303" on="1"/>
        <pt x="38" y="376" on="0"/>
        <pt x="90" y="510" on="0"/>
        <pt x="183" y="612" on="0"/>
        <pt x="310" y="672" on="0"/>
        <pt x="386" y="672" on="1"/>
        <pt x="431" y="672" on="0"/>
        <pt x="515" y="645" on="0"/>
        <pt x="587" y="593" on="0"/>
        <pt x="642" y="518" on="0"/>
        <pt x="659" y="469" on="1"/>
        <pt x="550" y="404" on="1"/>
        <pt x="469" y="474" on="1"/>
        <pt x="443" y="497" on="0"/>
        <pt x="399" y="519" on="0"/>
        <pt x="368" y="519" on="1"/>
        <pt x="333" y="519" on="0"/>
        <pt x="275" y="487" on="0"/>
        <pt x="233" y="431" on="0"/>
        <pt x="209" y="354" on="0"/>
        <pt x="209" y="309" on="1"/>
        <pt x="209" y="227" on="0"/>
        <pt x="292" y="146" on="0"/>
        <pt x="364" y="146" on="1"/>
        <pt x="418" y="146" on="0"/>
        <pt x="498" y="172" on="1"/>
        <pt x="589" y="201" on="1"/>
      </contour>
    </TTGlyph>
    <TTGlyph name="Ccircumflex" xMin="38" yMin="-11" xMax="659" yMax="919">
      <component glyphName="C" x="0" y="0" flags="0x204"/>
      <component glyphName="circumflex.cap" x="132" y="0" flags="0x4"/>
    </TTGlyph>
    <TTGlyph name="Cdotaccent" xMin="38" yMin="-11" xMax="659" yMax="875">
      <component glyphName="C" x="0" y="0" flags="0x204"/>
      <component glyphName="dotaccent.cap" x="137" y="0" flags="0x4"/>
    </TTGlyph>
    <TTGlyph name="D" xMin="31" yMin="0" xMax="682" yMax="663">
      <contour>
        <pt x="110" y="663" on="1"/>
        <pt x="331" y="663" on="1"/>
        <pt x="430" y="663" on="0"/>
        <pt x="571" y="620" on="0"/>
        <pt x="615" y="573" on="1"/>
        <pt x="647" y="538" on="0"/>
        <pt x="682" y="442" on="0"/>
        <pt x="682" y="378" on="1"/>
        <pt x="682" y="293" on="0"/>
        <pt x="621" y="148" on="0"/>
        <pt x="562" y="97" on="1"/>
        <pt x="509" y="51" on="0"/>
        <pt x="361" y="0" on="0"/>
        <pt x="259" y="0" on="1"/>
        <pt x="31" y="0" on="1"/>
      </contour>
      <contour>
        <pt x="276" y="144" on="1"/>
        <pt x="336" y="144" on="0"/>
        <pt x="419" y="173" on="0"/>
        <pt x="448" y="201" on="1"/>
        <pt x="511" y="262" on="0"/>
        <pt x="511" y="377" on="1"/>
        <pt x="511" y="415" on="0"/>
        <pt x="493" y="465" on="0"/>
        <pt x="476" y="482" on="1"/>
        <pt x="453" y="504" on="0"/>
        <pt x="379" y="519" on="0"/>
        <pt x="327" y="519" on="1"/>
        <pt x="258" y="519" on="1"/>
        <pt x="214" y="144" on="1"/>
      </contour>
    </TTGlyph>
    <TTGlyph name="Dcaron" xMin="31" yMin="0" xMax="682" yMax="931">
      <component glyphName="D" x="0" y="0" flags="0x4"/>
      <component glyphName="caron.cap" x="126" y="0" flags="0x4"/>
    </TTGlyph>
    <TTGlyph name="Dcroat" xMin="12" yMin="0" xMax="704" yMax="663">
      <contour>
        <pt x="101" y="400" on="1"/>
        <pt x="132" y="663" on="1"/>
        <pt x="353" y="663" on="1"/>
        <pt x="452" y="663" on="0"/>
        <pt x="593" y="620" on="0"/>
        <pt x="637" y="573" on="1"/>
        <pt x="669" y="538" on="0"/>
        <pt x="704" y="442" on="0"/>
        <pt x="704" y="378" on="1"/>
        <pt x="704" y="293" on="0"/>
        <pt x="643" y="148" on="0"/>
        <pt x="584" y="97" on="1"/>
        <pt x="531" y="51" on="0"/>
        <pt x="383" y="0" on="0"/>
        <pt x="281" y="0" on="1"/>
        <pt x="53" y="0" on="1"/>
        <pt x="86" y="275" on="1"/>
        <pt x="12" y="275" on="1"/>
        <pt x="27" y="400" on="1"/>
      </contour>
      <contour>
        <pt x="298" y="143" on="1"/>
        <pt x="358" y="143" on="0"/>
        <pt x="441" y="172" on="0"/>
        <pt x="470" y="200" on="1"/>
        <pt x="502" y="231" on="0"/>
        <pt x="533" y="321" on="0"/>
        <pt x="533" y="378" on="1"/>
        <pt x="533" y="416" on="0"/>
        <pt x="515" y="466" on="0"/>
        <pt x="498" y="483" on="1"/>
        <pt x="475" y="505" on="0"/>
        <pt x="401" y="520" on="0"/>
        <pt x="349" y="520" on="1"/>
        <pt x="280" y="520" on="1"/>
        <pt x="266" y="400" on="1"/>
        <pt x="399" y="400" on="1"/>
        <pt x="384" y="275" on="1"/>
        <pt x="251" y="275" on="1"/>
        <pt x="236" y="143" on="1"/>
      </contour>
    </TTGlyph>
    <TTGlyph name="Delta" xMin="2" yMin="0" xMax="608" yMax="663">
      <contour>
        <pt x="446" y="133" on="1"/>
        <pt x="441" y="145" on="0"/>
        <pt x="437" y="159" on="1"/>
        <pt x="433" y="171" on="0"/>
        <pt x="424" y="204" on="0"/>
        <pt x="419" y="222" on="1"/>
        <pt x="387" y="355" on="1"/>
        <pt x="376" y="400" on="0"/>
        <pt x="357" y="486" on="0"/>
        <pt x="353" y="513" on="1"/>
        <pt x="343" y="481" on="0"/>
        <pt x="311" y="401" on="0"/>
        <pt x="292" y="359" on="1"/>
        <pt x="237" y="240" on="1"/>
        <pt x="232" y="228" on="0"/>
        <pt x="218" y="197" on="0"/>
        <pt x="203" y="166" on="0"/>
        <pt x="189" y="140" on="0"/>
        <pt x="184" y="133" on="1"/>
        <pt x="198" y="135" on="0"/>
        <pt x="244" y="137" on="0"/>
        <pt x="264" y="137" on="1"/>
        <pt x="363" y="137" on="1"/>
        <pt x="373" y="137" on="0"/>
        <pt x="398" y="136" on="0"/>
        <pt x="422" y="135" on="0"/>
        <pt x="441" y="134" on="0"/>
      </contour>
      <contour>
        <pt x="596" y="0" on="1"/>
        <pt x="2" y="0" on="1"/>
        <pt x="11" y="75" on="1"/>
        <pt x="12" y="86" on="0"/>
        <pt x="16" y="103" on="0"/>
        <pt x="24" y="124" on="0"/>
        <pt x="38" y="154" on="0"/>
        <pt x="49" y="177" on="1"/>
        <pt x="283" y="663" on="1"/>
        <pt x="442" y="663" on="1"/>
        <pt x="451" y="663" on="0"/>
        <pt x="458" y="658" on="0"/>
        <pt x="461" y="648" on="1"/>
        <pt x="594" y="167" on="1"/>
        <pt x="602" y="137" on="0"/>
        <pt x="608" y="100" on="0"/>
        <pt x="605" y="77" on="1"/>
      </contour>
    </TTGlyph>
    <TTGlyph name="E" xMin="31" yMin="0" xMax="596" yMax="663">
      <contour>
        <pt x="596" y="663" on="1"/>
        <pt x="580" y="527" on="1"/>
        <pt x="258" y="527" on="1"/>
        <pt x="244" y="402" on="1"/>
        <pt x="533" y="402" on="1"/>
        <pt x="517" y="268" on="1"/>
        <pt x="227" y="268" on="1"/>
        <pt x="212" y="136" on="1"/>
        <pt x="543" y="136" on="1"/>
        <pt x="527" y="0" on="1"/>
        <pt x="31" y="0" on="1"/>
        <pt x="110" y="663" on="1"/>
      </contour>
    </TTGlyph>
    <TTGlyph name="Eacute" xMin="32" yMin="0" xMax="597" yMax="933">
      <component glyphName="E" x="1" y="0" flags="0x4"/>
      <component glyphName="acute.cap" x="99" y="0" flags="0x4"/>
    </TTGlyph>
    <TTGlyph name="Ebreve" xMin="32" yMin="0" xMax="597" yMax="904">
      <component glyphName="E" x="1" y="0" flags="0x4"/>
      <component glyphName="breve.cap" x="96" y="0" flags="0x4"/>
    </TTGlyph>
    <TTGlyph name="Ecaron" xMin="32" yMin="0" xMax="597" yMax="931">
      <component glyphName="E" x="1" y="0" flags="0x4"/>
      <component glyphName="caron.cap" x="103" y="0" flags="0x4"/>
    </TTGlyph>
    <TTGlyph name="Ecircumflex" xMin="32" yMin="0" xMax="597" yMax="919">
      <component glyphName="E" x="1" y="0" flags="0x4"/>
      <component glyphName="circumflex.cap" x="102" y="0" flags="0x4"/>
    </TTGlyph>
    <TTGlyph name="Edieresis" xMin="32" yMin="0" xMax="597" yMax="879">
      <component glyphName="E" x="1" y="0" flags="0x4"/>
      <component glyphName="dieresis.cap" x="102" y="0" flags="0x4"/>
    </TTGlyph>
    <TTGlyph name="Edotaccent" xMin="32" yMin="0" xMax="597" yMax="875">
      <component glyphName="E" x="1" y="0" flags="0x4"/>
      <component glyphName="dotaccent.cap" x="102" y="0" flags="0x4"/>
    </TTGlyph>
    <TTGlyph name="Egrave" xMin="32" yMin="0" xMax="597" yMax="937">
      <component glyphName="E" x="1" y="0" flags="0x4"/>
      <component glyphName="grave.cap" x="111" y="0" flags="0x4"/>
    </TTGlyph>
    <TTGlyph name="Emacron" xMin="32" yMin="0" xMax="597" yMax="869">
      <component glyphName="E" x="1" y="0" flags="0x4"/>
      <component glyphName="macron.cap" x="91" y="0" flags="0x4"/>
    </TTGlyph>
    <TTGlyph name="Eng" xMin="31" yMin="-238" xMax="711" yMax="663">
      <contour>
        <pt x="479" y="30" on="1"/>
        <pt x="293" y="315" on="1"/>
        <pt x="279" y="335" on="0"/>
        <pt x="246" y="389" on="0"/>
        <pt x="235" y="408" on="1"/>
        <pt x="233" y="408" on="1"/>
        <pt x="185" y="0" on="1"/>
        <pt x="31" y="0" on="1"/>
        <pt x="110" y="663" on="1"/>
        <pt x="227" y="663" on="1"/>
        <pt x="238" y="663" on="0"/>
        <pt x="248" y="658" on="0"/>
        <pt x="254" y="649" on="1"/>
        <pt x="453" y="343" on="1"/>
        <pt x="467" y="322" on="0"/>
        <pt x="497" y="274" on="0"/>
        <pt x="507" y="257" on="1"/>
        <pt x="509" y="257" on="1"/>
        <pt x="558" y="663" on="1"/>
        <pt x="711" y="663" on="1"/>
        <pt x="632" y="0" on="1"/>
        <pt x="624" y="-64" on="0"/>
        <pt x="596" y="-154" on="0"/>
        <pt x="548" y="-211" on="0"/>
        <pt x="479" y="-238" on="0"/>
        <pt x="431" y="-238" on="1"/>
        <pt x="381" y="-238" on="0"/>
        <pt x="290" y="-207" on="0"/>
        <pt x="262" y="-190" on="1"/>
        <pt x="296" y="-89" on="1"/>
        <pt x="326" y="-93" on="0"/>
        <pt x="376" y="-97" on="0"/>
        <pt x="391" y="-97" on="1"/>
        <pt x="416" y="-97" on="0"/>
        <pt x="447" y="-87" on="0"/>
        <pt x="463" y="-66" on="0"/>
        <pt x="471" y="-33" on="0"/>
        <pt x="474" y="-10" on="1"/>
      </contour>
    </TTGlyph>
    <TTGlyph name="Eogonek" xMin="31" yMin="-227" xMax="596" yMax="663">
      <contour>
        <pt x="596" y="663" on="1"/>
        <pt x="580" y="527" on="1"/>
        <pt x="258" y="527" on="1"/>
        <pt x="244" y="402" on="1"/>
        <pt x="533" y="402" on="1"/>
        <pt x="517" y="268" on="1"/>
        <pt x="227" y="268" on="1"/>
        <pt x="212" y="136" on="1"/>
        <pt x="543" y="136" on="1"/>
        <pt x="527" y="0" on="1"/>
        <pt x="444" y="0" on="1"/>
        <pt x="430" y="0" on="0"/>
        <pt x="413" y="-9" on="0"/>
        <pt x="403" y="-21" on="1"/>
        <pt x="376" y="-56" on="0"/>
        <pt x="376" y="-87" on="1"/>
        <pt x="376" y="-128" on="0"/>
        <pt x="427" y="-128" on="1"/>
        <pt x="435" y="-128" on="0"/>
        <pt x="470" y="-125" on="0"/>
        <pt x="487" y="-122" on="1"/>
        <pt x="500" y="-199" on="1"/>
        <pt x="476" y="-212" on="0"/>
        <pt x="413" y="-227" on="0"/>
        <pt x="388" y="-227" on="1"/>
        <pt x="331" y="-227" on="0"/>
        <pt x="263" y="-165" on="0"/>
        <pt x="263" y="-117" on="1"/>
        <pt x="263" y="-55" on="0"/>
        <pt x="320" y="0" on="1"/>
        <pt x="31" y="0" on="1"/>
        <pt x="110" y="663" on="1"/>
      </contour>
    </TTGlyph>
    <TTGlyph name="Eth" xMin="12" yMin="0" xMax="704" yMax="663">
      <contour>
        <pt x="101" y="400" on="1"/>
        <pt x="132" y="663" on="1"/>
        <pt x="353" y="663" on="1"/>
        <pt x="452" y="663" on="0"/>
        <pt x="593" y="620" on="0"/>
        <pt x="637" y="573" on="1"/>
        <pt x="669" y="538" on="0"/>
        <pt x="704" y="442" on="0"/>
        <pt x="704" y="378" on="1"/>
        <pt x="704" y="293" on="0"/>
        <pt x="643" y="148" on="0"/>
        <pt x="584" y="97" on="1"/>
        <pt x="531" y="51" on="0"/>
        <pt x="383" y="0" on="0"/>
        <pt x="281" y="0" on="1"/>
        <pt x="53" y="0" on="1"/>
        <pt x="86" y="275" on="1"/>
        <pt x="12" y="275" on="1"/>
        <pt x="27" y="400" on="1"/>
      </contour>
      <contour>
        <pt x="298" y="143" on="1"/>
        <pt x="358" y="143" on="0"/>
        <pt x="441" y="172" on="0"/>
        <pt x="470" y="200" on="1"/>
        <pt x="502" y="231" on="0"/>
        <pt x="533" y="321" on="0"/>
        <pt x="533" y="378" on="1"/>
        <pt x="533" y="416" on="0"/>
        <pt x="515" y="466" on="0"/>
        <pt x="498" y="483" on="1"/>
        <pt x="475" y="505" on="0"/>
        <pt x="401" y="520" on="0"/>
        <pt x="349" y="520" on="1"/>
        <pt x="280" y="520" on="1"/>
        <pt x="266" y="400" on="1"/>
        <pt x="399" y="400" on="1"/>
        <pt x="384" y="275" on="1"/>
        <pt x="251" y="275" on="1"/>
        <pt x="236" y="143" on="1"/>
      </contour>
    </TTGlyph>
    <TTGlyph name="Euro" xMin="36" yMin="-10" xMax="656" yMax="673">
      <contour>
        <pt x="276" y="231" on="1"/>
        <pt x="281" y="185" on="0"/>
        <pt x="337" y="137" on="0"/>
        <pt x="386" y="137" on="1"/>
        <pt x="414" y="137" on="0"/>
        <pt x="478" y="150" on="0"/>
        <pt x="510" y="160" on="1"/>
        <pt x="579" y="181" on="1"/>
        <pt x="624" y="92" on="1"/>
        <pt x="599" y="69" on="0"/>
        <pt x="537" y="32" on="0"/>
        <pt x="470" y="5" on="0"/>
        <pt x="399" y="-10" on="0"/>
        <pt x="366" y="-10" on="1"/>
        <pt x="308" y="-10" on="0"/>
        <pt x="217" y="28" on="0"/>
        <pt x="152" y="93" on="0"/>
        <pt x="115" y="181" on="0"/>
        <pt x="112" y="231" on="1"/>
        <pt x="36" y="231" on="1"/>
        <pt x="43" y="289" on="1"/>
        <pt x="111" y="306" on="1"/>
        <pt x="111" y="315" on="0"/>
        <pt x="114" y="341" on="0"/>
        <pt x="116" y="349" on="1"/>
        <pt x="50" y="349" on="1"/>
        <pt x="57" y="407" on="1"/>
        <pt x="129" y="425" on="1"/>
        <pt x="142" y="481" on="0"/>
        <pt x="200" y="572" on="0"/>
        <pt x="278" y="637" on="0"/>
        <pt x="371" y="673" on="0"/>
        <pt x="421" y="673" on="1"/>
        <pt x="461" y="673" on="0"/>
        <pt x="534" y="650" on="0"/>
        <pt x="595" y="609" on="0"/>
        <pt x="642" y="552" on="0"/>
        <pt x="656" y="519" on="1"/>
        <pt x="562" y="446" on="1"/>
        <pt x="510" y="488" on="1"/>
        <pt x="481" y="511" on="0"/>
        <pt x="438" y="529" on="0"/>
        <pt x="413" y="529" on="1"/>
        <pt x="394" y="529" on="0"/>
        <pt x="355" y="517" on="0"/>
        <pt x="322" y="493" on="0"/>
        <pt x="296" y="454" on="0"/>
        <pt x="289" y="427" on="1"/>
        <pt x="458" y="427" on="1"/>
        <pt x="449" y="349" on="1"/>
        <pt x="278" y="349" on="1"/>
        <pt x="276" y="341" on="0"/>
        <pt x="274" y="317" on="0"/>
        <pt x="273" y="309" on="1"/>
        <pt x="444" y="309" on="1"/>
        <pt x="434" y="231" on="1"/>
      </contour>
    </TTGlyph>
    <TTGlyph name="Euro.lprop" xMin="47" yMin="-10" xMax="667" yMax="673">
      <component glyphName="Euro" x="11" y="0" flags="0x4"/>
    </TTGlyph>
    <TTGlyph name="Euro.oprop" xMin="37" yMin="-8" xMax="575" yMax="496">
      <component glyphName="Euro.otab" x="-13" y="0" flags="0x4"/>
    </TTGlyph>
    <TTGlyph name="Euro.otab" xMin="50" yMin="-8" xMax="588" yMax="496">
      <contour>
        <pt x="271" y="254" on="1"/>
        <pt x="270" y="249" on="0"/>
        <pt x="270" y="238" on="0"/>
        <pt x="270" y="230" on="1"/>
        <pt x="389" y="230" on="1"/>
        <pt x="382" y="174" on="1"/>
        <pt x="283" y="174" on="1"/>
        <pt x="289" y="151" on="0"/>
        <pt x="338" y="123" on="0"/>
        <pt x="369" y="123" on="1"/>
        <pt x="389" y="123" on="0"/>
        <pt x="438" y="133" on="0"/>
        <pt x="472" y="144" on="1"/>
        <pt x="531" y="163" on="1"/>
        <pt x="573" y="84" on="1"/>
        <pt x="551" y="63" on="0"/>
        <pt x="495" y="29" on="0"/>
        <pt x="434" y="5" on="0"/>
        <pt x="372" y="-8" on="0"/>
        <pt x="344" y="-8" on="1"/>
        <pt x="300" y="-8" on="0"/>
        <pt x="224" y="17" on="0"/>
        <pt x="165" y="64" on="0"/>
        <pt x="125" y="132" on="0"/>
        <pt x="118" y="174" on="1"/>
        <pt x="50" y="174" on="1"/>
        <pt x="55" y="217" on="1"/>
        <pt x="115" y="226" on="1"/>
        <pt x="115" y="234" on="0"/>
        <pt x="115" y="247" on="0"/>
        <pt x="116" y="254" on="1"/>
        <pt x="60" y="254" on="1"/>
        <pt x="65" y="297" on="1"/>
        <pt x="126" y="307" on="1"/>
        <pt x="138" y="349" on="0"/>
        <pt x="185" y="418" on="0"/>
        <pt x="250" y="468" on="0"/>
        <pt x="329" y="496" on="0"/>
        <pt x="373" y="496" on="1"/>
        <pt x="412" y="496" on="0"/>
        <pt x="482" y="472" on="0"/>
        <pt x="538" y="427" on="0"/>
        <pt x="579" y="363" on="0"/>
        <pt x="588" y="323" on="1"/>
        <pt x="487" y="276" on="1"/>
        <pt x="448" y="319" on="1"/>
        <pt x="422" y="347" on="0"/>
        <pt x="388" y="364" on="0"/>
        <pt x="369" y="364" on="1"/>
        <pt x="341" y="364" on="0"/>
        <pt x="299" y="336" on="0"/>
        <pt x="286" y="310" on="1"/>
        <pt x="399" y="310" on="1"/>
        <pt x="392" y="254" on="1"/>
        <pt x="271" y="254" on="1"/>
      </contour>
    </TTGlyph>
    <TTGlyph name="F" xMin="31" yMin="0" xMax="589" yMax="663">
      <contour>
        <pt x="589" y="663" on="1"/>
        <pt x="572" y="527" on="1"/>
        <pt x="258" y="527" on="1"/>
        <pt x="242" y="385" on="1"/>
        <pt x="525" y="385" on="1"/>
        <pt x="509" y="251" on="1"/>
        <pt x="226" y="251" on="1"/>
        <pt x="196" y="0" on="1"/>
        <pt x="31" y="0" on="1"/>
        <pt x="110" y="663" on="1"/>
      </contour>
    </TTGlyph>
    <TTGlyph name="G" xMin="38" yMin="-11" xMax="679" yMax="672">
      <contour>
        <pt x="509" y="51" on="1"/>
        <pt x="476" y="32" on="1"/>
        <pt x="441" y="12" on="0"/>
        <pt x="362" y="-11" on="0"/>
        <pt x="325" y="-11" on="1"/>
        <pt x="263" y="-11" on="0"/>
        <pt x="157" y="35" on="0"/>
        <pt x="81" y="118" on="0"/>
        <pt x="38" y="231" on="0"/>
        <pt x="38" y="297" on="1"/>
        <pt x="38" y="381" on="0"/>
        <pt x="96" y="519" on="0"/>
        <pt x="194" y="618" on="0"/>
        <pt x="325" y="672" on="0"/>
        <pt x="398" y="672" on="1"/>
        <pt x="442" y="672" on="0"/>
        <pt x="526" y="647" on="0"/>
        <pt x="598" y="601" on="0"/>
        <pt x="655" y="533" on="0"/>
        <pt x="673" y="491" on="1"/>
        <pt x="566" y="422" on="1"/>
        <pt x="501" y="470" on="1"/>
        <pt x="468" y="494" on="0"/>
        <pt x="414" y="522" on="0"/>
        <pt x="382" y="522" on="1"/>
        <pt x="344" y="522" on="0"/>
        <pt x="281" y="490" on="0"/>
        <pt x="235" y="434" on="0"/>
        <pt x="209" y="356" on="0"/>
        <pt x="209" y="310" on="1"/>
        <pt x="209" y="228" on="0"/>
        <pt x="292" y="144" on="0"/>
        <pt x="370" y="144" on="1"/>
        <pt x="383" y="144" on="0"/>
        <pt x="414" y="147" on="0"/>
        <pt x="445" y="152" on="0"/>
        <pt x="474" y="159" on="0"/>
        <pt x="485" y="162" on="1"/>
        <pt x="495" y="165" on="0"/>
        <pt x="499" y="172" on="0"/>
        <pt x="501" y="186" on="1"/>
        <pt x="508" y="243" on="1"/>
        <pt x="414" y="243" on="1"/>
        <pt x="427" y="355" on="1"/>
        <pt x="653" y="355" on="1"/>
        <pt x="664" y="355" on="0"/>
        <pt x="679" y="346" on="0"/>
        <pt x="677" y="330" on="1"/>
        <pt x="638" y="0" on="1"/>
        <pt x="526" y="0" on="1"/>
      </contour>
    </TTGlyph>
    <TTGlyph name="Gbreve" xMin="38" yMin="-11" xMax="679" yMax="904">
      <component glyphName="G" x="0" y="0" flags="0x204"/>
      <component glyphName="breve.cap" x="150" y="0" flags="0x4"/>
    </TTGlyph>
    <TTGlyph name="Gcircumflex" xMin="38" yMin="-11" xMax="679" yMax="919">
      <component glyphName="G" x="0" y="0" flags="0x204"/>
      <component glyphName="circumflex.cap" x="147" y="0" flags="0x4"/>
    </TTGlyph>
    <TTGlyph name="Gcommaaccent" xMin="38" yMin="-315" xMax="679" yMax="672">
      <component glyphName="G" x="0" y="0" flags="0x204"/>
      <component glyphName="commaaccent" x="159" y="0" flags="0x4"/>
    </TTGlyph>
    <TTGlyph name="Gdotaccent" xMin="38" yMin="-11" xMax="679" yMax="875">
      <component glyphName="G" x="0" y="0" flags="0x204"/>
      <component glyphName="dotaccent.cap" x="155" y="0" flags="0x4"/>
    </TTGlyph>
    <TTGlyph name="H" xMin="31" yMin="0" xMax="702" yMax="663">
      <contour>
        <pt x="623" y="0" on="1"/>
        <pt x="459" y="0" on="1"/>
        <pt x="490" y="269" on="1"/>
        <pt x="228" y="269" on="1"/>
        <pt x="196" y="0" on="1"/>
        <pt x="31" y="0" on="1"/>
        <pt x="110" y="663" on="1"/>
        <pt x="275" y="663" on="1"/>
        <pt x="245" y="411" on="1"/>
        <pt x="507" y="411" on="1"/>
        <pt x="537" y="663" on="1"/>
        <pt x="702" y="663" on="1"/>
      </contour>
    </TTGlyph>
    <TTGlyph name="Hbar" xMin="35" yMin="0" xMax="773" yMax="663">
      <contour>
        <pt x="114" y="587" on="1"/>
        <pt x="123" y="663" on="1"/>
        <pt x="288" y="663" on="1"/>
        <pt x="279" y="587" on="1"/>
        <pt x="541" y="587" on="1"/>
        <pt x="550" y="663" on="1"/>
        <pt x="715" y="663" on="1"/>
        <pt x="706" y="587" on="1"/>
        <pt x="773" y="587" on="1"/>
        <pt x="761" y="485" on="1"/>
        <pt x="694" y="485" on="1"/>
        <pt x="636" y="0" on="1"/>
        <pt x="472" y="0" on="1"/>
        <pt x="503" y="269" on="1"/>
        <pt x="241" y="269" on="1"/>
        <pt x="209" y="0" on="1"/>
        <pt x="44" y="0" on="1"/>
        <pt x="102" y="485" on="1"/>
        <pt x="35" y="485" on="1"/>
        <pt x="47" y="587" on="1"/>
      </contour>
      <contour>
        <pt x="520" y="411" on="1"/>
        <pt x="528" y="485" on="1"/>
        <pt x="266" y="485" on="1"/>
        <pt x="258" y="411" on="1"/>
      </contour>
    </TTGlyph>
    <TTGlyph name="Hcircumflex" xMin="31" yMin="0" xMax="702" yMax="919">
      <component glyphName="H" x="0" y="0" flags="0x204"/>
      <component glyphName="circumflex.cap" x="148" y="0" flags="0x4"/>
    </TTGlyph>
    <TTGlyph name="I" xMin="33" yMin="0" xMax="277" yMax="663">
      <contour>
        <pt x="198" y="0" on="1"/>
        <pt x="33" y="0" on="1"/>
        <pt x="112" y="663" on="1"/>
        <pt x="277" y="663" on="1"/>
      </contour>
    </TTGlyph>
    <TTGlyph name="IJ" xMin="33" yMin="-10" xMax="799" yMax="663">
      <component glyphName="I" x="0" y="0" flags="0x4"/>
      <component glyphName="J" x="296" y="0" flags="0x4"/>
    </TTGlyph>
    <TTGlyph name="Iacute" xMin="33" yMin="0" xMax="367" yMax="933">
      <component glyphName="I" x="0" y="0" flags="0x4"/>
      <component glyphName="acute.cap" x="-53" y="0" flags="0x4"/>
    </TTGlyph>
    <TTGlyph name="Ibreve" xMin="33" yMin="0" xMax="394" yMax="904">
      <component glyphName="I" x="0" y="0" flags="0x4"/>
      <component glyphName="breve.cap" x="-55" y="0" flags="0x4"/>
    </TTGlyph>
    <TTGlyph name="Icircumflex" xMin="31" yMin="0" xMax="389" yMax="919">
      <component glyphName="I" x="0" y="0" flags="0x4"/>
      <component glyphName="circumflex.cap" x="-57" y="0" flags="0x4"/>
    </TTGlyph>
    <TTGlyph name="Idieresis" xMin="33" yMin="0" xMax="394" yMax="879">
      <component glyphName="I" x="0" y="0" flags="0x4"/>
      <component glyphName="dieresis.cap" x="-52" y="0" flags="0x4"/>
    </TTGlyph>
    <TTGlyph name="Idotaccent" xMin="33" yMin="0" xMax="291" yMax="875">
      <component glyphName="I" x="0" y="0" flags="0x4"/>
      <component glyphName="dotaccent.cap" x="-51" y="0" flags="0x4"/>
    </TTGlyph>
    <TTGlyph name="Igrave" xMin="33" yMin="0" xMax="337" yMax="937">
      <component glyphName="I" x="0" y="0" flags="0x4"/>
      <component glyphName="grave.cap" x="-45" y="0" flags="0x4"/>
    </TTGlyph>
    <TTGlyph name="Imacron" xMin="33" yMin="0" xMax="382" yMax="869">
      <component glyphName="I" x="0" y="0" flags="0x4"/>
      <component glyphName="macron.cap" x="-51" y="0" flags="0x4"/>
    </TTGlyph>
    <TTGlyph name="Iogonek" xMin="-32" yMin="-227" xMax="277" yMax="663">
      <contour>
        <pt x="198" y="0" on="1"/>
        <pt x="176" y="0" on="1"/>
        <pt x="148" y="0" on="0"/>
        <pt x="112" y="-15" on="0"/>
        <pt x="97" y="-38" on="1"/>
        <pt x="81" y="-64" on="0"/>
        <pt x="81" y="-87" on="1"/>
        <pt x="81" y="-128" on="0"/>
        <pt x="132" y="-128" on="1"/>
        <pt x="140" y="-128" on="0"/>
        <pt x="175" y="-125" on="0"/>
        <pt x="192" y="-122" on="1"/>
        <pt x="205" y="-199" on="1"/>
        <pt x="181" y="-212" on="0"/>
        <pt x="118" y="-227" on="0"/>
        <pt x="93" y="-227" on="1"/>
        <pt x="36" y="-227" on="0"/>
        <pt x="-32" y="-165" on="0"/>
        <pt x="-32" y="-117" on="1"/>
        <pt x="-32" y="-54" on="0"/>
        <pt x="34" y="5" on="1"/>
        <pt x="112" y="663" on="1"/>
        <pt x="277" y="663" on="1"/>
      </contour>
    </TTGlyph>
    <TTGlyph name="Itilde" xMin="22" yMin="0" xMax="408" yMax="897">
      <component glyphName="I" x="0" y="0" flags="0x4"/>
      <component glyphName="tilde.cap" x="-70" y="0" flags="0x4"/>
    </TTGlyph>
    <TTGlyph name="J" xMin="-6" yMin="-10" xMax="503" yMax="663">
      <contour>
        <pt x="27" y="157" on="1"/>
        <pt x="86" y="149" on="1"/>
        <pt x="124" y="144" on="0"/>
        <pt x="178" y="138" on="0"/>
        <pt x="195" y="138" on="1"/>
        <pt x="245" y="138" on="0"/>
        <pt x="282" y="177" on="0"/>
        <pt x="287" y="224" on="1"/>
        <pt x="338" y="663" on="1"/>
        <pt x="503" y="663" on="1"/>
        <pt x="451" y="228" on="1"/>
        <pt x="443" y="164" on="0"/>
        <pt x="403" y="74" on="0"/>
        <pt x="341" y="17" on="0"/>
        <pt x="258" y="-10" on="0"/>
        <pt x="209" y="-10" on="1"/>
        <pt x="153" y="-10" on="0"/>
        <pt x="40" y="25" on="0"/>
        <pt x="-6" y="55" on="1"/>
      </contour>
    </TTGlyph>
    <TTGlyph name="Jcircumflex" xMin="-6" yMin="-10" xMax="607" yMax="919">
      <component glyphName="J" x="0" y="0" flags="0x204"/>
      <component glyphName="circumflex.cap" x="161" y="0" flags="0x4"/>
    </TTGlyph>
    <TTGlyph name="K" xMin="31" yMin="0" xMax="677" yMax="671">
      <contour>
        <pt x="196" y="0" on="1"/>
        <pt x="31" y="0" on="1"/>
        <pt x="110" y="663" on="1"/>
        <pt x="275" y="663" on="1"/>
        <pt x="241" y="382" on="1"/>
        <pt x="590" y="671" on="1"/>
        <pt x="677" y="567" on="1"/>
        <pt x="446" y="381" on="1"/>
        <pt x="637" y="0" on="1"/>
        <pt x="480" y="0" on="1"/>
        <pt x="467" y="0" on="0"/>
        <pt x="455" y="5" on="0"/>
        <pt x="450" y="16" on="1"/>
        <pt x="320" y="285" on="1"/>
        <pt x="299" y="271" on="0"/>
        <pt x="244" y="243" on="0"/>
        <pt x="224" y="237" on="1"/>
      </contour>
    </TTGlyph>
    <TTGlyph name="Kcommaaccent" xMin="31" yMin="-315" xMax="677" yMax="671">
      <component glyphName="K" x="0" y="0" flags="0x204"/>
      <component glyphName="commaaccent" x="135" y="0" flags="0x4"/>
    </TTGlyph>
    <TTGlyph name="L" xMin="31" yMin="0" xMax="522" yMax="663">
      <contour>
        <pt x="110" y="663" on="1"/>
        <pt x="275" y="663" on="1"/>
        <pt x="213" y="136" on="1"/>
        <pt x="522" y="136" on="1"/>
        <pt x="505" y="0" on="1"/>
        <pt x="31" y="0" on="1"/>
      </contour>
    </TTGlyph>
    <TTGlyph name="Lacute" xMin="31" yMin="0" xMax="522" yMax="933">
      <component glyphName="L" x="0" y="0" flags="0x4"/>
      <component glyphName="acute.cap" x="-18" y="0" flags="0x4"/>
    </TTGlyph>
    <TTGlyph name="Lcaron" xMin="31" yMin="0" xMax="522" yMax="663">
      <component glyphName="L" x="0" y="0" flags="0x4"/>
      <component glyphName="commaaccent" x="259" y="721" flags="0x4"/>
    </TTGlyph>
    <TTGlyph name="Lcommaaccent" xMin="31" yMin="-315" xMax="522" yMax="663">
      <component glyphName="L" x="0" y="0" flags="0x4"/>
      <component glyphName="commaaccent" x="101" y="0" flags="0x4"/>
    </TTGlyph>
    <TTGlyph name="Ldot" xMin="31" yMin="0" xMax="522" yMax="663">
      <component glyphName="L" x="0" y="0" flags="0x4"/>
      <component glyphName="dotaccent" x="195" y="-270" flags="0x4"/>
    </TTGlyph>
    <TTGlyph name="Lslash" xMin="-10" yMin="0" xMax="585" yMax="663">
      <contour>
        <pt x="295" y="297" on="1"/>
        <pt x="276" y="136" on="1"/>
        <pt x="585" y="136" on="1"/>
        <pt x="568" y="0" on="1"/>
        <pt x="94" y="0" on="1"/>
        <pt x="120" y="225" on="1"/>
        <pt x="57" y="186" on="1"/>
        <pt x="-10" y="305" on="1"/>
        <pt x="141" y="398" on="1"/>
        <pt x="173" y="663" on="1"/>
        <pt x="338" y="663" on="1"/>
        <pt x="316" y="473" on="1"/>
        <pt x="450" y="557" on="1"/>
        <pt x="517" y="438" on="1"/>
      </contour>
    </TTGlyph>
    <TTGlyph name="M" xMin="31" yMin="0" xMax="822" yMax="663">
      <contour>
        <pt x="652" y="645" on="1"/>
        <pt x="663" y="657" on="0"/>
        <pt x="673" y="663" on="0"/>
        <pt x="684" y="663" on="1"/>
        <pt x="822" y="663" on="1"/>
        <pt x="743" y="0" on="1"/>
        <pt x="584" y="0" on="1"/>
        <pt x="634" y="422" on="1"/>
        <pt x="632" y="422" on="1"/>
        <pt x="468" y="234" on="1"/>
        <pt x="371" y="234" on="1"/>
        <pt x="351" y="234" on="0"/>
        <pt x="344" y="246" on="1"/>
        <pt x="240" y="422" on="1"/>
        <pt x="239" y="422" on="1"/>
        <pt x="189" y="0" on="1"/>
        <pt x="31" y="0" on="1"/>
        <pt x="110" y="663" on="1"/>
        <pt x="244" y="663" on="1"/>
        <pt x="257" y="663" on="0"/>
        <pt x="269" y="658" on="0"/>
        <pt x="276" y="646" on="1"/>
        <pt x="428" y="390" on="1"/>
        <pt x="431" y="390" on="1"/>
      </contour>
    </TTGlyph>
    <TTGlyph name="N" xMin="31" yMin="0" xMax="711" yMax="663">
      <contour>
        <pt x="185" y="0" on="1"/>
        <pt x="31" y="0" on="1"/>
        <pt x="110" y="663" on="1"/>
        <pt x="227" y="663" on="1"/>
        <pt x="238" y="663" on="0"/>
        <pt x="248" y="658" on="0"/>
        <pt x="254" y="649" on="1"/>
        <pt x="456" y="338" on="1"/>
        <pt x="470" y="317" on="0"/>
        <pt x="497" y="274" on="0"/>
        <pt x="507" y="257" on="1"/>
        <pt x="509" y="257" on="1"/>
        <pt x="558" y="663" on="1"/>
        <pt x="711" y="663" on="1"/>
        <pt x="632" y="0" on="1"/>
        <pt x="516" y="0" on="1"/>
        <pt x="505" y="0" on="0"/>
        <pt x="495" y="4" on="0"/>
        <pt x="490" y="12" on="1"/>
        <pt x="290" y="320" on="1"/>
        <pt x="276" y="340" on="0"/>
        <pt x="246" y="389" on="0"/>
        <pt x="235" y="408" on="1"/>
        <pt x="233" y="408" on="1"/>
      </contour>
    </TTGlyph>
    <TTGlyph name="Nacute" xMin="31" yMin="0" xMax="711" yMax="933">
      <component glyphName="N" x="0" y="0" flags="0x204"/>
      <component glyphName="acute.cap" x="171" y="0" flags="0x4"/>
    </TTGlyph>
    <TTGlyph name="Ncaron" xMin="31" yMin="0" xMax="711" yMax="931">
      <component glyphName="N" x="0" y="0" flags="0x204"/>
      <component glyphName="caron.cap" x="152" y="0" flags="0x4"/>
    </TTGlyph>
    <TTGlyph name="Ncommaaccent" xMin="31" yMin="-315" xMax="711" yMax="663">
      <component glyphName="N" x="0" y="0" flags="0x204"/>
      <component glyphName="commaaccent" x="171" y="0" flags="0x4"/>
    </TTGlyph>
    <TTGlyph name="Ntilde" xMin="31" yMin="0" xMax="711" yMax="897">
      <component glyphName="N" x="0" y="0" flags="0x204"/>
      <component glyphName="tilde.cap" x="141" y="0" flags="0x4"/>
    </TTGlyph>
    <TTGlyph name="O" xMin="38" yMin="-11" xMax="701" yMax="672">
      <contour>
        <pt x="701" y="363" on="1"/>
        <pt x="701" y="277" on="0"/>
        <pt x="643" y="139" on="0"/>
        <pt x="545" y="42" on="0"/>
        <pt x="416" y="-11" on="0"/>
        <pt x="344" y="-11" on="1"/>
        <pt x="279" y="-11" on="0"/>
        <pt x="168" y="36" on="0"/>
        <pt x="85" y="118" on="0"/>
        <pt x="38" y="232" on="0"/>
        <pt x="38" y="299" on="1"/>
        <pt x="38" y="380" on="0"/>
        <pt x="96" y="517" on="0"/>
        <pt x="194" y="616" on="0"/>
        <pt x="323" y="672" on="0"/>
        <pt x="395" y="672" on="1"/>
        <pt x="459" y="672" on="0"/>
        <pt x="571" y="626" on="0"/>
        <pt x="654" y="543" on="0"/>
        <pt x="701" y="430" on="0"/>
      </contour>
      <contour>
        <pt x="530" y="350" on="1"/>
        <pt x="530" y="424" on="0"/>
        <pt x="450" y="513" on="0"/>
        <pt x="384" y="513" on="1"/>
        <pt x="346" y="513" on="0"/>
        <pt x="282" y="484" on="0"/>
        <pt x="235" y="430" on="0"/>
        <pt x="209" y="356" on="0"/>
        <pt x="209" y="311" on="1"/>
        <pt x="209" y="235" on="0"/>
        <pt x="289" y="149" on="0"/>
        <pt x="355" y="149" on="1"/>
        <pt x="393" y="149" on="0"/>
        <pt x="457" y="177" on="0"/>
        <pt x="504" y="230" on="0"/>
        <pt x="530" y="304" on="0"/>
      </contour>
    </TTGlyph>
    <TTGlyph name="OE" xMin="38" yMin="-11" xMax="1050" yMax="672">
      <contour>
        <pt x="1050" y="663" on="1"/>
        <pt x="1034" y="527" on="1"/>
        <pt x="712" y="527" on="1"/>
        <pt x="698" y="402" on="1"/>
        <pt x="987" y="402" on="1"/>
        <pt x="971" y="268" on="1"/>
        <pt x="681" y="268" on="1"/>
        <pt x="666" y="136" on="1"/>
        <pt x="997" y="136" on="1"/>
        <pt x="981" y="0" on="1"/>
        <pt x="485" y="0" on="1"/>
        <pt x="492" y="56" on="1"/>
        <pt x="460" y="26" on="0"/>
        <pt x="369" y="-11" on="0"/>
        <pt x="321" y="-11" on="1"/>
        <pt x="259" y="-11" on="0"/>
        <pt x="155" y="37" on="0"/>
        <pt x="80" y="121" on="0"/>
        <pt x="38" y="234" on="0"/>
        <pt x="38" y="300" on="1"/>
        <pt x="38" y="378" on="0"/>
        <pt x="89" y="513" on="0"/>
        <pt x="178" y="614" on="0"/>
        <pt x="298" y="672" on="0"/>
        <pt x="367" y="672" on="1"/>
        <pt x="428" y="672" on="0"/>
        <pt x="524" y="618" on="0"/>
        <pt x="554" y="579" on="1"/>
        <pt x="564" y="663" on="1"/>
      </contour>
      <contour>
        <pt x="534" y="350" on="1"/>
        <pt x="534" y="387" on="0"/>
        <pt x="512" y="447" on="0"/>
        <pt x="473" y="489" on="0"/>
        <pt x="419" y="512" on="0"/>
        <pt x="386" y="512" on="1"/>
        <pt x="348" y="512" on="0"/>
        <pt x="283" y="483" on="0"/>
        <pt x="236" y="431" on="0"/>
        <pt x="209" y="357" on="0"/>
        <pt x="209" y="311" on="1"/>
        <pt x="209" y="275" on="0"/>
        <pt x="231" y="215" on="0"/>
        <pt x="270" y="173" on="0"/>
        <pt x="324" y="150" on="0"/>
        <pt x="357" y="150" on="1"/>
        <pt x="395" y="150" on="0"/>
        <pt x="460" y="178" on="0"/>
        <pt x="507" y="230" on="0"/>
        <pt x="534" y="304" on="0"/>
      </contour>
    </TTGlyph>
    <TTGlyph name="Oacute" xMin="38" yMin="-11" xMax="701" yMax="933">
      <component glyphName="O" x="0" y="0" flags="0x204"/>
      <component glyphName="acute.cap" x="139" y="0" flags="0x4"/>
    </TTGlyph>
    <TTGlyph name="Obreve" xMin="38" yMin="-11" xMax="701" yMax="904">
      <component glyphName="O" x="0" y="0" flags="0x204"/>
      <component glyphName="breve.cap" x="143" y="0" flags="0x4"/>
    </TTGlyph>
    <TTGlyph name="Ocircumflex" xMin="38" yMin="-11" xMax="701" yMax="919">
      <component glyphName="O" x="0" y="0" flags="0x204"/>
      <component glyphName="circumflex.cap" x="143" y="0" flags="0x4"/>
    </TTGlyph>
    <TTGlyph name="Odieresis" xMin="38" yMin="-11" xMax="701" yMax="879">
      <component glyphName="O" x="0" y="0" flags="0x204"/>
      <component glyphName="dieresis.cap" x="146" y="0" flags="0x4"/>
    </TTGlyph>
    <TTGlyph name="Ograve" xMin="38" yMin="-11" xMax="701" yMax="937">
      <component glyphName="O" x="0" y="0" flags="0x204"/>
      <component glyphName="grave.cap" x="161" y="0" flags="0x4"/>
    </TTGlyph>
    <TTGlyph name="Ohungarumlaut" xMin="38" yMin="-11" xMax="701" yMax="990">
      <component glyphName="O" x="0" y="0" flags="0x204"/>
      <component glyphName="hungarumlaut.cap" x="127" y="0" flags="0x4"/>
    </TTGlyph>
    <TTGlyph name="Omacron" xMin="38" yMin="-11" xMax="701" yMax="869">
      <component glyphName="O" x="0" y="0" flags="0x204"/>
      <component glyphName="macron.cap" x="142" y="0" flags="0x4"/>
    </TTGlyph>
    <TTGlyph name="Omega" xMin="18" yMin="0" xMax="698" yMax="673">
      <contour>
        <pt x="375" y="65" on="1"/>
        <pt x="377" y="78" on="0"/>
        <pt x="381" y="91" on="0"/>
        <pt x="391" y="105" on="1"/>
        <pt x="446" y="180" on="1"/>
        <pt x="471" y="214" on="0"/>
        <pt x="505" y="270" on="0"/>
        <pt x="526" y="320" on="0"/>
        <pt x="535" y="366" on="0"/>
        <pt x="535" y="389" on="1"/>
        <pt x="535" y="421" on="0"/>
        <pt x="511" y="469" on="0"/>
        <pt x="470" y="501" on="0"/>
        <pt x="415" y="517" on="0"/>
        <pt x="383" y="517" on="1"/>
        <pt x="349" y="517" on="0"/>
        <pt x="288" y="498" on="0"/>
        <pt x="242" y="459" on="0"/>
        <pt x="215" y="398" on="0"/>
        <pt x="215" y="355" on="1"/>
        <pt x="215" y="318" on="0"/>
        <pt x="236" y="237" on="0"/>
        <pt x="262" y="180" on="1"/>
        <pt x="296" y="105" on="1"/>
        <pt x="301" y="93" on="0"/>
        <pt x="304" y="75" on="0"/>
        <pt x="302" y="59" on="1"/>
        <pt x="295" y="0" on="1"/>
        <pt x="18" y="0" on="1"/>
        <pt x="34" y="131" on="1"/>
        <pt x="157" y="131" on="1"/>
        <pt x="110" y="188" on="0"/>
        <pt x="55" y="309" on="0"/>
        <pt x="55" y="375" on="1"/>
        <pt x="55" y="439" on="0"/>
        <pt x="106" y="548" on="0"/>
        <pt x="197" y="628" on="0"/>
        <pt x="322" y="673" on="0"/>
        <pt x="395" y="673" on="1"/>
        <pt x="464" y="673" on="0"/>
        <pt x="576" y="633" on="0"/>
        <pt x="655" y="564" on="0"/>
        <pt x="698" y="471" on="0"/>
        <pt x="698" y="417" on="1"/>
        <pt x="698" y="339" on="0"/>
        <pt x="613" y="194" on="0"/>
        <pt x="544" y="131" on="1"/>
        <pt x="660" y="131" on="1"/>
        <pt x="644" y="0" on="1"/>
        <pt x="367" y="0" on="1"/>
      </contour>
    </TTGlyph>
    <TTGlyph name="Oslash" xMin="30" yMin="-51" xMax="723" yMax="721">
      <contour>
        <pt x="701" y="363" on="1"/>
        <pt x="701" y="277" on="0"/>
        <pt x="643" y="139" on="0"/>
        <pt x="545" y="42" on="0"/>
        <pt x="416" y="-11" on="0"/>
        <pt x="344" y="-11" on="1"/>
        <pt x="298" y="-11" on="0"/>
        <pt x="216" y="12" on="0"/>
        <pt x="181" y="34" on="1"/>
        <pt x="106" y="-51" on="1"/>
        <pt x="30" y="17" on="1"/>
        <pt x="105" y="101" on="1"/>
        <pt x="73" y="141" on="0"/>
        <pt x="38" y="241" on="0"/>
        <pt x="38" y="299" on="1"/>
        <pt x="38" y="380" on="0"/>
        <pt x="96" y="517" on="0"/>
        <pt x="194" y="616" on="0"/>
        <pt x="323" y="672" on="0"/>
        <pt x="395" y="672" on="1"/>
        <pt x="488" y="672" on="0"/>
        <pt x="562" y="624" on="1"/>
        <pt x="647" y="721" on="1"/>
        <pt x="723" y="653" on="1"/>
        <pt x="638" y="555" on="1"/>
        <pt x="668" y="516" on="0"/>
        <pt x="701" y="420" on="0"/>
      </contour>
      <contour>
        <pt x="209" y="311" on="1"/>
        <pt x="209" y="291" on="0"/>
        <pt x="216" y="251" on="0"/>
        <pt x="222" y="235" on="1"/>
        <pt x="452" y="498" on="1"/>
        <pt x="440" y="505" on="0"/>
        <pt x="403" y="513" on="0"/>
        <pt x="385" y="513" on="1"/>
        <pt x="346" y="513" on="0"/>
        <pt x="282" y="484" on="0"/>
        <pt x="235" y="430" on="0"/>
        <pt x="209" y="356" on="0"/>
      </contour>
      <contour>
        <pt x="530" y="350" on="1"/>
        <pt x="530" y="368" on="0"/>
        <pt x="523" y="408" on="0"/>
        <pt x="518" y="420" on="1"/>
        <pt x="292" y="161" on="1"/>
        <pt x="319" y="149" on="0"/>
        <pt x="355" y="149" on="1"/>
        <pt x="394" y="149" on="0"/>
        <pt x="458" y="177" on="0"/>
        <pt x="504" y="230" on="0"/>
        <pt x="530" y="304" on="0"/>
      </contour>
    </TTGlyph>
    <TTGlyph name="Oslashacute" xMin="30" yMin="-51" xMax="723" yMax="933">
      <component glyphName="Oslash" x="0" y="0" flags="0x204"/>
      <component glyphName="acute.cap" x="139" y="0" flags="0x4"/>
    </TTGlyph>
    <TTGlyph name="Otilde" xMin="38" yMin="-11" xMax="701" yMax="897">
      <component glyphName="O" x="0" y="0" flags="0x204"/>
      <component glyphName="tilde.cap" x="128" y="0" flags="0x4"/>
    </TTGlyph>
    <TTGlyph name="P" xMin="31" yMin="0" xMax="629" yMax="663">
      <contour>
        <pt x="220" y="198" on="1"/>
        <pt x="196" y="0" on="1"/>
        <pt x="31" y="0" on="1"/>
        <pt x="110" y="663" on="1"/>
        <pt x="360" y="663" on="1"/>
        <pt x="443" y="663" on="0"/>
        <pt x="548" y="633" on="0"/>
        <pt x="580" y="600" on="1"/>
        <pt x="604" y="575" on="0"/>
        <pt x="629" y="507" on="0"/>
        <pt x="629" y="459" on="1"/>
        <pt x="629" y="432" on="0"/>
        <pt x="617" y="375" on="0"/>
        <pt x="594" y="319" on="0"/>
        <pt x="561" y="268" on="0"/>
        <pt x="539" y="249" on="1"/>
        <pt x="509" y="222" on="0"/>
        <pt x="428" y="198" on="0"/>
        <pt x="367" y="198" on="1"/>
      </contour>
      <contour>
        <pt x="235" y="333" on="1"/>
        <pt x="387" y="333" on="1"/>
        <pt x="404" y="333" on="0"/>
        <pt x="424" y="339" on="0"/>
        <pt x="433" y="350" on="1"/>
        <pt x="446" y="365" on="0"/>
        <pt x="463" y="418" on="0"/>
        <pt x="463" y="445" on="1"/>
        <pt x="463" y="484" on="0"/>
        <pt x="446" y="502" on="1"/>
        <pt x="425" y="524" on="0"/>
        <pt x="360" y="524" on="1"/>
        <pt x="259" y="524" on="1"/>
      </contour>
    </TTGlyph>
    <TTGlyph name="Q" xMin="38" yMin="-203" xMax="701" yMax="672">
      <contour>
        <pt x="349" y="-11" on="1"/>
        <pt x="283" y="-11" on="0"/>
        <pt x="169" y="34" on="0"/>
        <pt x="86" y="116" on="0"/>
        <pt x="38" y="230" on="0"/>
        <pt x="38" y="299" on="1"/>
        <pt x="38" y="380" on="0"/>
        <pt x="96" y="517" on="0"/>
        <pt x="194" y="616" on="0"/>
        <pt x="324" y="672" on="0"/>
        <pt x="395" y="672" on="1"/>
        <pt x="460" y="672" on="0"/>
        <pt x="572" y="626" on="0"/>
        <pt x="654" y="543" on="0"/>
        <pt x="701" y="430" on="0"/>
        <pt x="701" y="363" on="1"/>
        <pt x="701" y="306" on="0"/>
        <pt x="673" y="204" on="0"/>
        <pt x="623" y="119" on="0"/>
        <pt x="553" y="51" on="0"/>
        <pt x="510" y="29" on="1"/>
        <pt x="615" y="-129" on="1"/>
        <pt x="444" y="-203" on="1"/>
        <pt x="357" y="-11" on="1"/>
      </contour>
      <contour>
        <pt x="530" y="350" on="1"/>
        <pt x="530" y="424" on="0"/>
        <pt x="450" y="513" on="0"/>
        <pt x="384" y="513" on="1"/>
        <pt x="346" y="513" on="0"/>
        <pt x="282" y="484" on="0"/>
        <pt x="235" y="430" on="0"/>
        <pt x="209" y="356" on="0"/>
        <pt x="209" y="311" on="1"/>
        <pt x="209" y="235" on="0"/>
        <pt x="289" y="149" on="0"/>
        <pt x="355" y="149" on="1"/>
        <pt x="393" y="149" on="0"/>
        <pt x="457" y="177" on="0"/>
        <pt x="504" y="230" on="0"/>
        <pt x="530" y="304" on="0"/>
      </contour>
    </TTGlyph>
    <TTGlyph name="R" xMin="31" yMin="0" xMax="635" yMax="663">
      <contour>
        <pt x="366" y="663" on="1"/>
        <pt x="449" y="663" on="0"/>
        <pt x="554" y="633" on="0"/>
        <pt x="586" y="600" on="1"/>
        <pt x="610" y="575" on="0"/>
        <pt x="635" y="507" on="0"/>
        <pt x="635" y="459" on="1"/>
        <pt x="635" y="387" on="0"/>
        <pt x="565" y="275" on="0"/>
        <pt x="506" y="237" on="1"/>
        <pt x="618" y="0" on="1"/>
        <pt x="465" y="0" on="1"/>
        <pt x="453" y="0" on="0"/>
        <pt x="442" y="5" on="0"/>
        <pt x="437" y="16" on="1"/>
        <pt x="359" y="193" on="1"/>
        <pt x="354" y="205" on="0"/>
        <pt x="343" y="209" on="0"/>
        <pt x="330" y="209" on="1"/>
        <pt x="221" y="209" on="1"/>
        <pt x="196" y="0" on="1"/>
        <pt x="31" y="0" on="1"/>
        <pt x="110" y="663" on="1"/>
      </contour>
      <contour>
        <pt x="469" y="444" on="1"/>
        <pt x="469" y="484" on="0"/>
        <pt x="452" y="502" on="1"/>
        <pt x="431" y="524" on="0"/>
        <pt x="366" y="524" on="1"/>
        <pt x="258" y="524" on="1"/>
        <pt x="237" y="344" on="1"/>
        <pt x="395" y="344" on="1"/>
        <pt x="412" y="344" on="0"/>
        <pt x="433" y="350" on="0"/>
        <pt x="442" y="361" on="1"/>
        <pt x="455" y="376" on="0"/>
        <pt x="469" y="423" on="0"/>
      </contour>
    </TTGlyph>
    <TTGlyph name="Racute" xMin="31" yMin="0" xMax="635" yMax="933">
      <component glyphName="R" x="0" y="0" flags="0x204"/>
      <component glyphName="acute.cap" x="123" y="0" flags="0x4"/>
    </TTGlyph>
    <TTGlyph name="Rcaron" xMin="31" yMin="0" xMax="635" yMax="931">
      <component glyphName="R" x="0" y="0" flags="0x204"/>
      <component glyphName="caron.cap" x="113" y="0" flags="0x4"/>
    </TTGlyph>
    <TTGlyph name="Rcommaaccent" xMin="31" yMin="-315" xMax="635" yMax="663">
      <component glyphName="R" x="0" y="0" flags="0x204"/>
      <component glyphName="commaaccent" x="138" y="0" flags="0x4"/>
    </TTGlyph>
    <TTGlyph name="S" xMin="9" yMin="-11" xMax="561" yMax="672">
      <contour>
        <pt x="116" y="149" on="1"/>
        <pt x="176" y="141" on="0"/>
        <pt x="258" y="132" on="0"/>
        <pt x="290" y="132" on="1"/>
        <pt x="338" y="132" on="0"/>
        <pt x="393" y="165" on="0"/>
        <pt x="393" y="199" on="1"/>
        <pt x="393" y="222" on="0"/>
        <pt x="355" y="250" on="0"/>
        <pt x="306" y="267" on="1"/>
        <pt x="255" y="286" on="1"/>
        <pt x="210" y="303" on="0"/>
        <pt x="136" y="340" on="0"/>
        <pt x="85" y="386" on="0"/>
        <pt x="57" y="444" on="0"/>
        <pt x="57" y="482" on="1"/>
        <pt x="57" y="530" on="0"/>
        <pt x="99" y="602" on="0"/>
        <pt x="172" y="649" on="0"/>
        <pt x="272" y="672" on="0"/>
        <pt x="330" y="672" on="1"/>
        <pt x="390" y="672" on="0"/>
        <pt x="513" y="649" on="0"/>
        <pt x="561" y="631" on="1"/>
        <pt x="540" y="519" on="1"/>
        <pt x="464" y="523" on="1"/>
        <pt x="426" y="525" on="0"/>
        <pt x="358" y="528" on="0"/>
        <pt x="331" y="528" on="1"/>
        <pt x="269" y="528" on="0"/>
        <pt x="216" y="511" on="0"/>
        <pt x="216" y="488" on="1"/>
        <pt x="216" y="472" on="0"/>
        <pt x="252" y="450" on="0"/>
        <pt x="296" y="434" on="1"/>
        <pt x="350" y="414" on="1"/>
        <pt x="402" y="395" on="0"/>
        <pt x="479" y="357" on="0"/>
        <pt x="530" y="311" on="0"/>
        <pt x="556" y="253" on="0"/>
        <pt x="556" y="214" on="1"/>
        <pt x="556" y="164" on="0"/>
        <pt x="519" y="81" on="0"/>
        <pt x="449" y="22" on="0"/>
        <pt x="347" y="-11" on="0"/>
        <pt x="281" y="-11" on="1"/>
        <pt x="212" y="-11" on="0"/>
        <pt x="67" y="22" on="0"/>
        <pt x="9" y="48" on="1"/>
        <pt x="44" y="159" on="1"/>
      </contour>
    </TTGlyph>
    <TTGlyph name="Sacute" xMin="9" yMin="-11" xMax="561" yMax="933">
      <component glyphName="S" x="0" y="0" flags="0x204"/>
      <component glyphName="acute.cap" x="79" y="0" flags="0x4"/>
    </TTGlyph>
    <TTGlyph name="Scaron" xMin="9" yMin="-11" xMax="561" yMax="931">
      <component glyphName="S" x="0" y="0" flags="0x204"/>
      <component glyphName="caron.cap" x="86" y="0" flags="0x4"/>
    </TTGlyph>
    <TTGlyph name="Scedilla" xMin="9" yMin="-248" xMax="561" yMax="672">
      <contour>
        <pt x="116" y="149" on="1"/>
        <pt x="176" y="141" on="0"/>
        <pt x="258" y="132" on="0"/>
        <pt x="290" y="132" on="1"/>
        <pt x="338" y="132" on="0"/>
        <pt x="393" y="165" on="0"/>
        <pt x="393" y="199" on="1"/>
        <pt x="393" y="222" on="0"/>
        <pt x="355" y="250" on="0"/>
        <pt x="306" y="267" on="1"/>
        <pt x="255" y="286" on="1"/>
        <pt x="210" y="303" on="0"/>
        <pt x="136" y="340" on="0"/>
        <pt x="85" y="386" on="0"/>
        <pt x="57" y="444" on="0"/>
        <pt x="57" y="482" on="1"/>
        <pt x="57" y="530" on="0"/>
        <pt x="99" y="602" on="0"/>
        <pt x="172" y="649" on="0"/>
        <pt x="272" y="672" on="0"/>
        <pt x="330" y="672" on="1"/>
        <pt x="390" y="672" on="0"/>
        <pt x="513" y="649" on="0"/>
        <pt x="561" y="631" on="1"/>
        <pt x="540" y="519" on="1"/>
        <pt x="464" y="523" on="1"/>
        <pt x="426" y="525" on="0"/>
        <pt x="358" y="528" on="0"/>
        <pt x="331" y="528" on="1"/>
        <pt x="269" y="528" on="0"/>
        <pt x="216" y="511" on="0"/>
        <pt x="216" y="488" on="1"/>
        <pt x="216" y="472" on="0"/>
        <pt x="252" y="450" on="0"/>
        <pt x="296" y="434" on="1"/>
        <pt x="350" y="414" on="1"/>
        <pt x="402" y="395" on="0"/>
        <pt x="479" y="357" on="0"/>
        <pt x="530" y="311" on="0"/>
        <pt x="556" y="253" on="0"/>
        <pt x="556" y="214" on="1"/>
        <pt x="556" y="167" on="0"/>
        <pt x="524" y="89" on="0"/>
        <pt x="463" y="31" on="0"/>
        <pt x="374" y="-5" on="0"/>
        <pt x="317" y="-9" on="1"/>
        <pt x="304" y="-25" on="0"/>
        <pt x="304" y="-35" on="1"/>
        <pt x="304" y="-43" on="0"/>
        <pt x="333" y="-55" on="0"/>
        <pt x="367" y="-73" on="0"/>
        <pt x="396" y="-102" on="0"/>
        <pt x="396" y="-127" on="1"/>
        <pt x="396" y="-155" on="0"/>
        <pt x="363" y="-199" on="0"/>
        <pt x="308" y="-229" on="0"/>
        <pt x="233" y="-247" on="0"/>
        <pt x="191" y="-248" on="1"/>
        <pt x="186" y="-166" on="1"/>
        <pt x="239" y="-157" on="1"/>
        <pt x="273" y="-151" on="0"/>
        <pt x="273" y="-137" on="1"/>
        <pt x="273" y="-129" on="0"/>
        <pt x="249" y="-117" on="0"/>
        <pt x="219" y="-103" on="0"/>
        <pt x="195" y="-83" on="0"/>
        <pt x="195" y="-68" on="1"/>
        <pt x="195" y="-43" on="0"/>
        <pt x="231" y="-9" on="1"/>
        <pt x="173" y="-4" on="0"/>
        <pt x="57" y="27" on="0"/>
        <pt x="9" y="48" on="1"/>
        <pt x="44" y="159" on="1"/>
      </contour>
    </TTGlyph>
    <TTGlyph name="Scircumflex" xMin="9" yMin="-11" xMax="561" yMax="919">
      <component glyphName="S" x="0" y="0" flags="0x204"/>
      <component glyphName="circumflex.cap" x="86" y="0" flags="0x4"/>
    </TTGlyph>
    <TTGlyph name="Scommaaccent" xMin="9" yMin="-315" xMax="561" yMax="672">
      <component glyphName="S" x="0" y="0" flags="0x204"/>
      <component glyphName="commaaccent" x="99" y="0" flags="0x4"/>
    </TTGlyph>
    <TTGlyph name="T" xMin="44" yMin="0" xMax="646" yMax="663">
      <contour>
        <pt x="255" y="527" on="1"/>
        <pt x="44" y="527" on="1"/>
        <pt x="61" y="663" on="1"/>
        <pt x="646" y="663" on="1"/>
        <pt x="629" y="527" on="1"/>
        <pt x="420" y="527" on="1"/>
        <pt x="358" y="0" on="1"/>
        <pt x="193" y="0" on="1"/>
      </contour>
    </TTGlyph>
    <TTGlyph name="Tbar" xMin="44" yMin="0" xMax="646" yMax="663">
      <contour>
        <pt x="224" y="260" on="1"/>
        <pt x="100" y="260" on="1"/>
        <pt x="114" y="376" on="1"/>
        <pt x="237" y="376" on="1"/>
        <pt x="255" y="527" on="1"/>
        <pt x="44" y="527" on="1"/>
        <pt x="61" y="663" on="1"/>
        <pt x="646" y="663" on="1"/>
        <pt x="629" y="527" on="1"/>
        <pt x="420" y="527" on="1"/>
        <pt x="402" y="376" on="1"/>
        <pt x="530" y="376" on="1"/>
        <pt x="516" y="260" on="1"/>
        <pt x="389" y="260" on="1"/>
        <pt x="358" y="0" on="1"/>
        <pt x="193" y="0" on="1"/>
      </contour>
    </TTGlyph>
    <TTGlyph name="Tcaron" xMin="44" yMin="0" xMax="646" yMax="931">
      <component glyphName="T" x="0" y="0" flags="0x204"/>
      <component glyphName="caron.cap" x="94" y="0" flags="0x4"/>
    </TTGlyph>
    <TTGlyph name="Tcommaaccent" xMin="44" yMin="-315" xMax="646" yMax="663">
      <component glyphName="T" x="0" y="0" flags="0x204"/>
      <component glyphName="commaaccent" x="92" y="0" flags="0x4"/>
    </TTGlyph>
    <TTGlyph name="Thorn" xMin="31" yMin="0" xMax="616" yMax="663">
      <contour>
        <pt x="208" y="100" on="1"/>
        <pt x="196" y="0" on="1"/>
        <pt x="31" y="0" on="1"/>
        <pt x="110" y="663" on="1"/>
        <pt x="275" y="663" on="1"/>
        <pt x="263" y="563" on="1"/>
        <pt x="353" y="563" on="1"/>
        <pt x="483" y="563" on="0"/>
        <pt x="616" y="469" on="0"/>
        <pt x="616" y="359" on="1"/>
        <pt x="616" y="332" on="0"/>
        <pt x="604" y="275" on="0"/>
        <pt x="581" y="220" on="0"/>
        <pt x="548" y="170" on="0"/>
        <pt x="526" y="151" on="1"/>
        <pt x="496" y="124" on="0"/>
        <pt x="415" y="100" on="0"/>
        <pt x="354" y="100" on="1"/>
      </contour>
      <contour>
        <pt x="224" y="230" on="1"/>
        <pt x="376" y="230" on="1"/>
        <pt x="393" y="230" on="0"/>
        <pt x="413" y="236" on="0"/>
        <pt x="422" y="247" on="1"/>
        <pt x="435" y="262" on="0"/>
        <pt x="452" y="318" on="0"/>
        <pt x="452" y="345" on="1"/>
        <pt x="452" y="364" on="0"/>
        <pt x="441" y="398" on="0"/>
        <pt x="430" y="407" on="1"/>
        <pt x="419" y="416" on="0"/>
        <pt x="383" y="425" on="0"/>
        <pt x="352" y="425" on="1"/>
        <pt x="247" y="425" on="1"/>
      </contour>
    </TTGlyph>
    <TTGlyph name="U" xMin="51" yMin="-10" xMax="685" yMax="663">
      <contour>
        <pt x="524" y="663" on="1"/>
        <pt x="685" y="663" on="1"/>
        <pt x="642" y="301" on="1"/>
        <pt x="632" y="215" on="0"/>
        <pt x="576" y="96" on="0"/>
        <pt x="492" y="22" on="0"/>
        <pt x="381" y="-10" on="0"/>
        <pt x="317" y="-10" on="1"/>
        <pt x="259" y="-10" on="0"/>
        <pt x="162" y="25" on="0"/>
        <pt x="91" y="89" on="0"/>
        <pt x="51" y="180" on="0"/>
        <pt x="51" y="236" on="1"/>
        <pt x="51" y="260" on="0"/>
        <pt x="57" y="334" on="0"/>
        <pt x="62" y="379" on="1"/>
        <pt x="96" y="663" on="1"/>
        <pt x="261" y="663" on="1"/>
        <pt x="222" y="342" on="1"/>
        <pt x="218" y="309" on="0"/>
        <pt x="215" y="268" on="0"/>
        <pt x="215" y="254" on="1"/>
        <pt x="215" y="202" on="0"/>
        <pt x="277" y="149" on="0"/>
        <pt x="332" y="149" on="1"/>
        <pt x="407" y="149" on="0"/>
        <pt x="473" y="236" on="0"/>
        <pt x="483" y="318" on="1"/>
      </contour>
    </TTGlyph>
    <TTGlyph name="Uacute" xMin="51" yMin="-10" xMax="685" yMax="933">
      <component glyphName="U" x="0" y="0" flags="0x204"/>
      <component glyphName="acute.cap" x="150" y="0" flags="0x4"/>
    </TTGlyph>
    <TTGlyph name="Ubreve" xMin="51" yMin="-10" xMax="685" yMax="904">
      <component glyphName="U" x="0" y="0" flags="0x204"/>
      <component glyphName="breve.cap" x="136" y="0" flags="0x4"/>
    </TTGlyph>
    <TTGlyph name="Ucircumflex" xMin="51" yMin="-10" xMax="685" yMax="919">
      <component glyphName="U" x="0" y="0" flags="0x204"/>
      <component glyphName="circumflex.cap" x="141" y="0" flags="0x4"/>
    </TTGlyph>
    <TTGlyph name="Udieresis" xMin="51" yMin="-10" xMax="685" yMax="879">
      <component glyphName="U" x="0" y="0" flags="0x204"/>
      <component glyphName="dieresis.cap" x="139" y="0" flags="0x4"/>
    </TTGlyph>
    <TTGlyph name="Ugrave" xMin="51" yMin="-10" xMax="685" yMax="937">
      <component glyphName="U" x="0" y="0" flags="0x204"/>
      <component glyphName="grave.cap" x="128" y="0" flags="0x4"/>
    </TTGlyph>
    <TTGlyph name="Uhungarumlaut" xMin="51" yMin="-10" xMax="685" yMax="990">
      <component glyphName="U" x="0" y="0" flags="0x204"/>
      <component glyphName="hungarumlaut.cap" x="122" y="0" flags="0x4"/>
    </TTGlyph>
    <TTGlyph name="Umacron" xMin="51" yMin="-10" xMax="685" yMax="869">
      <component glyphName="U" x="0" y="0" flags="0x204"/>
      <component glyphName="macron.cap" x="138" y="0" flags="0x4"/>
    </TTGlyph>
    <TTGlyph name="Uogonek" xMin="51" yMin="-227" xMax="685" yMax="663">
      <contour>
        <pt x="222" y="342" on="1"/>
        <pt x="218" y="309" on="0"/>
        <pt x="215" y="268" on="0"/>
        <pt x="215" y="254" on="1"/>
        <pt x="215" y="202" on="0"/>
        <pt x="277" y="149" on="0"/>
        <pt x="332" y="149" on="1"/>
        <pt x="407" y="149" on="0"/>
        <pt x="473" y="236" on="0"/>
        <pt x="483" y="318" on="1"/>
        <pt x="524" y="663" on="1"/>
        <pt x="685" y="663" on="1"/>
        <pt x="642" y="301" on="1"/>
        <pt x="634" y="233" on="0"/>
        <pt x="595" y="139" on="0"/>
        <pt x="536" y="73" on="0"/>
        <pt x="461" y="25" on="0"/>
        <pt x="417" y="3" on="1"/>
        <pt x="388" y="-11" on="0"/>
        <pt x="353" y="-35" on="0"/>
        <pt x="332" y="-56" on="0"/>
        <pt x="325" y="-77" on="0"/>
        <pt x="325" y="-89" on="1"/>
        <pt x="325" y="-128" on="0"/>
        <pt x="377" y="-128" on="1"/>
        <pt x="385" y="-128" on="0"/>
        <pt x="420" y="-125" on="0"/>
        <pt x="437" y="-122" on="1"/>
        <pt x="449" y="-199" on="1"/>
        <pt x="425" y="-212" on="0"/>
        <pt x="362" y="-227" on="0"/>
        <pt x="338" y="-227" on="1"/>
        <pt x="281" y="-227" on="0"/>
        <pt x="212" y="-165" on="0"/>
        <pt x="212" y="-117" on="1"/>
        <pt x="212" y="-87" on="0"/>
        <pt x="246" y="-32" on="0"/>
        <pt x="276" y="-7" on="1"/>
        <pt x="226" y="-2" on="0"/>
        <pt x="144" y="37" on="0"/>
        <pt x="84" y="100" on="0"/>
        <pt x="51" y="185" on="0"/>
        <pt x="51" y="236" on="1"/>
        <pt x="51" y="260" on="0"/>
        <pt x="57" y="334" on="0"/>
        <pt x="62" y="379" on="1"/>
        <pt x="96" y="663" on="1"/>
        <pt x="261" y="663" on="1"/>
      </contour>
    </TTGlyph>
    <TTGlyph name="Uring" xMin="51" yMin="-10" xMax="685" yMax="988">
      <component glyphName="U" x="0" y="0" flags="0x204"/>
      <component glyphName="ring.cap" x="150" y="0" flags="0x4"/>
    </TTGlyph>
    <TTGlyph name="Utilde" xMin="51" yMin="-10" xMax="685" yMax="897">
      <component glyphName="U" x="0" y="0" flags="0x204"/>
      <component glyphName="tilde.cap" x="128" y="0" flags="0x4"/>
    </TTGlyph>
    <TTGlyph name="V" xMin="42" yMin="0" xMax="708" yMax="663">
      <contour>
        <pt x="402" y="0" on="1"/>
        <pt x="217" y="0" on="1"/>
        <pt x="206" y="0" on="0"/>
        <pt x="198" y="8" on="0"/>
        <pt x="196" y="18" on="1"/>
        <pt x="42" y="663" on="1"/>
        <pt x="204" y="663" on="1"/>
        <pt x="212" y="663" on="0"/>
        <pt x="217" y="659" on="0"/>
        <pt x="219" y="651" on="1"/>
        <pt x="267" y="427" on="1"/>
        <pt x="273" y="400" on="0"/>
        <pt x="288" y="322" on="0"/>
        <pt x="303" y="241" on="0"/>
        <pt x="314" y="165" on="0"/>
        <pt x="317" y="140" on="1"/>
        <pt x="318" y="140" on="1"/>
        <pt x="328" y="172" on="0"/>
        <pt x="353" y="243" on="0"/>
        <pt x="380" y="314" on="0"/>
        <pt x="406" y="380" on="0"/>
        <pt x="418" y="407" on="1"/>
        <pt x="525" y="651" on="1"/>
        <pt x="528" y="659" on="0"/>
        <pt x="535" y="663" on="0"/>
        <pt x="542" y="663" on="1"/>
        <pt x="708" y="663" on="1"/>
      </contour>
    </TTGlyph>
    <TTGlyph name="W" xMin="44" yMin="0" xMax="1035" yMax="663">
      <contour>
        <pt x="654" y="404" on="1"/>
        <pt x="665" y="329" on="0"/>
        <pt x="676" y="216" on="0"/>
        <pt x="677" y="171" on="1"/>
        <pt x="694" y="221" on="0"/>
        <pt x="737" y="337" on="0"/>
        <pt x="767" y="412" on="1"/>
        <pt x="863" y="651" on="1"/>
        <pt x="866" y="658" on="0"/>
        <pt x="873" y="663" on="0"/>
        <pt x="882" y="663" on="1"/>
        <pt x="1035" y="663" on="1"/>
        <pt x="759" y="0" on="1"/>
        <pt x="586" y="0" on="1"/>
        <pt x="574" y="0" on="0"/>
        <pt x="566" y="7" on="0"/>
        <pt x="564" y="15" on="1"/>
        <pt x="540" y="175" on="1"/>
        <pt x="535" y="205" on="0"/>
        <pt x="526" y="277" on="0"/>
        <pt x="519" y="348" on="0"/>
        <pt x="512" y="411" on="0"/>
        <pt x="511" y="434" on="1"/>
        <pt x="504" y="412" on="0"/>
        <pt x="485" y="351" on="0"/>
        <pt x="462" y="283" on="0"/>
        <pt x="437" y="212" on="0"/>
        <pt x="424" y="179" on="1"/>
        <pt x="354" y="0" on="1"/>
        <pt x="181" y="0" on="1"/>
        <pt x="170" y="0" on="0"/>
        <pt x="161" y="7" on="0"/>
        <pt x="159" y="15" on="1"/>
        <pt x="44" y="663" on="1"/>
        <pt x="197" y="663" on="1"/>
        <pt x="205" y="663" on="0"/>
        <pt x="211" y="658" on="0"/>
        <pt x="213" y="650" on="1"/>
        <pt x="261" y="347" on="1"/>
        <pt x="268" y="302" on="0"/>
        <pt x="281" y="211" on="0"/>
        <pt x="284" y="171" on="1"/>
        <pt x="288" y="185" on="0"/>
        <pt x="301" y="227" on="0"/>
        <pt x="317" y="273" on="0"/>
        <pt x="334" y="320" on="0"/>
        <pt x="342" y="340" on="1"/>
        <pt x="467" y="663" on="1"/>
        <pt x="598" y="663" on="1"/>
        <pt x="607" y="663" on="0"/>
        <pt x="614" y="657" on="0"/>
        <pt x="616" y="649" on="1"/>
      </contour>
    </TTGlyph>
    <TTGlyph name="Wacute" xMin="44" yMin="0" xMax="1035" yMax="933">
      <component glyphName="W" x="0" y="0" flags="0x204"/>
      <component glyphName="acute.cap" x="290" y="0" flags="0x4"/>
    </TTGlyph>
    <TTGlyph name="Wcircumflex" xMin="44" yMin="0" xMax="1035" yMax="919">
      <component glyphName="W" x="0" y="0" flags="0x204"/>
      <component glyphName="circumflex.cap" x="287" y="0" flags="0x4"/>
    </TTGlyph>
    <TTGlyph name="Wdieresis" xMin="44" yMin="0" xMax="1035" yMax="879">
      <component glyphName="W" x="0" y="0" flags="0x204"/>
      <component glyphName="dieresis.cap" x="287" y="0" flags="0x4"/>
    </TTGlyph>
    <TTGlyph name="Wgrave" xMin="44" yMin="0" xMax="1035" yMax="937">
      <component glyphName="W" x="0" y="0" flags="0x204"/>
      <component glyphName="grave.cap" x="294" y="0" flags="0x4"/>
    </TTGlyph>
    <TTGlyph name="X" xMin="-36" yMin="0" xMax="710" yMax="663">
      <contour>
        <pt x="443" y="331" on="1"/>
        <pt x="652" y="0" on="1"/>
        <pt x="489" y="0" on="1"/>
        <pt x="480" y="0" on="0"/>
        <pt x="467" y="4" on="0"/>
        <pt x="462" y="12" on="1"/>
        <pt x="330" y="226" on="1"/>
        <pt x="162" y="12" on="1"/>
        <pt x="156" y="4" on="0"/>
        <pt x="146" y="0" on="0"/>
        <pt x="136" y="0" on="1"/>
        <pt x="-36" y="0" on="1"/>
        <pt x="247" y="349" on="1"/>
        <pt x="49" y="663" on="1"/>
        <pt x="213" y="663" on="1"/>
        <pt x="223" y="663" on="0"/>
        <pt x="233" y="658" on="0"/>
        <pt x="239" y="648" on="1"/>
        <pt x="358" y="453" on="1"/>
        <pt x="512" y="649" on="1"/>
        <pt x="519" y="657" on="0"/>
        <pt x="531" y="663" on="0"/>
        <pt x="540" y="663" on="1"/>
        <pt x="710" y="663" on="1"/>
      </contour>
    </TTGlyph>
    <TTGlyph name="Y" xMin="37" yMin="0" xMax="728" yMax="663">
      <contour>
        <pt x="346" y="338" on="1"/>
        <pt x="356" y="357" on="0"/>
        <pt x="377" y="395" on="0"/>
        <pt x="402" y="438" on="0"/>
        <pt x="432" y="488" on="0"/>
        <pt x="452" y="519" on="1"/>
        <pt x="535" y="651" on="1"/>
        <pt x="540" y="659" on="0"/>
        <pt x="548" y="663" on="0"/>
        <pt x="556" y="663" on="1"/>
        <pt x="728" y="663" on="1"/>
        <pt x="413" y="207" on="1"/>
        <pt x="388" y="0" on="1"/>
        <pt x="224" y="0" on="1"/>
        <pt x="249" y="207" on="1"/>
        <pt x="37" y="663" on="1"/>
        <pt x="203" y="663" on="1"/>
        <pt x="211" y="663" on="0"/>
        <pt x="219" y="659" on="0"/>
        <pt x="222" y="651" on="1"/>
        <pt x="276" y="523" on="1"/>
        <pt x="289" y="491" on="0"/>
        <pt x="310" y="439" on="0"/>
        <pt x="327" y="396" on="0"/>
        <pt x="339" y="357" on="0"/>
        <pt x="345" y="338" on="1"/>
      </contour>
    </TTGlyph>
    <TTGlyph name="Yacute" xMin="37" yMin="0" xMax="728" yMax="933">
      <component glyphName="Y" x="0" y="0" flags="0x204"/>
      <component glyphName="acute.cap" x="142" y="0" flags="0x4"/>
    </TTGlyph>
    <TTGlyph name="Ycircumflex" xMin="37" yMin="0" xMax="728" yMax="919">
      <component glyphName="Y" x="0" y="0" flags="0x204"/>
      <component glyphName="circumflex.cap" x="119" y="0" flags="0x4"/>
    </TTGlyph>
    <TTGlyph name="Ydieresis" xMin="37" yMin="0" xMax="728" yMax="879">
      <component glyphName="Y" x="0" y="0" flags="0x204"/>
      <component glyphName="dieresis.cap" x="123" y="0" flags="0x4"/>
    </TTGlyph>
    <TTGlyph name="Ygrave" xMin="37" yMin="0" xMax="728" yMax="937">
      <component glyphName="Y" x="0" y="0" flags="0x204"/>
      <component glyphName="grave.cap" x="89" y="0" flags="0x4"/>
    </TTGlyph>
    <TTGlyph name="Z" xMin="3" yMin="0" xMax="610" yMax="663">
      <contour>
        <pt x="65" y="527" on="1"/>
        <pt x="83" y="663" on="1"/>
        <pt x="610" y="663" on="1"/>
        <pt x="599" y="576" on="1"/>
        <pt x="597" y="564" on="0"/>
        <pt x="594" y="549" on="0"/>
        <pt x="587" y="535" on="0"/>
        <pt x="576" y="521" on="0"/>
        <pt x="566" y="510" on="1"/>
        <pt x="371" y="291" on="1"/>
        <pt x="353" y="271" on="0"/>
        <pt x="313" y="227" on="0"/>
        <pt x="274" y="185" on="0"/>
        <pt x="238" y="149" on="0"/>
        <pt x="224" y="136" on="1"/>
        <pt x="555" y="136" on="1"/>
        <pt x="538" y="0" on="1"/>
        <pt x="3" y="0" on="1"/>
        <pt x="13" y="83" on="1"/>
        <pt x="15" y="104" on="0"/>
        <pt x="29" y="131" on="0"/>
        <pt x="47" y="152" on="1"/>
        <pt x="240" y="371" on="1"/>
        <pt x="257" y="390" on="0"/>
        <pt x="297" y="434" on="0"/>
        <pt x="337" y="476" on="0"/>
        <pt x="374" y="514" on="0"/>
        <pt x="388" y="527" on="1"/>
      </contour>
    </TTGlyph>
    <TTGlyph name="Zacute" xMin="3" yMin="0" xMax="610" yMax="933">
      <component glyphName="Z" x="0" y="0" flags="0x204"/>
      <component glyphName="acute.cap" x="93" y="0" flags="0x4"/>
    </TTGlyph>
    <TTGlyph name="Zcaron" xMin="3" yMin="0" xMax="610" yMax="931">
      <component glyphName="Z" x="0" y="0" flags="0x204"/>
      <component glyphName="caron.cap" x="89" y="0" flags="0x4"/>
    </TTGlyph>
    <TTGlyph name="Zdotaccent" xMin="3" yMin="0" xMax="610" yMax="875">
      <component glyphName="Z" x="0" y="0" flags="0x204"/>
      <component glyphName="dotaccent.cap" x="96" y="0" flags="0x4"/>
    </TTGlyph>
    <TTGlyph name="a" xMin="22" yMin="-8" xMax="550" yMax="496">
      <contour>
        <pt x="550" y="101" on="1"/>
        <pt x="541" y="23" on="1"/>
        <pt x="517" y="10" on="0"/>
        <pt x="461" y="-3" on="0"/>
        <pt x="438" y="-3" on="1"/>
        <pt x="407" y="-3" on="0"/>
        <pt x="358" y="22" on="0"/>
        <pt x="344" y="45" on="1"/>
        <pt x="317" y="29" on="1"/>
        <pt x="293" y="15" on="0"/>
        <pt x="231" y="-8" on="0"/>
        <pt x="202" y="-8" on="1"/>
        <pt x="163" y="-8" on="0"/>
        <pt x="97" y="25" on="0"/>
        <pt x="49" y="85" on="0"/>
        <pt x="22" y="166" on="0"/>
        <pt x="22" y="214" on="1"/>
        <pt x="22" y="271" on="0"/>
        <pt x="62" y="373" on="0"/>
        <pt x="128" y="451" on="0"/>
        <pt x="216" y="496" on="0"/>
        <pt x="264" y="496" on="1"/>
        <pt x="293" y="496" on="0"/>
        <pt x="341" y="476" on="0"/>
        <pt x="365" y="459" on="1"/>
        <pt x="384" y="444" on="1"/>
        <pt x="409" y="489" on="1"/>
        <pt x="524" y="481" on="1"/>
        <pt x="481" y="120" on="1"/>
      </contour>
      <contour>
        <pt x="352" y="330" on="1"/>
        <pt x="353" y="338" on="0"/>
        <pt x="349" y="345" on="0"/>
        <pt x="341" y="348" on="1"/>
        <pt x="332" y="352" on="0"/>
        <pt x="303" y="359" on="0"/>
        <pt x="286" y="359" on="1"/>
        <pt x="235" y="359" on="0"/>
        <pt x="181" y="280" on="0"/>
        <pt x="181" y="219" on="1"/>
        <pt x="181" y="179" on="0"/>
        <pt x="215" y="129" on="0"/>
        <pt x="253" y="129" on="1"/>
        <pt x="271" y="129" on="0"/>
        <pt x="308" y="140" on="0"/>
        <pt x="319" y="145" on="1"/>
        <pt x="327" y="149" on="0"/>
        <pt x="331" y="156" on="0"/>
        <pt x="332" y="164" on="1"/>
      </contour>
    </TTGlyph>
    <TTGlyph name="aacute" xMin="22" yMin="-8" xMax="550" yMax="763">
      <component glyphName="a" x="0" y="0" flags="0x204"/>
      <component glyphName="acute" x="75" y="0" flags="0x4"/>
    </TTGlyph>
    <TTGlyph name="abreve" xMin="22" yMin="-8" xMax="550" yMax="732">
      <component glyphName="a" x="0" y="0" flags="0x204"/>
      <component glyphName="breve" x="70" y="0" flags="0x4"/>
    </TTGlyph>
    <TTGlyph name="acaron" xMin="22" yMin="-8" xMax="550" yMax="759">
      <component glyphName="a" x="0" y="0" flags="0x204"/>
      <component glyphName="caron" x="73" y="0" flags="0x4"/>
    </TTGlyph>
    <TTGlyph name="acircumflex" xMin="22" yMin="-8" xMax="550" yMax="747">
      <component glyphName="a" x="0" y="0" flags="0x204"/>
      <component glyphName="circumflex" x="71" y="0" flags="0x4"/>
    </TTGlyph>
    <TTGlyph name="acute" xMin="112" yMin="547" xMax="385" yMax="763">
      <contour>
        <pt x="151" y="547" on="1"/>
        <pt x="112" y="609" on="1"/>
        <pt x="299" y="754" on="1"/>
        <pt x="310" y="762" on="0"/>
        <pt x="329" y="763" on="0"/>
        <pt x="337" y="748" on="1"/>
        <pt x="385" y="660" on="1"/>
      </contour>
    </TTGlyph>
    <TTGlyph name="acute.cap" xMin="147" yMin="717" xMax="420" yMax="933">
      <contour>
        <pt x="186" y="717" on="1"/>
        <pt x="147" y="779" on="1"/>
        <pt x="334" y="924" on="1"/>
        <pt x="345" y="932" on="0"/>
        <pt x="364" y="933" on="0"/>
        <pt x="372" y="918" on="1"/>
        <pt x="420" y="830" on="1"/>
      </contour>
    </TTGlyph>
    <TTGlyph name="adieresis" xMin="22" yMin="-8" xMax="550" yMax="707">
      <component glyphName="a" x="0" y="0" flags="0x204"/>
      <component glyphName="dieresis" x="67" y="0" flags="0x4"/>
    </TTGlyph>
    <TTGlyph name="ae" xMin="17" yMin="-8" xMax="787" yMax="496">
      <contour>
        <pt x="190" y="198" on="1"/>
        <pt x="157" y="198" on="0"/>
        <pt x="157" y="162" on="1"/>
        <pt x="157" y="140" on="0"/>
        <pt x="188" y="109" on="0"/>
        <pt x="223" y="109" on="1"/>
        <pt x="246" y="109" on="0"/>
        <pt x="302" y="124" on="0"/>
        <pt x="322" y="135" on="1"/>
        <pt x="317" y="149" on="0"/>
        <pt x="310" y="181" on="0"/>
        <pt x="309" y="198" on="1"/>
      </contour>
      <contour>
        <pt x="544" y="-8" on="1"/>
        <pt x="492" y="-8" on="0"/>
        <pt x="407" y="24" on="0"/>
        <pt x="375" y="53" on="1"/>
        <pt x="328" y="29" on="1"/>
        <pt x="297" y="13" on="0"/>
        <pt x="223" y="-8" on="0"/>
        <pt x="188" y="-8" on="1"/>
        <pt x="149" y="-8" on="0"/>
        <pt x="86" y="16" on="0"/>
        <pt x="41" y="58" on="0"/>
        <pt x="17" y="116" on="0"/>
        <pt x="17" y="149" on="1"/>
        <pt x="17" y="184" on="0"/>
        <pt x="42" y="239" on="0"/>
        <pt x="87" y="278" on="0"/>
        <pt x="150" y="299" on="0"/>
        <pt x="187" y="299" on="1"/>
        <pt x="217" y="299" on="0"/>
        <pt x="282" y="287" on="0"/>
        <pt x="311" y="276" on="1"/>
        <pt x="313" y="285" on="0"/>
        <pt x="318" y="309" on="0"/>
        <pt x="318" y="322" on="1"/>
        <pt x="318" y="343" on="0"/>
        <pt x="286" y="367" on="0"/>
        <pt x="250" y="367" on="1"/>
        <pt x="204" y="367" on="0"/>
        <pt x="140" y="353" on="1"/>
        <pt x="93" y="343" on="1"/>
        <pt x="63" y="427" on="1"/>
        <pt x="110" y="457" on="0"/>
        <pt x="224" y="496" on="0"/>
        <pt x="275" y="496" on="1"/>
        <pt x="320" y="496" on="0"/>
        <pt x="393" y="468" on="0"/>
        <pt x="416" y="447" on="1"/>
        <pt x="448" y="470" on="0"/>
        <pt x="522" y="496" on="0"/>
        <pt x="564" y="496" on="1"/>
        <pt x="610" y="496" on="0"/>
        <pt x="691" y="465" on="0"/>
        <pt x="752" y="407" on="0"/>
        <pt x="787" y="325" on="0"/>
        <pt x="787" y="275" on="1"/>
        <pt x="787" y="234" on="0"/>
        <pt x="772" y="198" on="0"/>
        <pt x="752" y="198" on="1"/>
        <pt x="462" y="198" on="1"/>
        <pt x="466" y="163" on="0"/>
        <pt x="523" y="124" on="0"/>
        <pt x="565" y="124" on="1"/>
        <pt x="585" y="124" on="0"/>
        <pt x="630" y="131" on="0"/>
        <pt x="665" y="139" on="1"/>
        <pt x="725" y="153" on="1"/>
        <pt x="763" y="69" on="1"/>
        <pt x="745" y="53" on="0"/>
        <pt x="694" y="25" on="0"/>
        <pt x="636" y="4" on="0"/>
        <pt x="574" y="-8" on="0"/>
      </contour>
      <contour>
        <pt x="640" y="300" on="1"/>
        <pt x="638" y="331" on="0"/>
        <pt x="596" y="369" on="0"/>
        <pt x="562" y="369" on="1"/>
        <pt x="527" y="369" on="0"/>
        <pt x="479" y="333" on="0"/>
        <pt x="470" y="300" on="1"/>
      </contour>
    </TTGlyph>
    <TTGlyph name="aeacute" xMin="17" yMin="-8" xMax="787" yMax="763">
      <component glyphName="ae" x="0" y="0" flags="0x204"/>
      <component glyphName="acute" x="214" y="0" flags="0x4"/>
    </TTGlyph>
    <TTGlyph name="agrave" xMin="22" yMin="-8" xMax="550" yMax="765">
      <component glyphName="a" x="0" y="0" flags="0x204"/>
      <component glyphName="grave" x="58" y="0" flags="0x4"/>
    </TTGlyph>
    <TTGlyph name="amacron" xMin="22" yMin="-8" xMax="550" yMax="697">
      <component glyphName="a" x="0" y="0" flags="0x204"/>
      <component glyphName="macron" x="82" y="0" flags="0x4"/>
    </TTGlyph>
    <TTGlyph name="ampersand" xMin="18" yMin="-10" xMax="683" yMax="674">
      <contour>
        <pt x="598" y="107" on="1"/>
        <pt x="683" y="97" on="1"/>
        <pt x="675" y="23" on="1"/>
        <pt x="652" y="11" on="0"/>
        <pt x="600" y="-3" on="0"/>
        <pt x="574" y="-3" on="1"/>
        <pt x="543" y="-3" on="0"/>
        <pt x="488" y="26" on="0"/>
        <pt x="456" y="61" on="1"/>
        <pt x="408" y="24" on="0"/>
        <pt x="311" y="-10" on="0"/>
        <pt x="260" y="-10" on="1"/>
        <pt x="205" y="-10" on="0"/>
        <pt x="115" y="23" on="0"/>
        <pt x="52" y="81" on="0"/>
        <pt x="18" y="159" on="0"/>
        <pt x="18" y="204" on="1"/>
        <pt x="18" y="240" on="0"/>
        <pt x="43" y="298" on="0"/>
        <pt x="85" y="343" on="0"/>
        <pt x="143" y="376" on="0"/>
        <pt x="176" y="387" on="1"/>
        <pt x="165" y="404" on="0"/>
        <pt x="148" y="449" on="0"/>
        <pt x="148" y="484" on="1"/>
        <pt x="148" y="529" on="0"/>
        <pt x="184" y="599" on="0"/>
        <pt x="244" y="648" on="0"/>
        <pt x="320" y="674" on="0"/>
        <pt x="361" y="674" on="1"/>
        <pt x="397" y="674" on="0"/>
        <pt x="464" y="652" on="0"/>
        <pt x="515" y="610" on="0"/>
        <pt x="546" y="551" on="0"/>
        <pt x="546" y="514" on="1"/>
        <pt x="546" y="451" on="0"/>
        <pt x="468" y="363" on="0"/>
        <pt x="403" y="325" on="1"/>
        <pt x="482" y="236" on="1"/>
        <pt x="505" y="269" on="0"/>
        <pt x="567" y="365" on="0"/>
        <pt x="596" y="413" on="1"/>
        <pt x="679" y="380" on="1"/>
        <pt x="655" y="314" on="0"/>
        <pt x="592" y="207" on="0"/>
        <pt x="556" y="154" on="1"/>
      </contour>
      <contour>
        <pt x="227" y="317" on="1"/>
        <pt x="201" y="300" on="0"/>
        <pt x="167" y="250" on="0"/>
        <pt x="167" y="220" on="1"/>
        <pt x="167" y="178" on="0"/>
        <pt x="228" y="120" on="0"/>
        <pt x="284" y="120" on="1"/>
        <pt x="307" y="120" on="0"/>
        <pt x="360" y="133" on="0"/>
        <pt x="380" y="146" on="1"/>
      </contour>
      <contour>
        <pt x="374" y="410" on="1"/>
        <pt x="397" y="431" on="0"/>
        <pt x="423" y="470" on="0"/>
        <pt x="423" y="494" on="1"/>
        <pt x="423" y="524" on="0"/>
        <pt x="383" y="553" on="0"/>
        <pt x="358" y="553" on="1"/>
        <pt x="326" y="553" on="0"/>
        <pt x="286" y="517" on="0"/>
        <pt x="286" y="488" on="1"/>
        <pt x="286" y="465" on="0"/>
        <pt x="317" y="421" on="0"/>
        <pt x="348" y="387" on="1"/>
      </contour>
    </TTGlyph>
    <TTGlyph name="aogonek" xMin="22" yMin="-233" xMax="550" yMax="496">
      <contour>
        <pt x="378" y="12" on="1"/>
        <pt x="369" y="17" on="0"/>
        <pt x="351" y="34" on="0"/>
        <pt x="344" y="45" on="1"/>
        <pt x="317" y="29" on="1"/>
        <pt x="293" y="15" on="0"/>
        <pt x="231" y="-8" on="0"/>
        <pt x="202" y="-8" on="1"/>
        <pt x="163" y="-8" on="0"/>
        <pt x="97" y="25" on="0"/>
        <pt x="49" y="85" on="0"/>
        <pt x="22" y="166" on="0"/>
        <pt x="22" y="214" on="1"/>
        <pt x="22" y="271" on="0"/>
        <pt x="62" y="373" on="0"/>
        <pt x="128" y="451" on="0"/>
        <pt x="216" y="496" on="0"/>
        <pt x="264" y="496" on="1"/>
        <pt x="293" y="496" on="0"/>
        <pt x="341" y="476" on="0"/>
        <pt x="365" y="459" on="1"/>
        <pt x="384" y="444" on="1"/>
        <pt x="409" y="489" on="1"/>
        <pt x="524" y="481" on="1"/>
        <pt x="481" y="120" on="1"/>
        <pt x="550" y="101" on="1"/>
        <pt x="541" y="23" on="1"/>
        <pt x="521" y="17" on="0"/>
        <pt x="468" y="-4" on="0"/>
        <pt x="419" y="-34" on="0"/>
        <pt x="385" y="-71" on="0"/>
        <pt x="385" y="-94" on="1"/>
        <pt x="385" y="-136" on="0"/>
        <pt x="437" y="-136" on="1"/>
        <pt x="445" y="-136" on="0"/>
        <pt x="480" y="-132" on="0"/>
        <pt x="497" y="-129" on="1"/>
        <pt x="509" y="-206" on="1"/>
        <pt x="485" y="-219" on="0"/>
        <pt x="422" y="-233" on="0"/>
        <pt x="398" y="-233" on="1"/>
        <pt x="341" y="-233" on="0"/>
        <pt x="272" y="-172" on="0"/>
        <pt x="272" y="-124" on="1"/>
        <pt x="272" y="-98" on="0"/>
        <pt x="294" y="-55" on="0"/>
        <pt x="326" y="-21" on="0"/>
        <pt x="363" y="4" on="0"/>
      </contour>
      <contour>
        <pt x="352" y="330" on="1"/>
        <pt x="353" y="338" on="0"/>
        <pt x="349" y="345" on="0"/>
        <pt x="341" y="348" on="1"/>
        <pt x="332" y="352" on="0"/>
        <pt x="303" y="359" on="0"/>
        <pt x="286" y="359" on="1"/>
        <pt x="235" y="359" on="0"/>
        <pt x="181" y="280" on="0"/>
        <pt x="181" y="219" on="1"/>
        <pt x="181" y="179" on="0"/>
        <pt x="215" y="129" on="0"/>
        <pt x="253" y="129" on="1"/>
        <pt x="271" y="129" on="0"/>
        <pt x="308" y="140" on="0"/>
        <pt x="319" y="145" on="1"/>
        <pt x="327" y="149" on="0"/>
        <pt x="331" y="156" on="0"/>
        <pt x="332" y="164" on="1"/>
      </contour>
    </TTGlyph>
    <TTGlyph name="apple" xMin="78" yMin="0" xMax="466" yMax="650">
      <contour>
        <pt x="208" y="357" on="1"/>
        <pt x="208" y="370" on="0"/>
        <pt x="227" y="388" on="0"/>
        <pt x="239" y="388" on="1"/>
        <pt x="252" y="388" on="0"/>
        <pt x="269" y="370" on="0"/>
        <pt x="269" y="357" on="1"/>
        <pt x="269" y="344" on="0"/>
        <pt x="252" y="327" on="0"/>
        <pt x="239" y="327" on="1"/>
        <pt x="227" y="327" on="0"/>
        <pt x="208" y="344" on="0"/>
      </contour>
      <contour>
        <pt x="405" y="357" on="1"/>
        <pt x="405" y="370" on="0"/>
        <pt x="424" y="388" on="0"/>
        <pt x="436" y="388" on="1"/>
        <pt x="449" y="388" on="0"/>
        <pt x="466" y="370" on="0"/>
        <pt x="466" y="357" on="1"/>
        <pt x="466" y="344" on="0"/>
        <pt x="449" y="327" on="0"/>
        <pt x="436" y="327" on="1"/>
        <pt x="424" y="327" on="0"/>
        <pt x="405" y="344" on="0"/>
      </contour>
      <contour>
        <pt x="78" y="161" on="1"/>
        <pt x="78" y="174" on="0"/>
        <pt x="95" y="191" on="0"/>
        <pt x="108" y="191" on="1"/>
        <pt x="120" y="191" on="0"/>
        <pt x="139" y="174" on="0"/>
        <pt x="139" y="161" on="1"/>
        <pt x="139" y="148" on="0"/>
        <pt x="120" y="130" on="0"/>
        <pt x="108" y="130" on="1"/>
        <pt x="95" y="130" on="0"/>
        <pt x="78" y="148" on="0"/>
      </contour>
      <contour>
        <pt x="78" y="357" on="1"/>
        <pt x="78" y="370" on="0"/>
        <pt x="95" y="388" on="0"/>
        <pt x="108" y="388" on="1"/>
        <pt x="120" y="388" on="0"/>
        <pt x="139" y="370" on="0"/>
        <pt x="139" y="357" on="1"/>
        <pt x="139" y="344" on="0"/>
        <pt x="120" y="327" on="0"/>
        <pt x="108" y="327" on="1"/>
        <pt x="95" y="327" on="0"/>
        <pt x="78" y="344" on="0"/>
      </contour>
      <contour>
        <pt x="275" y="357" on="1"/>
        <pt x="275" y="370" on="0"/>
        <pt x="292" y="388" on="0"/>
        <pt x="305" y="388" on="1"/>
        <pt x="317" y="388" on="0"/>
        <pt x="336" y="370" on="0"/>
        <pt x="336" y="357" on="1"/>
        <pt x="336" y="344" on="0"/>
        <pt x="317" y="327" on="0"/>
        <pt x="305" y="327" on="1"/>
        <pt x="292" y="327" on="0"/>
        <pt x="275" y="344" on="0"/>
      </contour>
      <contour>
        <pt x="340" y="620" on="1"/>
        <pt x="340" y="632" on="0"/>
        <pt x="357" y="650" on="0"/>
        <pt x="371" y="650" on="1"/>
        <pt x="382" y="650" on="0"/>
        <pt x="401" y="632" on="0"/>
        <pt x="401" y="620" on="1"/>
        <pt x="401" y="606" on="0"/>
        <pt x="382" y="589" on="0"/>
        <pt x="371" y="589" on="1"/>
        <pt x="357" y="589" on="0"/>
        <pt x="340" y="606" on="0"/>
      </contour>
      <contour>
        <pt x="78" y="620" on="1"/>
        <pt x="78" y="632" on="0"/>
        <pt x="95" y="650" on="0"/>
        <pt x="108" y="650" on="1"/>
        <pt x="120" y="650" on="0"/>
        <pt x="139" y="632" on="0"/>
        <pt x="139" y="620" on="1"/>
        <pt x="139" y="606" on="0"/>
        <pt x="120" y="589" on="0"/>
        <pt x="108" y="589" on="1"/>
        <pt x="95" y="589" on="0"/>
        <pt x="78" y="606" on="0"/>
      </contour>
      <contour>
        <pt x="275" y="620" on="1"/>
        <pt x="275" y="632" on="0"/>
        <pt x="292" y="650" on="0"/>
        <pt x="305" y="650" on="1"/>
        <pt x="317" y="650" on="0"/>
        <pt x="336" y="632" on="0"/>
        <pt x="336" y="620" on="1"/>
        <pt x="336" y="606" on="0"/>
        <pt x="317" y="589" on="0"/>
        <pt x="305" y="589" on="1"/>
        <pt x="292" y="589" on="0"/>
        <pt x="275" y="606" on="0"/>
      </contour>
      <contour>
        <pt x="405" y="620" on="1"/>
        <pt x="405" y="632" on="0"/>
        <pt x="424" y="650" on="0"/>
        <pt x="436" y="650" on="1"/>
        <pt x="449" y="650" on="0"/>
        <pt x="466" y="632" on="0"/>
        <pt x="466" y="620" on="1"/>
        <pt x="466" y="606" on="0"/>
        <pt x="449" y="589" on="0"/>
        <pt x="436" y="589" on="1"/>
        <pt x="424" y="589" on="0"/>
        <pt x="405" y="606" on="0"/>
      </contour>
      <contour>
        <pt x="208" y="620" on="1"/>
        <pt x="208" y="632" on="0"/>
        <pt x="227" y="650" on="0"/>
        <pt x="239" y="650" on="1"/>
        <pt x="252" y="650" on="0"/>
        <pt x="269" y="632" on="0"/>
        <pt x="269" y="620" on="1"/>
        <pt x="269" y="606" on="0"/>
        <pt x="252" y="589" on="0"/>
        <pt x="239" y="589" on="1"/>
        <pt x="227" y="589" on="0"/>
        <pt x="208" y="606" on="0"/>
      </contour>
      <contour>
        <pt x="340" y="357" on="1"/>
        <pt x="340" y="370" on="0"/>
        <pt x="357" y="388" on="0"/>
        <pt x="371" y="388" on="1"/>
        <pt x="382" y="388" on="0"/>
        <pt x="401" y="370" on="0"/>
        <pt x="401" y="357" on="1"/>
        <pt x="401" y="344" on="0"/>
        <pt x="382" y="327" on="0"/>
        <pt x="371" y="327" on="1"/>
        <pt x="357" y="327" on="0"/>
        <pt x="340" y="344" on="0"/>
      </contour>
      <contour>
        <pt x="208" y="30" on="1"/>
        <pt x="208" y="42" on="0"/>
        <pt x="227" y="61" on="0"/>
        <pt x="239" y="61" on="1"/>
        <pt x="252" y="61" on="0"/>
        <pt x="269" y="42" on="0"/>
        <pt x="269" y="30" on="1"/>
        <pt x="269" y="17" on="0"/>
        <pt x="252" y="0" on="0"/>
        <pt x="239" y="0" on="1"/>
        <pt x="227" y="0" on="0"/>
        <pt x="208" y="17" on="0"/>
      </contour>
      <contour>
        <pt x="78" y="30" on="1"/>
        <pt x="78" y="42" on="0"/>
        <pt x="95" y="61" on="0"/>
        <pt x="108" y="61" on="1"/>
        <pt x="120" y="61" on="0"/>
        <pt x="139" y="42" on="0"/>
        <pt x="139" y="30" on="1"/>
        <pt x="139" y="17" on="0"/>
        <pt x="120" y="0" on="0"/>
        <pt x="108" y="0" on="1"/>
        <pt x="95" y="0" on="0"/>
        <pt x="78" y="17" on="0"/>
      </contour>
      <contour>
        <pt x="208" y="95" on="1"/>
        <pt x="208" y="109" on="0"/>
        <pt x="227" y="125" on="0"/>
        <pt x="239" y="125" on="1"/>
        <pt x="252" y="125" on="0"/>
        <pt x="269" y="109" on="0"/>
        <pt x="269" y="95" on="1"/>
        <pt x="269" y="82" on="0"/>
        <pt x="252" y="65" on="0"/>
        <pt x="239" y="65" on="1"/>
        <pt x="227" y="65" on="0"/>
        <pt x="208" y="82" on="0"/>
      </contour>
      <contour>
        <pt x="78" y="95" on="1"/>
        <pt x="78" y="109" on="0"/>
        <pt x="95" y="125" on="0"/>
        <pt x="108" y="125" on="1"/>
        <pt x="120" y="125" on="0"/>
        <pt x="139" y="109" on="0"/>
        <pt x="139" y="95" on="1"/>
        <pt x="139" y="82" on="0"/>
        <pt x="120" y="65" on="0"/>
        <pt x="108" y="65" on="1"/>
        <pt x="95" y="65" on="0"/>
        <pt x="78" y="82" on="0"/>
      </contour>
      <contour>
        <pt x="144" y="620" on="1"/>
        <pt x="144" y="632" on="0"/>
        <pt x="162" y="650" on="0"/>
        <pt x="174" y="650" on="1"/>
        <pt x="187" y="650" on="0"/>
        <pt x="204" y="632" on="0"/>
        <pt x="204" y="620" on="1"/>
        <pt x="204" y="606" on="0"/>
        <pt x="187" y="589" on="0"/>
        <pt x="174" y="589" on="1"/>
        <pt x="162" y="589" on="0"/>
        <pt x="144" y="606" on="0"/>
      </contour>
      <contour>
        <pt x="78" y="489" on="1"/>
        <pt x="78" y="501" on="0"/>
        <pt x="95" y="518" on="0"/>
        <pt x="108" y="518" on="1"/>
        <pt x="120" y="518" on="0"/>
        <pt x="139" y="501" on="0"/>
        <pt x="139" y="489" on="1"/>
        <pt x="139" y="476" on="0"/>
        <pt x="120" y="458" on="0"/>
        <pt x="108" y="458" on="1"/>
        <pt x="95" y="458" on="0"/>
        <pt x="78" y="476" on="0"/>
      </contour>
      <contour>
        <pt x="275" y="489" on="1"/>
        <pt x="275" y="501" on="0"/>
        <pt x="292" y="518" on="0"/>
        <pt x="305" y="518" on="1"/>
        <pt x="317" y="518" on="0"/>
        <pt x="336" y="501" on="0"/>
        <pt x="336" y="489" on="1"/>
        <pt x="336" y="476" on="0"/>
        <pt x="317" y="458" on="0"/>
        <pt x="305" y="458" on="1"/>
        <pt x="292" y="458" on="0"/>
        <pt x="275" y="476" on="0"/>
      </contour>
      <contour>
        <pt x="208" y="489" on="1"/>
        <pt x="208" y="501" on="0"/>
        <pt x="227" y="518" on="0"/>
        <pt x="239" y="518" on="1"/>
        <pt x="252" y="518" on="0"/>
        <pt x="269" y="501" on="0"/>
        <pt x="269" y="489" on="1"/>
        <pt x="269" y="476" on="0"/>
        <pt x="252" y="458" on="0"/>
        <pt x="239" y="458" on="1"/>
        <pt x="227" y="458" on="0"/>
        <pt x="208" y="476" on="0"/>
      </contour>
      <contour>
        <pt x="405" y="489" on="1"/>
        <pt x="405" y="501" on="0"/>
        <pt x="424" y="518" on="0"/>
        <pt x="436" y="518" on="1"/>
        <pt x="449" y="518" on="0"/>
        <pt x="466" y="501" on="0"/>
        <pt x="466" y="489" on="1"/>
        <pt x="466" y="476" on="0"/>
        <pt x="449" y="458" on="0"/>
        <pt x="436" y="458" on="1"/>
        <pt x="424" y="458" on="0"/>
        <pt x="405" y="476" on="0"/>
      </contour>
      <contour>
        <pt x="340" y="489" on="1"/>
        <pt x="340" y="501" on="0"/>
        <pt x="357" y="518" on="0"/>
        <pt x="371" y="518" on="1"/>
        <pt x="382" y="518" on="0"/>
        <pt x="401" y="501" on="0"/>
        <pt x="401" y="489" on="1"/>
        <pt x="401" y="476" on="0"/>
        <pt x="382" y="458" on="0"/>
        <pt x="371" y="458" on="1"/>
        <pt x="357" y="458" on="0"/>
        <pt x="340" y="476" on="0"/>
      </contour>
      <contour>
        <pt x="144" y="30" on="1"/>
        <pt x="144" y="42" on="0"/>
        <pt x="162" y="61" on="0"/>
        <pt x="174" y="61" on="1"/>
        <pt x="187" y="61" on="0"/>
        <pt x="204" y="42" on="0"/>
        <pt x="204" y="30" on="1"/>
        <pt x="204" y="17" on="0"/>
        <pt x="187" y="0" on="0"/>
        <pt x="174" y="0" on="1"/>
        <pt x="162" y="0" on="0"/>
        <pt x="144" y="17" on="0"/>
      </contour>
      <contour>
        <pt x="78" y="292" on="1"/>
        <pt x="78" y="304" on="0"/>
        <pt x="95" y="322" on="0"/>
        <pt x="108" y="322" on="1"/>
        <pt x="120" y="322" on="0"/>
        <pt x="139" y="304" on="0"/>
        <pt x="139" y="292" on="1"/>
        <pt x="139" y="279" on="0"/>
        <pt x="120" y="262" on="0"/>
        <pt x="108" y="262" on="1"/>
        <pt x="95" y="262" on="0"/>
        <pt x="78" y="279" on="0"/>
      </contour>
      <contour>
        <pt x="78" y="554" on="1"/>
        <pt x="78" y="566" on="0"/>
        <pt x="95" y="584" on="0"/>
        <pt x="108" y="584" on="1"/>
        <pt x="120" y="584" on="0"/>
        <pt x="139" y="566" on="0"/>
        <pt x="139" y="554" on="1"/>
        <pt x="139" y="541" on="0"/>
        <pt x="120" y="524" on="0"/>
        <pt x="108" y="524" on="1"/>
        <pt x="95" y="524" on="0"/>
        <pt x="78" y="541" on="0"/>
      </contour>
      <contour>
        <pt x="405" y="292" on="1"/>
        <pt x="405" y="304" on="0"/>
        <pt x="424" y="322" on="0"/>
        <pt x="436" y="322" on="1"/>
        <pt x="449" y="322" on="0"/>
        <pt x="466" y="304" on="0"/>
        <pt x="466" y="292" on="1"/>
        <pt x="466" y="279" on="0"/>
        <pt x="449" y="262" on="0"/>
        <pt x="436" y="262" on="1"/>
        <pt x="424" y="262" on="0"/>
        <pt x="405" y="279" on="0"/>
      </contour>
      <contour>
        <pt x="78" y="423" on="1"/>
        <pt x="78" y="436" on="0"/>
        <pt x="95" y="453" on="0"/>
        <pt x="108" y="453" on="1"/>
        <pt x="120" y="453" on="0"/>
        <pt x="139" y="436" on="0"/>
        <pt x="139" y="423" on="1"/>
        <pt x="139" y="410" on="0"/>
        <pt x="120" y="394" on="0"/>
        <pt x="108" y="394" on="1"/>
        <pt x="95" y="394" on="0"/>
        <pt x="78" y="410" on="0"/>
      </contour>
      <contour>
        <pt x="208" y="423" on="1"/>
        <pt x="208" y="436" on="0"/>
        <pt x="227" y="453" on="0"/>
        <pt x="239" y="453" on="1"/>
        <pt x="252" y="453" on="0"/>
        <pt x="269" y="436" on="0"/>
        <pt x="269" y="423" on="1"/>
        <pt x="269" y="410" on="0"/>
        <pt x="252" y="394" on="0"/>
        <pt x="239" y="394" on="1"/>
        <pt x="227" y="394" on="0"/>
        <pt x="208" y="410" on="0"/>
      </contour>
      <contour>
        <pt x="208" y="227" on="1"/>
        <pt x="208" y="239" on="0"/>
        <pt x="227" y="256" on="0"/>
        <pt x="239" y="256" on="1"/>
        <pt x="252" y="256" on="0"/>
        <pt x="269" y="239" on="0"/>
        <pt x="269" y="227" on="1"/>
        <pt x="269" y="214" on="0"/>
        <pt x="252" y="197" on="0"/>
        <pt x="239" y="197" on="1"/>
        <pt x="227" y="197" on="0"/>
        <pt x="208" y="214" on="0"/>
      </contour>
      <contour>
        <pt x="405" y="227" on="1"/>
        <pt x="405" y="239" on="0"/>
        <pt x="424" y="256" on="0"/>
        <pt x="436" y="256" on="1"/>
        <pt x="449" y="256" on="0"/>
        <pt x="466" y="239" on="0"/>
        <pt x="466" y="227" on="1"/>
        <pt x="466" y="214" on="0"/>
        <pt x="449" y="197" on="0"/>
        <pt x="436" y="197" on="1"/>
        <pt x="424" y="197" on="0"/>
        <pt x="405" y="214" on="0"/>
      </contour>
      <contour>
        <pt x="78" y="227" on="1"/>
        <pt x="78" y="239" on="0"/>
        <pt x="95" y="256" on="0"/>
        <pt x="108" y="256" on="1"/>
        <pt x="120" y="256" on="0"/>
        <pt x="139" y="239" on="0"/>
        <pt x="139" y="227" on="1"/>
        <pt x="139" y="214" on="0"/>
        <pt x="120" y="197" on="0"/>
        <pt x="108" y="197" on="1"/>
        <pt x="95" y="197" on="0"/>
        <pt x="78" y="214" on="0"/>
      </contour>
      <contour>
        <pt x="275" y="227" on="1"/>
        <pt x="275" y="239" on="0"/>
        <pt x="292" y="256" on="0"/>
        <pt x="305" y="256" on="1"/>
        <pt x="317" y="256" on="0"/>
        <pt x="336" y="239" on="0"/>
        <pt x="336" y="227" on="1"/>
        <pt x="336" y="214" on="0"/>
        <pt x="317" y="197" on="0"/>
        <pt x="305" y="197" on="1"/>
        <pt x="292" y="197" on="0"/>
        <pt x="275" y="214" on="0"/>
      </contour>
      <contour>
        <pt x="340" y="227" on="1"/>
        <pt x="340" y="239" on="0"/>
        <pt x="357" y="256" on="0"/>
        <pt x="371" y="256" on="1"/>
        <pt x="382" y="256" on="0"/>
        <pt x="401" y="239" on="0"/>
        <pt x="401" y="227" on="1"/>
        <pt x="401" y="214" on="0"/>
        <pt x="382" y="197" on="0"/>
        <pt x="371" y="197" on="1"/>
        <pt x="357" y="197" on="0"/>
        <pt x="340" y="214" on="0"/>
      </contour>
    </TTGlyph>
    <TTGlyph name="approxequal" xMin="32" yMin="41" xMax="518" yMax="468">
      <contour>
        <pt x="359" y="287" on="1"/>
        <pt x="333" y="287" on="0"/>
        <pt x="291" y="303" on="0"/>
        <pt x="255" y="321" on="0"/>
        <pt x="223" y="337" on="0"/>
        <pt x="207" y="337" on="1"/>
        <pt x="189" y="337" on="0"/>
        <pt x="156" y="316" on="0"/>
        <pt x="135" y="288" on="1"/>
        <pt x="58" y="325" on="1"/>
        <pt x="68" y="356" on="0"/>
        <pt x="102" y="409" on="0"/>
        <pt x="143" y="447" on="0"/>
        <pt x="191" y="468" on="0"/>
        <pt x="217" y="468" on="1"/>
        <pt x="245" y="468" on="0"/>
        <pt x="289" y="452" on="0"/>
        <pt x="326" y="434" on="0"/>
        <pt x="357" y="418" on="0"/>
        <pt x="371" y="418" on="1"/>
        <pt x="395" y="418" on="0"/>
        <pt x="427" y="447" on="0"/>
        <pt x="440" y="467" on="1"/>
        <pt x="518" y="430" on="1"/>
        <pt x="507" y="399" on="0"/>
        <pt x="474" y="347" on="0"/>
        <pt x="432" y="309" on="0"/>
        <pt x="384" y="287" on="0"/>
      </contour>
      <contour>
        <pt x="333" y="41" on="1"/>
        <pt x="307" y="41" on="0"/>
        <pt x="265" y="57" on="0"/>
        <pt x="229" y="75" on="0"/>
        <pt x="197" y="91" on="0"/>
        <pt x="181" y="91" on="1"/>
        <pt x="163" y="91" on="0"/>
        <pt x="130" y="70" on="0"/>
        <pt x="109" y="42" on="1"/>
        <pt x="32" y="79" on="1"/>
        <pt x="42" y="110" on="0"/>
        <pt x="76" y="163" on="0"/>
        <pt x="117" y="201" on="0"/>
        <pt x="165" y="222" on="0"/>
        <pt x="191" y="222" on="1"/>
        <pt x="219" y="222" on="0"/>
        <pt x="263" y="206" on="0"/>
        <pt x="300" y="188" on="0"/>
        <pt x="331" y="172" on="0"/>
        <pt x="345" y="172" on="1"/>
        <pt x="369" y="172" on="0"/>
        <pt x="401" y="201" on="0"/>
        <pt x="414" y="221" on="1"/>
        <pt x="492" y="184" on="1"/>
        <pt x="481" y="153" on="0"/>
        <pt x="448" y="101" on="0"/>
        <pt x="406" y="63" on="0"/>
        <pt x="358" y="41" on="0"/>
      </contour>
    </TTGlyph>
    <TTGlyph name="aring" xMin="22" yMin="-8" xMax="550" yMax="816">
      <component glyphName="a" x="0" y="0" flags="0x204"/>
      <component glyphName="ring" x="66" y="0" flags="0x4"/>
    </TTGlyph>
    <TTGlyph name="aringacute" xMin="22" yMin="-8" xMax="550" yMax="1022">
      <component glyphName="a" x="0" y="0" flags="0x204"/>
      <component glyphName="ring" x="65" y="-23" flags="0x4"/>
      <component glyphName="acute" x="100" y="259" flags="0x4"/>
    </TTGlyph>
    <TTGlyph name="arrowdown" xMin="144" yMin="-104" xMax="654" yMax="591">
      <contour>
        <pt x="350" y="-92" on="1"/>
        <pt x="144" y="114" on="1"/>
        <pt x="211" y="180" on="1"/>
        <pt x="330" y="83" on="1"/>
        <pt x="330" y="591" on="1"/>
        <pt x="463" y="591" on="1"/>
        <pt x="463" y="80" on="1"/>
        <pt x="587" y="180" on="1"/>
        <pt x="654" y="114" on="1"/>
        <pt x="437" y="-104" on="1"/>
        <pt x="377" y="-104" on="1"/>
        <pt x="369" y="-104" on="0"/>
        <pt x="357" y="-100" on="0"/>
      </contour>
    </TTGlyph>
    <TTGlyph name="arrowdown.cap" xMin="144" yMin="-18" xMax="654" yMax="677">
      <contour>
        <pt x="350" y="-6" on="1"/>
        <pt x="144" y="200" on="1"/>
        <pt x="211" y="266" on="1"/>
        <pt x="330" y="169" on="1"/>
        <pt x="330" y="677" on="1"/>
        <pt x="463" y="677" on="1"/>
        <pt x="463" y="166" on="1"/>
        <pt x="587" y="266" on="1"/>
        <pt x="654" y="200" on="1"/>
        <pt x="437" y="-18" on="1"/>
        <pt x="377" y="-18" on="1"/>
        <pt x="369" y="-18" on="0"/>
        <pt x="357" y="-14" on="0"/>
      </contour>
    </TTGlyph>
    <TTGlyph name="arrowleft" xMin="51" yMin="-15" xMax="746" yMax="495">
      <contour>
        <pt x="269" y="495" on="1"/>
        <pt x="335" y="428" on="1"/>
        <pt x="238" y="306" on="1"/>
        <pt x="746" y="306" on="1"/>
        <pt x="746" y="179" on="1"/>
        <pt x="235" y="179" on="1"/>
        <pt x="335" y="52" on="1"/>
        <pt x="269" y="-15" on="1"/>
        <pt x="51" y="202" on="1"/>
        <pt x="51" y="262" on="1"/>
        <pt x="51" y="272" on="0"/>
        <pt x="55" y="281" on="0"/>
        <pt x="63" y="289" on="1"/>
      </contour>
    </TTGlyph>
    <TTGlyph name="arrowleft.cap" xMin="51" yMin="71" xMax="746" yMax="581">
      <contour>
        <pt x="269" y="581" on="1"/>
        <pt x="335" y="514" on="1"/>
        <pt x="238" y="392" on="1"/>
        <pt x="746" y="392" on="1"/>
        <pt x="746" y="265" on="1"/>
        <pt x="235" y="265" on="1"/>
        <pt x="335" y="138" on="1"/>
        <pt x="269" y="71" on="1"/>
        <pt x="51" y="288" on="1"/>
        <pt x="51" y="348" on="1"/>
        <pt x="51" y="358" on="0"/>
        <pt x="55" y="367" on="0"/>
        <pt x="63" y="375" on="1"/>
      </contour>
    </TTGlyph>
    <TTGlyph name="arrowright" xMin="51" yMin="-10" xMax="746" yMax="500">
      <contour>
        <pt x="734" y="196" on="1"/>
        <pt x="528" y="-10" on="1"/>
        <pt x="462" y="57" on="1"/>
        <pt x="559" y="179" on="1"/>
        <pt x="51" y="179" on="1"/>
        <pt x="51" y="306" on="1"/>
        <pt x="562" y="306" on="1"/>
        <pt x="462" y="433" on="1"/>
        <pt x="528" y="500" on="1"/>
        <pt x="746" y="283" on="1"/>
        <pt x="746" y="223" on="1"/>
        <pt x="746" y="213" on="0"/>
        <pt x="742" y="204" on="0"/>
      </contour>
    </TTGlyph>
    <TTGlyph name="arrowright.cap" xMin="51" yMin="76" xMax="746" yMax="586">
      <contour>
        <pt x="734" y="282" on="1"/>
        <pt x="528" y="76" on="1"/>
        <pt x="462" y="143" on="1"/>
        <pt x="559" y="265" on="1"/>
        <pt x="51" y="265" on="1"/>
        <pt x="51" y="392" on="1"/>
        <pt x="562" y="392" on="1"/>
        <pt x="462" y="519" on="1"/>
        <pt x="528" y="586" on="1"/>
        <pt x="746" y="369" on="1"/>
        <pt x="746" y="309" on="1"/>
        <pt x="746" y="299" on="0"/>
        <pt x="742" y="290" on="0"/>
      </contour>
    </TTGlyph>
    <TTGlyph name="arrowup" xMin="144" yMin="-104" xMax="654" yMax="591">
      <contour>
        <pt x="448" y="579" on="1"/>
        <pt x="654" y="374" on="1"/>
        <pt x="587" y="307" on="1"/>
        <pt x="468" y="404" on="1"/>
        <pt x="468" y="-104" on="1"/>
        <pt x="335" y="-104" on="1"/>
        <pt x="335" y="407" on="1"/>
        <pt x="211" y="307" on="1"/>
        <pt x="144" y="373" on="1"/>
        <pt x="361" y="591" on="1"/>
        <pt x="421" y="591" on="1"/>
        <pt x="431" y="591" on="0"/>
        <pt x="441" y="587" on="0"/>
      </contour>
    </TTGlyph>
    <TTGlyph name="arrowup.cap" xMin="144" yMin="-18" xMax="654" yMax="677">
      <contour>
        <pt x="448" y="665" on="1"/>
        <pt x="654" y="460" on="1"/>
        <pt x="587" y="393" on="1"/>
        <pt x="468" y="490" on="1"/>
        <pt x="468" y="-18" on="1"/>
        <pt x="335" y="-18" on="1"/>
        <pt x="335" y="493" on="1"/>
        <pt x="211" y="393" on="1"/>
        <pt x="144" y="459" on="1"/>
        <pt x="361" y="677" on="1"/>
        <pt x="421" y="677" on="1"/>
        <pt x="431" y="677" on="0"/>
        <pt x="441" y="673" on="0"/>
      </contour>
    </TTGlyph>
    <TTGlyph name="asciicircum" xMin="64" yMin="365" xMax="515" yMax="673">
      <contour>
        <pt x="515" y="441" on="1"/>
        <pt x="397" y="365" on="1"/>
        <pt x="299" y="516" on="1"/>
        <pt x="298" y="516" on="1"/>
        <pt x="164" y="365" on="1"/>
        <pt x="64" y="441" on="1"/>
        <pt x="266" y="673" on="1"/>
        <pt x="369" y="673" on="1"/>
      </contour>
    </TTGlyph>
    <TTGlyph name="asciitilde" xMin="61" yMin="278" xMax="521" yMax="459">
      <contour>
        <pt x="362" y="278" on="1"/>
        <pt x="336" y="278" on="0"/>
        <pt x="294" y="294" on="0"/>
        <pt x="258" y="312" on="0"/>
        <pt x="226" y="328" on="0"/>
        <pt x="210" y="328" on="1"/>
        <pt x="192" y="328" on="0"/>
        <pt x="159" y="307" on="0"/>
        <pt x="138" y="279" on="1"/>
        <pt x="61" y="316" on="1"/>
        <pt x="71" y="347" on="0"/>
        <pt x="105" y="400" on="0"/>
        <pt x="146" y="438" on="0"/>
        <pt x="194" y="459" on="0"/>
        <pt x="220" y="459" on="1"/>
        <pt x="248" y="459" on="0"/>
        <pt x="292" y="443" on="0"/>
        <pt x="329" y="425" on="0"/>
        <pt x="360" y="409" on="0"/>
        <pt x="374" y="409" on="1"/>
        <pt x="398" y="409" on="0"/>
        <pt x="430" y="438" on="0"/>
        <pt x="443" y="458" on="1"/>
        <pt x="521" y="421" on="1"/>
        <pt x="510" y="390" on="0"/>
        <pt x="477" y="338" on="0"/>
        <pt x="435" y="300" on="0"/>
        <pt x="387" y="278" on="0"/>
      </contour>
    </TTGlyph>
    <TTGlyph name="asterisk" xMin="59" yMin="261" xMax="461" yMax="663">
      <contour>
        <pt x="322" y="273" on="1"/>
        <pt x="305" y="262" on="0"/>
        <pt x="299" y="278" on="1"/>
        <pt x="251" y="404" on="1"/>
        <pt x="162" y="261" on="1"/>
        <pt x="78" y="323" on="1"/>
        <pt x="61" y="336" on="0"/>
        <pt x="82" y="353" on="1"/>
        <pt x="201" y="454" on="1"/>
        <pt x="59" y="473" on="1"/>
        <pt x="104" y="568" on="1"/>
        <pt x="109" y="579" on="0"/>
        <pt x="121" y="586" on="0"/>
        <pt x="132" y="578" on="1"/>
        <pt x="227" y="512" on="1"/>
        <pt x="214" y="663" on="1"/>
        <pt x="329" y="663" on="1"/>
        <pt x="348" y="663" on="0"/>
        <pt x="342" y="645" on="1"/>
        <pt x="298" y="512" on="1"/>
        <pt x="430" y="589" on="1"/>
        <pt x="455" y="492" on="1"/>
        <pt x="461" y="472" on="0"/>
        <pt x="437" y="469" on="1"/>
        <pt x="312" y="454" on="1"/>
        <pt x="423" y="335" on="1"/>
      </contour>
    </TTGlyph>
    <TTGlyph name="at" xMin="33" yMin="-99" xMax="715" yMax="583">
      <contour>
        <pt x="326" y="228" on="1"/>
        <pt x="326" y="205" on="0"/>
        <pt x="345" y="179" on="0"/>
        <pt x="365" y="179" on="1"/>
        <pt x="370" y="179" on="0"/>
        <pt x="391" y="182" on="0"/>
        <pt x="399" y="187" on="1"/>
        <pt x="405" y="190" on="0"/>
        <pt x="408" y="195" on="0"/>
        <pt x="409" y="200" on="1"/>
        <pt x="420" y="289" on="1"/>
        <pt x="422" y="300" on="0"/>
        <pt x="419" y="306" on="0"/>
        <pt x="413" y="308" on="1"/>
        <pt x="400" y="313" on="0"/>
        <pt x="385" y="313" on="1"/>
        <pt x="359" y="313" on="0"/>
        <pt x="326" y="270" on="0"/>
      </contour>
      <contour>
        <pt x="421" y="118" on="1"/>
        <pt x="397" y="101" on="0"/>
        <pt x="355" y="84" on="0"/>
        <pt x="334" y="84" on="1"/>
        <pt x="288" y="84" on="0"/>
        <pt x="221" y="154" on="0"/>
        <pt x="221" y="221" on="1"/>
        <pt x="221" y="259" on="0"/>
        <pt x="243" y="327" on="0"/>
        <pt x="282" y="378" on="0"/>
        <pt x="336" y="408" on="0"/>
        <pt x="368" y="408" on="1"/>
        <pt x="391" y="408" on="0"/>
        <pt x="426" y="390" on="0"/>
        <pt x="447" y="376" on="1"/>
        <pt x="461" y="402" on="1"/>
        <pt x="535" y="402" on="1"/>
        <pt x="512" y="216" on="1"/>
        <pt x="510" y="204" on="0"/>
        <pt x="510" y="193" on="0"/>
        <pt x="510" y="191" on="1"/>
        <pt x="510" y="158" on="0"/>
        <pt x="538" y="158" on="1"/>
        <pt x="564" y="158" on="0"/>
        <pt x="603" y="221" on="0"/>
        <pt x="603" y="287" on="1"/>
        <pt x="603" y="335" on="0"/>
        <pt x="573" y="406" on="0"/>
        <pt x="521" y="454" on="0"/>
        <pt x="450" y="478" on="0"/>
        <pt x="408" y="478" on="1"/>
        <pt x="353" y="478" on="0"/>
        <pt x="260" y="438" on="0"/>
        <pt x="193" y="369" on="0"/>
        <pt x="156" y="276" on="0"/>
        <pt x="156" y="222" on="1"/>
        <pt x="156" y="172" on="0"/>
        <pt x="187" y="92" on="0"/>
        <pt x="246" y="37" on="0"/>
        <pt x="329" y="7" on="0"/>
        <pt x="382" y="7" on="1"/>
        <pt x="417" y="7" on="0"/>
        <pt x="493" y="18" on="0"/>
        <pt x="535" y="29" on="1"/>
        <pt x="624" y="51" on="1"/>
        <pt x="647" y="-16" on="1"/>
        <pt x="618" y="-34" on="0"/>
        <pt x="549" y="-65" on="0"/>
        <pt x="474" y="-87" on="0"/>
        <pt x="397" y="-99" on="0"/>
        <pt x="361" y="-99" on="1"/>
        <pt x="291" y="-99" on="0"/>
        <pt x="171" y="-56" on="0"/>
        <pt x="83" y="23" on="0"/>
        <pt x="33" y="136" on="0"/>
        <pt x="33" y="206" on="1"/>
        <pt x="33" y="286" on="0"/>
        <pt x="90" y="424" on="0"/>
        <pt x="192" y="525" on="0"/>
        <pt x="331" y="583" on="0"/>
        <pt x="412" y="583" on="1"/>
        <pt x="479" y="583" on="0"/>
        <pt x="591" y="542" on="0"/>
        <pt x="671" y="468" on="0"/>
        <pt x="715" y="368" on="0"/>
        <pt x="715" y="308" on="1"/>
        <pt x="715" y="257" on="0"/>
        <pt x="684" y="173" on="0"/>
        <pt x="631" y="112" on="0"/>
        <pt x="559" y="78" on="0"/>
        <pt x="518" y="78" on="1"/>
        <pt x="488" y="78" on="0"/>
        <pt x="434" y="98" on="0"/>
      </contour>
    </TTGlyph>
    <TTGlyph name="at.cap" xMin="41" yMin="-10" xMax="723" yMax="672">
      <component glyphName="at" x="8" y="89" flags="0x204"/>
    </TTGlyph>
    <TTGlyph name="atilde" xMin="22" yMin="-8" xMax="550" yMax="725">
      <component glyphName="a" x="0" y="0" flags="0x204"/>
      <component glyphName="tilde" x="70" y="0" flags="0x4"/>
    </TTGlyph>
    <TTGlyph name="b" xMin="23" yMin="-8" xMax="528" yMax="709">
      <contour>
        <pt x="231" y="457" on="1"/>
        <pt x="254" y="469" on="1"/>
        <pt x="282" y="483" on="0"/>
        <pt x="326" y="496" on="0"/>
        <pt x="349" y="496" on="1"/>
        <pt x="389" y="496" on="0"/>
        <pt x="455" y="461" on="0"/>
        <pt x="502" y="401" on="0"/>
        <pt x="528" y="319" on="0"/>
        <pt x="528" y="273" on="1"/>
        <pt x="528" y="217" on="0"/>
        <pt x="491" y="115" on="0"/>
        <pt x="428" y="38" on="0"/>
        <pt x="344" y="-8" on="0"/>
        <pt x="296" y="-8" on="1"/>
        <pt x="266" y="-8" on="0"/>
        <pt x="215" y="10" on="0"/>
        <pt x="183" y="31" on="1"/>
        <pt x="162" y="45" on="1"/>
        <pt x="138" y="-2" on="1"/>
        <pt x="23" y="6" on="1"/>
        <pt x="105" y="709" on="1"/>
        <pt x="261" y="709" on="1"/>
      </contour>
      <contour>
        <pt x="196" y="159" on="1"/>
        <pt x="195" y="150" on="0"/>
        <pt x="198" y="144" on="0"/>
        <pt x="207" y="141" on="1"/>
        <pt x="221" y="136" on="0"/>
        <pt x="255" y="131" on="0"/>
        <pt x="269" y="131" on="1"/>
        <pt x="321" y="131" on="0"/>
        <pt x="369" y="208" on="0"/>
        <pt x="369" y="268" on="1"/>
        <pt x="369" y="309" on="0"/>
        <pt x="336" y="356" on="0"/>
        <pt x="298" y="356" on="1"/>
        <pt x="281" y="356" on="0"/>
        <pt x="244" y="348" on="0"/>
        <pt x="229" y="341" on="1"/>
        <pt x="221" y="337" on="0"/>
        <pt x="217" y="331" on="0"/>
        <pt x="215" y="320" on="1"/>
      </contour>
    </TTGlyph>
    <TTGlyph name="backslash" xMin="45" yMin="0" xMax="444" yMax="663">
      <contour>
        <pt x="287" y="0" on="1"/>
        <pt x="45" y="663" on="1"/>
        <pt x="202" y="663" on="1"/>
        <pt x="444" y="0" on="1"/>
      </contour>
    </TTGlyph>
    <TTGlyph name="bar" xMin="14" yMin="-229" xMax="273" yMax="709">
      <contour>
        <pt x="125" y="709" on="1"/>
        <pt x="273" y="709" on="1"/>
        <pt x="162" y="-229" on="1"/>
        <pt x="14" y="-229" on="1"/>
      </contour>
    </TTGlyph>
    <TTGlyph name="braceleft" xMin="21" yMin="-241" xMax="419" yMax="673">
      <contour>
        <pt x="33" y="267" on="1"/>
        <pt x="68" y="281" on="0"/>
        <pt x="110" y="303" on="0"/>
        <pt x="133" y="329" on="0"/>
        <pt x="141" y="362" on="0"/>
        <pt x="141" y="388" on="1"/>
        <pt x="141" y="413" on="0"/>
        <pt x="137" y="482" on="0"/>
        <pt x="137" y="511" on="1"/>
        <pt x="137" y="552" on="0"/>
        <pt x="163" y="613" on="0"/>
        <pt x="208" y="653" on="0"/>
        <pt x="271" y="673" on="0"/>
        <pt x="307" y="673" on="1"/>
        <pt x="332" y="673" on="0"/>
        <pt x="390" y="663" on="0"/>
        <pt x="419" y="655" on="1"/>
        <pt x="407" y="560" on="1"/>
        <pt x="311" y="536" on="1"/>
        <pt x="300" y="533" on="0"/>
        <pt x="293" y="524" on="0"/>
        <pt x="293" y="513" on="1"/>
        <pt x="293" y="502" on="0"/>
        <pt x="294" y="468" on="0"/>
        <pt x="296" y="434" on="0"/>
        <pt x="297" y="404" on="0"/>
        <pt x="297" y="397" on="1"/>
        <pt x="297" y="363" on="0"/>
        <pt x="282" y="310" on="0"/>
        <pt x="247" y="267" on="0"/>
        <pt x="187" y="232" on="0"/>
        <pt x="142" y="216" on="1"/>
        <pt x="208" y="190" on="0"/>
        <pt x="262" y="134" on="0"/>
        <pt x="262" y="93" on="1"/>
        <pt x="262" y="71" on="0"/>
        <pt x="250" y="15" on="0"/>
        <pt x="235" y="-38" on="0"/>
        <pt x="223" y="-80" on="0"/>
        <pt x="223" y="-88" on="1"/>
        <pt x="223" y="-95" on="0"/>
        <pt x="229" y="-102" on="0"/>
        <pt x="239" y="-105" on="1"/>
        <pt x="327" y="-128" on="1"/>
        <pt x="315" y="-223" on="1"/>
        <pt x="290" y="-231" on="0"/>
        <pt x="226" y="-241" on="0"/>
        <pt x="200" y="-241" on="1"/>
        <pt x="170" y="-241" on="0"/>
        <pt x="120" y="-226" on="0"/>
        <pt x="83" y="-198" on="0"/>
        <pt x="62" y="-156" on="0"/>
        <pt x="62" y="-129" on="1"/>
        <pt x="62" y="-103" on="0"/>
        <pt x="76" y="-42" on="0"/>
        <pt x="93" y="16" on="0"/>
        <pt x="107" y="67" on="0"/>
        <pt x="107" y="84" on="1"/>
        <pt x="107" y="109" on="0"/>
        <pt x="72" y="144" on="0"/>
        <pt x="21" y="165" on="1"/>
      </contour>
    </TTGlyph>
    <TTGlyph name="braceleft.cap" xMin="48" yMin="-125" xMax="446" yMax="789">
      <component glyphName="braceleft" x="27" y="116" flags="0x204"/>
    </TTGlyph>
    <TTGlyph name="braceright" xMin="-36" yMin="-241" xMax="362" yMax="673">
      <contour>
        <pt x="350" y="165" on="1"/>
        <pt x="315" y="151" on="0"/>
        <pt x="273" y="129" on="0"/>
        <pt x="250" y="103" on="0"/>
        <pt x="242" y="69" on="0"/>
        <pt x="242" y="44" on="1"/>
        <pt x="242" y="19" on="0"/>
        <pt x="246" y="-50" on="0"/>
        <pt x="246" y="-79" on="1"/>
        <pt x="246" y="-120" on="0"/>
        <pt x="220" y="-181" on="0"/>
        <pt x="175" y="-221" on="0"/>
        <pt x="112" y="-241" on="0"/>
        <pt x="76" y="-241" on="1"/>
        <pt x="51" y="-241" on="0"/>
        <pt x="-7" y="-231" on="0"/>
        <pt x="-36" y="-223" on="1"/>
        <pt x="-24" y="-128" on="1"/>
        <pt x="72" y="-104" on="1"/>
        <pt x="83" y="-101" on="0"/>
        <pt x="90" y="-92" on="0"/>
        <pt x="90" y="-81" on="1"/>
        <pt x="90" y="-70" on="0"/>
        <pt x="89" y="-37" on="0"/>
        <pt x="87" y="-2" on="0"/>
        <pt x="86" y="28" on="0"/>
        <pt x="86" y="35" on="1"/>
        <pt x="86" y="69" on="0"/>
        <pt x="101" y="122" on="0"/>
        <pt x="136" y="165" on="0"/>
        <pt x="196" y="200" on="0"/>
        <pt x="241" y="216" on="1"/>
        <pt x="175" y="242" on="0"/>
        <pt x="121" y="298" on="0"/>
        <pt x="121" y="339" on="1"/>
        <pt x="121" y="361" on="0"/>
        <pt x="133" y="417" on="0"/>
        <pt x="148" y="470" on="0"/>
        <pt x="160" y="512" on="0"/>
        <pt x="160" y="520" on="1"/>
        <pt x="160" y="527" on="0"/>
        <pt x="154" y="534" on="0"/>
        <pt x="144" y="537" on="1"/>
        <pt x="56" y="560" on="1"/>
        <pt x="68" y="655" on="1"/>
        <pt x="93" y="663" on="0"/>
        <pt x="157" y="673" on="0"/>
        <pt x="183" y="673" on="1"/>
        <pt x="213" y="673" on="0"/>
        <pt x="263" y="658" on="0"/>
        <pt x="300" y="630" on="0"/>
        <pt x="321" y="588" on="0"/>
        <pt x="321" y="561" on="1"/>
        <pt x="321" y="535" on="0"/>
        <pt x="307" y="474" on="0"/>
        <pt x="290" y="415" on="0"/>
        <pt x="276" y="364" on="0"/>
        <pt x="276" y="348" on="1"/>
        <pt x="276" y="335" on="0"/>
        <pt x="284" y="315" on="0"/>
        <pt x="303" y="296" on="0"/>
        <pt x="336" y="277" on="0"/>
        <pt x="362" y="267" on="1"/>
      </contour>
    </TTGlyph>
    <TTGlyph name="braceright.cap" xMin="-36" yMin="-125" xMax="362" yMax="789">
      <component glyphName="braceright" x="0" y="116" flags="0x204"/>
    </TTGlyph>
    <TTGlyph name="bracketleft" xMin="12" yMin="-229" xMax="392" yMax="663">
      <contour>
        <pt x="178" y="-93" on="1"/>
        <pt x="304" y="-93" on="1"/>
        <pt x="287" y="-229" on="1"/>
        <pt x="12" y="-229" on="1"/>
        <pt x="118" y="663" on="1"/>
        <pt x="392" y="663" on="1"/>
        <pt x="375" y="527" on="1"/>
        <pt x="252" y="527" on="1"/>
      </contour>
    </TTGlyph>
    <TTGlyph name="bracketleft.cap" xMin="29" yMin="-115" xMax="409" yMax="777">
      <contour>
        <pt x="201" y="26" on="1"/>
        <pt x="321" y="26" on="1"/>
        <pt x="304" y="-115" on="1"/>
        <pt x="29" y="-115" on="1"/>
        <pt x="135" y="777" on="1"/>
        <pt x="409" y="777" on="1"/>
        <pt x="392" y="635" on="1"/>
        <pt x="273" y="635" on="1"/>
      </contour>
    </TTGlyph>
    <TTGlyph name="bracketright" xMin="-39" yMin="-229" xMax="341" yMax="663">
      <contour>
        <pt x="175" y="527" on="1"/>
        <pt x="49" y="527" on="1"/>
        <pt x="66" y="663" on="1"/>
        <pt x="341" y="663" on="1"/>
        <pt x="235" y="-229" on="1"/>
        <pt x="-39" y="-229" on="1"/>
        <pt x="-22" y="-93" on="1"/>
        <pt x="101" y="-93" on="1"/>
      </contour>
    </TTGlyph>
    <TTGlyph name="bracketright.cap" xMin="-27" yMin="-115" xMax="353" yMax="777">
      <component glyphName="bracketright" x="12" y="114" flags="0x204"/>
    </TTGlyph>
    <TTGlyph name="breve" xMin="88" yMin="558" xMax="425" yMax="732">
      <contour>
        <pt x="239" y="558" on="1"/>
        <pt x="202" y="558" on="0"/>
        <pt x="145" y="583" on="0"/>
        <pt x="107" y="626" on="0"/>
        <pt x="88" y="683" on="0"/>
        <pt x="88" y="715" on="1"/>
        <pt x="185" y="732" on="1"/>
        <pt x="197" y="665" on="0"/>
        <pt x="251" y="665" on="1"/>
        <pt x="280" y="665" on="0"/>
        <pt x="318" y="699" on="0"/>
        <pt x="332" y="732" on="1"/>
        <pt x="425" y="715" on="1"/>
        <pt x="418" y="682" on="0"/>
        <pt x="386" y="625" on="0"/>
        <pt x="338" y="582" on="0"/>
        <pt x="276" y="558" on="0"/>
      </contour>
    </TTGlyph>
    <TTGlyph name="breve.cap" xMin="112" yMin="730" xMax="449" yMax="904">
      <contour>
        <pt x="263" y="730" on="1"/>
        <pt x="226" y="730" on="0"/>
        <pt x="169" y="755" on="0"/>
        <pt x="131" y="798" on="0"/>
        <pt x="112" y="855" on="0"/>
        <pt x="112" y="887" on="1"/>
        <pt x="209" y="904" on="1"/>
        <pt x="221" y="837" on="0"/>
        <pt x="275" y="837" on="1"/>
        <pt x="304" y="837" on="0"/>
        <pt x="342" y="871" on="0"/>
        <pt x="356" y="904" on="1"/>
        <pt x="449" y="887" on="1"/>
        <pt x="442" y="854" on="0"/>
        <pt x="410" y="797" on="0"/>
        <pt x="362" y="754" on="0"/>
        <pt x="300" y="730" on="0"/>
      </contour>
    </TTGlyph>
    <TTGlyph name="brokenbar" xMin="14" yMin="-229" xMax="273" yMax="709">
      <contour>
        <pt x="125" y="709" on="1"/>
        <pt x="273" y="709" on="1"/>
        <pt x="223" y="291" on="1"/>
        <pt x="75" y="291" on="1"/>
      </contour>
      <contour>
        <pt x="63" y="189" on="1"/>
        <pt x="211" y="189" on="1"/>
        <pt x="162" y="-229" on="1"/>
        <pt x="14" y="-229" on="1"/>
      </contour>
    </TTGlyph>
    <TTGlyph name="bullet" xMin="44" yMin="163" xMax="318" yMax="404">
      <contour>
        <pt x="267" y="404" on="1"/>
        <pt x="295" y="404" on="0"/>
        <pt x="318" y="383" on="0"/>
        <pt x="314" y="354" on="1"/>
        <pt x="291" y="163" on="1"/>
        <pt x="44" y="163" on="1"/>
        <pt x="73" y="404" on="1"/>
      </contour>
    </TTGlyph>
    <TTGlyph name="bullet.cap" xMin="50" yMin="209" xMax="324" yMax="450">
      <component glyphName="bullet" x="6" y="46" flags="0x204"/>
    </TTGlyph>
    <TTGlyph name="c" xMin="22" yMin="-8" xMax="493" yMax="496">
      <contour>
        <pt x="480" y="84" on="1"/>
        <pt x="458" y="63" on="0"/>
        <pt x="402" y="29" on="0"/>
        <pt x="341" y="5" on="0"/>
        <pt x="279" y="-8" on="0"/>
        <pt x="252" y="-8" on="1"/>
        <pt x="202" y="-8" on="0"/>
        <pt x="118" y="24" on="0"/>
        <pt x="56" y="84" on="0"/>
        <pt x="22" y="169" on="0"/>
        <pt x="22" y="222" on="1"/>
        <pt x="22" y="280" on="0"/>
        <pt x="62" y="380" on="0"/>
        <pt x="132" y="454" on="0"/>
        <pt x="227" y="496" on="0"/>
        <pt x="281" y="496" on="1"/>
        <pt x="320" y="496" on="0"/>
        <pt x="390" y="471" on="0"/>
        <pt x="445" y="426" on="0"/>
        <pt x="484" y="361" on="0"/>
        <pt x="493" y="321" on="1"/>
        <pt x="391" y="275" on="1"/>
        <pt x="351" y="315" on="1"/>
        <pt x="325" y="341" on="0"/>
        <pt x="295" y="361" on="0"/>
        <pt x="275" y="361" on="1"/>
        <pt x="255" y="361" on="0"/>
        <pt x="221" y="341" on="0"/>
        <pt x="195" y="306" on="0"/>
        <pt x="181" y="259" on="0"/>
        <pt x="181" y="233" on="1"/>
        <pt x="181" y="185" on="0"/>
        <pt x="228" y="127" on="0"/>
        <pt x="277" y="127" on="1"/>
        <pt x="312" y="127" on="0"/>
        <pt x="380" y="148" on="1"/>
        <pt x="438" y="167" on="1"/>
      </contour>
    </TTGlyph>
    <TTGlyph name="cacute" xMin="22" yMin="-8" xMax="493" yMax="763">
      <component glyphName="c" x="0" y="0" flags="0x204"/>
      <component glyphName="acute" x="72" y="0" flags="0x4"/>
    </TTGlyph>
    <TTGlyph name="caron" xMin="69" yMin="557" xMax="427" yMax="759">
      <contour>
        <pt x="205" y="557" on="1"/>
        <pt x="194" y="557" on="0"/>
        <pt x="183" y="562" on="0"/>
        <pt x="176" y="570" on="1"/>
        <pt x="69" y="701" on="1"/>
        <pt x="133" y="759" on="1"/>
        <pt x="244" y="666" on="1"/>
        <pt x="245" y="666" on="1"/>
        <pt x="378" y="759" on="1"/>
        <pt x="391" y="745" on="0"/>
        <pt x="415" y="715" on="0"/>
        <pt x="427" y="701" on="1"/>
        <pt x="289" y="570" on="1"/>
        <pt x="281" y="562" on="0"/>
        <pt x="269" y="557" on="0"/>
        <pt x="257" y="557" on="1"/>
      </contour>
    </TTGlyph>
    <TTGlyph name="caron.cap" xMin="103" yMin="729" xMax="461" yMax="931">
      <contour>
        <pt x="239" y="729" on="1"/>
        <pt x="228" y="729" on="0"/>
        <pt x="217" y="734" on="0"/>
        <pt x="210" y="742" on="1"/>
        <pt x="103" y="873" on="1"/>
        <pt x="167" y="931" on="1"/>
        <pt x="278" y="838" on="1"/>
        <pt x="279" y="838" on="1"/>
        <pt x="412" y="931" on="1"/>
        <pt x="425" y="917" on="0"/>
        <pt x="449" y="887" on="0"/>
        <pt x="461" y="873" on="1"/>
        <pt x="323" y="742" on="1"/>
        <pt x="315" y="734" on="0"/>
        <pt x="303" y="729" on="0"/>
        <pt x="291" y="729" on="1"/>
      </contour>
    </TTGlyph>
    <TTGlyph name="ccaron" xMin="22" yMin="-8" xMax="493" yMax="759">
      <component glyphName="c" x="0" y="0" flags="0x204"/>
      <component glyphName="caron" x="61" y="0" flags="0x4"/>
    </TTGlyph>
    <TTGlyph name="ccedilla" xMin="22" yMin="-247" xMax="493" yMax="496">
      <contour>
        <pt x="480" y="85" on="1"/>
        <pt x="460" y="66" on="0"/>
        <pt x="410" y="34" on="0"/>
        <pt x="354" y="10" on="0"/>
        <pt x="298" y="-5" on="0"/>
        <pt x="272" y="-7" on="1"/>
        <pt x="258" y="-22" on="0"/>
        <pt x="258" y="-34" on="1"/>
        <pt x="258" y="-42" on="0"/>
        <pt x="287" y="-54" on="0"/>
        <pt x="321" y="-72" on="0"/>
        <pt x="350" y="-101" on="0"/>
        <pt x="350" y="-126" on="1"/>
        <pt x="350" y="-154" on="0"/>
        <pt x="317" y="-198" on="0"/>
        <pt x="262" y="-228" on="0"/>
        <pt x="187" y="-246" on="0"/>
        <pt x="145" y="-247" on="1"/>
        <pt x="140" y="-165" on="1"/>
        <pt x="193" y="-156" on="1"/>
        <pt x="227" y="-150" on="0"/>
        <pt x="227" y="-136" on="1"/>
        <pt x="227" y="-128" on="0"/>
        <pt x="203" y="-116" on="0"/>
        <pt x="173" y="-102" on="0"/>
        <pt x="149" y="-82" on="0"/>
        <pt x="149" y="-67" on="1"/>
        <pt x="149" y="-53" on="0"/>
        <pt x="172" y="-20" on="0"/>
        <pt x="192" y="-1" on="1"/>
        <pt x="116" y="16" on="0"/>
        <pt x="22" y="132" on="0"/>
        <pt x="22" y="222" on="1"/>
        <pt x="22" y="280" on="0"/>
        <pt x="62" y="380" on="0"/>
        <pt x="132" y="454" on="0"/>
        <pt x="227" y="496" on="0"/>
        <pt x="281" y="496" on="1"/>
        <pt x="320" y="496" on="0"/>
        <pt x="390" y="471" on="0"/>
        <pt x="445" y="426" on="0"/>
        <pt x="484" y="361" on="0"/>
        <pt x="493" y="321" on="1"/>
        <pt x="391" y="275" on="1"/>
        <pt x="351" y="315" on="1"/>
        <pt x="325" y="341" on="0"/>
        <pt x="295" y="361" on="0"/>
        <pt x="275" y="361" on="1"/>
        <pt x="255" y="361" on="0"/>
        <pt x="221" y="341" on="0"/>
        <pt x="195" y="306" on="0"/>
        <pt x="181" y="259" on="0"/>
        <pt x="181" y="233" on="1"/>
        <pt x="181" y="185" on="0"/>
        <pt x="228" y="127" on="0"/>
        <pt x="277" y="127" on="1"/>
        <pt x="296" y="127" on="0"/>
        <pt x="346" y="138" on="0"/>
        <pt x="380" y="149" on="1"/>
        <pt x="438" y="168" on="1"/>
      </contour>
    </TTGlyph>
    <TTGlyph name="ccircumflex" xMin="22" yMin="-8" xMax="493" yMax="747">
      <component glyphName="c" x="0" y="0" flags="0x204"/>
      <component glyphName="circumflex" x="61" y="0" flags="0x4"/>
    </TTGlyph>
    <TTGlyph name="cdotaccent" xMin="22" yMin="-8" xMax="493" yMax="703">
      <component glyphName="c" x="0" y="0" flags="0x204"/>
      <component glyphName="dotaccent" x="56" y="0" flags="0x4"/>
    </TTGlyph>
    <TTGlyph name="cedilla" xMin="84" yMin="-247" xMax="294" yMax="31">
      <contour>
        <pt x="231" y="9" on="1"/>
        <pt x="202" y="-21" on="0"/>
        <pt x="202" y="-34" on="1"/>
        <pt x="202" y="-42" on="0"/>
        <pt x="231" y="-54" on="0"/>
        <pt x="265" y="-72" on="0"/>
        <pt x="294" y="-101" on="0"/>
        <pt x="294" y="-126" on="1"/>
        <pt x="294" y="-154" on="0"/>
        <pt x="261" y="-198" on="0"/>
        <pt x="206" y="-228" on="0"/>
        <pt x="131" y="-246" on="0"/>
        <pt x="89" y="-247" on="1"/>
        <pt x="84" y="-165" on="1"/>
        <pt x="137" y="-156" on="1"/>
        <pt x="171" y="-150" on="0"/>
        <pt x="171" y="-136" on="1"/>
        <pt x="171" y="-128" on="0"/>
        <pt x="147" y="-116" on="0"/>
        <pt x="117" y="-102" on="0"/>
        <pt x="93" y="-82" on="0"/>
        <pt x="93" y="-67" on="1"/>
        <pt x="93" y="-47" on="0"/>
        <pt x="138" y="2" on="0"/>
        <pt x="176" y="31" on="1"/>
      </contour>
    </TTGlyph>
    <TTGlyph name="cent" xMin="92" yMin="-131" xMax="563" yMax="629">
      <contour>
        <pt x="426" y="485" on="1"/>
        <pt x="441" y="480" on="0"/>
        <pt x="481" y="457" on="0"/>
        <pt x="520" y="418" on="0"/>
        <pt x="554" y="361" on="0"/>
        <pt x="563" y="321" on="1"/>
        <pt x="461" y="275" on="1"/>
        <pt x="421" y="315" on="1"/>
        <pt x="395" y="341" on="0"/>
        <pt x="365" y="361" on="0"/>
        <pt x="345" y="361" on="1"/>
        <pt x="325" y="361" on="0"/>
        <pt x="291" y="341" on="0"/>
        <pt x="265" y="306" on="0"/>
        <pt x="251" y="259" on="0"/>
        <pt x="251" y="233" on="1"/>
        <pt x="251" y="185" on="0"/>
        <pt x="298" y="127" on="0"/>
        <pt x="347" y="127" on="1"/>
        <pt x="366" y="127" on="0"/>
        <pt x="416" y="138" on="0"/>
        <pt x="450" y="149" on="1"/>
        <pt x="508" y="168" on="1"/>
        <pt x="550" y="85" on="1"/>
        <pt x="530" y="66" on="0"/>
        <pt x="480" y="35" on="0"/>
        <pt x="429" y="12" on="0"/>
        <pt x="383" y="-2" on="0"/>
        <pt x="368" y="-3" on="1"/>
        <pt x="338" y="-131" on="1"/>
        <pt x="239" y="-131" on="1"/>
        <pt x="254" y="0" on="1"/>
        <pt x="228" y="6" on="0"/>
        <pt x="171" y="38" on="0"/>
        <pt x="123" y="91" on="0"/>
        <pt x="92" y="169" on="0"/>
        <pt x="92" y="222" on="1"/>
        <pt x="92" y="280" on="0"/>
        <pt x="130" y="375" on="0"/>
        <pt x="191" y="444" on="0"/>
        <pt x="271" y="486" on="0"/>
        <pt x="313" y="491" on="1"/>
        <pt x="345" y="629" on="1"/>
        <pt x="444" y="629" on="1"/>
      </contour>
    </TTGlyph>
    <TTGlyph name="cent.lprop" xMin="46" yMin="-131" xMax="517" yMax="629">
      <component glyphName="cent" x="-46" y="0" flags="0x4"/>
    </TTGlyph>
    <TTGlyph name="cent.oprop" xMin="53" yMin="-131" xMax="477" yMax="550">
      <component glyphName="cent.otab" x="-61" y="0" flags="0x4"/>
    </TTGlyph>
    <TTGlyph name="cent.otab" xMin="114" yMin="-131" xMax="538" yMax="550">
      <contour>
        <pt x="419" y="427" on="1"/>
        <pt x="462" y="409" on="0"/>
        <pt x="527" y="334" on="0"/>
        <pt x="538" y="283" on="1"/>
        <pt x="441" y="238" on="1"/>
        <pt x="415" y="267" on="1"/>
        <pt x="391" y="294" on="0"/>
        <pt x="357" y="312" on="0"/>
        <pt x="340" y="312" on="1"/>
        <pt x="306" y="312" on="0"/>
        <pt x="263" y="253" on="0"/>
        <pt x="263" y="207" on="1"/>
        <pt x="263" y="167" on="0"/>
        <pt x="301" y="121" on="0"/>
        <pt x="343" y="121" on="1"/>
        <pt x="359" y="121" on="0"/>
        <pt x="402" y="131" on="0"/>
        <pt x="431" y="140" on="1"/>
        <pt x="481" y="156" on="1"/>
        <pt x="524" y="75" on="1"/>
        <pt x="494" y="46" on="0"/>
        <pt x="409" y="6" on="0"/>
        <pt x="367" y="-2" on="1"/>
        <pt x="338" y="-131" on="1"/>
        <pt x="237" y="-131" on="1"/>
        <pt x="252" y="1" on="1"/>
        <pt x="189" y="20" on="0"/>
        <pt x="114" y="121" on="0"/>
        <pt x="114" y="197" on="1"/>
        <pt x="114" y="243" on="0"/>
        <pt x="143" y="324" on="0"/>
        <pt x="194" y="387" on="0"/>
        <pt x="263" y="429" on="0"/>
        <pt x="304" y="437" on="1"/>
        <pt x="333" y="550" on="1"/>
        <pt x="434" y="550" on="1"/>
      </contour>
    </TTGlyph>
    <TTGlyph name="circumflex" xMin="60" yMin="545" xMax="418" yMax="747">
      <contour>
        <pt x="282" y="747" on="1"/>
        <pt x="293" y="747" on="0"/>
        <pt x="305" y="742" on="0"/>
        <pt x="312" y="734" on="1"/>
        <pt x="418" y="602" on="1"/>
        <pt x="355" y="545" on="1"/>
        <pt x="244" y="637" on="1"/>
        <pt x="243" y="637" on="1"/>
        <pt x="110" y="545" on="1"/>
        <pt x="60" y="602" on="1"/>
        <pt x="199" y="734" on="1"/>
        <pt x="207" y="742" on="0"/>
        <pt x="219" y="747" on="0"/>
        <pt x="230" y="747" on="1"/>
      </contour>
    </TTGlyph>
    <TTGlyph name="circumflex.cap" xMin="88" yMin="717" xMax="446" yMax="919">
      <contour>
        <pt x="310" y="919" on="1"/>
        <pt x="321" y="919" on="0"/>
        <pt x="333" y="914" on="0"/>
        <pt x="340" y="906" on="1"/>
        <pt x="446" y="774" on="1"/>
        <pt x="383" y="717" on="1"/>
        <pt x="272" y="809" on="1"/>
        <pt x="271" y="809" on="1"/>
        <pt x="138" y="717" on="1"/>
        <pt x="88" y="774" on="1"/>
        <pt x="227" y="906" on="1"/>
        <pt x="235" y="914" on="0"/>
        <pt x="247" y="919" on="0"/>
        <pt x="258" y="919" on="1"/>
      </contour>
    </TTGlyph>
    <TTGlyph name="colon" xMin="12" yMin="0" xMax="230" yMax="462">
      <contour>
        <pt x="158" y="161" on="1"/>
        <pt x="178" y="161" on="0"/>
        <pt x="193" y="145" on="0"/>
        <pt x="191" y="126" on="1"/>
        <pt x="177" y="0" on="1"/>
        <pt x="12" y="0" on="1"/>
        <pt x="31" y="161" on="1"/>
      </contour>
      <contour>
        <pt x="195" y="462" on="1"/>
        <pt x="215" y="462" on="0"/>
        <pt x="230" y="446" on="0"/>
        <pt x="228" y="427" on="1"/>
        <pt x="214" y="301" on="1"/>
        <pt x="49" y="301" on="1"/>
        <pt x="68" y="462" on="1"/>
      </contour>
    </TTGlyph>
    <TTGlyph name="comma" xMin="-25" yMin="-173" xMax="194" yMax="161">
      <contour>
        <pt x="159" y="161" on="1"/>
        <pt x="179" y="161" on="0"/>
        <pt x="194" y="145" on="0"/>
        <pt x="192" y="126" on="1"/>
        <pt x="184" y="55" on="1"/>
        <pt x="180" y="23" on="0"/>
        <pt x="167" y="-26" on="0"/>
        <pt x="136" y="-76" on="0"/>
        <pt x="79" y="-133" on="0"/>
        <pt x="31" y="-173" on="1"/>
        <pt x="-25" y="-129" on="1"/>
        <pt x="36" y="-43" on="1"/>
        <pt x="59" y="-10" on="0"/>
        <pt x="59" y="-4" on="1"/>
        <pt x="59" y="1" on="0"/>
        <pt x="50" y="7" on="1"/>
        <pt x="38" y="16" on="1"/>
        <pt x="26" y="25" on="0"/>
        <pt x="20" y="39" on="0"/>
        <pt x="20" y="50" on="1"/>
        <pt x="20" y="55" on="0"/>
        <pt x="21" y="69" on="0"/>
        <pt x="23" y="83" on="1"/>
        <pt x="32" y="161" on="1"/>
      </contour>
    </TTGlyph>
    <TTGlyph name="commaaccent" xMin="73" yMin="-315" xMax="238" yMax="-58">
      <contour>
        <pt x="73" y="-301" on="1"/>
        <pt x="118" y="-58" on="1"/>
        <pt x="199" y="-58" on="1"/>
        <pt x="222" y="-58" on="0"/>
        <pt x="238" y="-82" on="0"/>
        <pt x="238" y="-109" on="1"/>
        <pt x="238" y="-130" on="0"/>
        <pt x="220" y="-176" on="0"/>
        <pt x="196" y="-216" on="1"/>
        <pt x="136" y="-315" on="1"/>
      </contour>
    </TTGlyph>
    <TTGlyph name="copyright" xMin="51" yMin="-10" xMax="717" yMax="672">
      <contour>
        <pt x="502" y="248" on="1"/>
        <pt x="472" y="220" on="0"/>
        <pt x="403" y="189" on="0"/>
        <pt x="371" y="189" on="1"/>
        <pt x="314" y="189" on="0"/>
        <pt x="248" y="264" on="0"/>
        <pt x="248" y="321" on="1"/>
        <pt x="248" y="352" on="0"/>
        <pt x="268" y="408" on="0"/>
        <pt x="306" y="452" on="0"/>
        <pt x="359" y="478" on="0"/>
        <pt x="392" y="478" on="1"/>
        <pt x="431" y="478" on="0"/>
        <pt x="496" y="432" on="0"/>
        <pt x="512" y="384" on="1"/>
        <pt x="457" y="352" on="1"/>
        <pt x="428" y="380" on="1"/>
        <pt x="419" y="388" on="0"/>
        <pt x="402" y="398" on="0"/>
        <pt x="391" y="398" on="1"/>
        <pt x="368" y="398" on="0"/>
        <pt x="335" y="355" on="0"/>
        <pt x="335" y="326" on="1"/>
        <pt x="335" y="270" on="0"/>
        <pt x="384" y="270" on="1"/>
        <pt x="401" y="270" on="0"/>
        <pt x="428" y="279" on="1"/>
        <pt x="477" y="296" on="1"/>
      </contour>
      <contour>
        <pt x="717" y="363" on="1"/>
        <pt x="717" y="292" on="0"/>
        <pt x="663" y="158" on="0"/>
        <pt x="566" y="53" on="0"/>
        <pt x="432" y="-10" on="0"/>
        <pt x="353" y="-10" on="1"/>
        <pt x="287" y="-10" on="0"/>
        <pt x="176" y="39" on="0"/>
        <pt x="96" y="123" on="0"/>
        <pt x="51" y="235" on="0"/>
        <pt x="51" y="298" on="1"/>
        <pt x="51" y="369" on="0"/>
        <pt x="105" y="504" on="0"/>
        <pt x="202" y="609" on="0"/>
        <pt x="336" y="672" on="0"/>
        <pt x="415" y="672" on="1"/>
        <pt x="482" y="672" on="0"/>
        <pt x="593" y="623" on="0"/>
        <pt x="673" y="538" on="0"/>
        <pt x="717" y="426" on="0"/>
      </contour>
      <contour>
        <pt x="607" y="357" on="1"/>
        <pt x="607" y="405" on="0"/>
        <pt x="579" y="484" on="0"/>
        <pt x="528" y="540" on="0"/>
        <pt x="455" y="570" on="0"/>
        <pt x="411" y="570" on="1"/>
        <pt x="356" y="570" on="0"/>
        <pt x="264" y="530" on="0"/>
        <pt x="198" y="458" on="0"/>
        <pt x="161" y="361" on="0"/>
        <pt x="161" y="304" on="1"/>
        <pt x="161" y="256" on="0"/>
        <pt x="189" y="177" on="0"/>
        <pt x="241" y="122" on="0"/>
        <pt x="313" y="92" on="0"/>
        <pt x="357" y="92" on="1"/>
        <pt x="412" y="92" on="0"/>
        <pt x="504" y="132" on="0"/>
        <pt x="570" y="203" on="0"/>
        <pt x="607" y="300" on="0"/>
      </contour>
    </TTGlyph>
    <TTGlyph name="currency" xMin="52" yMin="65" xMax="615" yMax="597">
      <contour>
        <pt x="327" y="241" on="1"/>
        <pt x="365" y="241" on="0"/>
        <pt x="408" y="301" on="0"/>
        <pt x="408" y="343" on="1"/>
        <pt x="408" y="375" on="0"/>
        <pt x="375" y="420" on="0"/>
        <pt x="341" y="420" on="1"/>
        <pt x="303" y="420" on="0"/>
        <pt x="259" y="360" on="0"/>
        <pt x="259" y="318" on="1"/>
        <pt x="259" y="286" on="0"/>
        <pt x="293" y="241" on="0"/>
      </contour>
      <contour>
        <pt x="322" y="124" on="1"/>
        <pt x="268" y="124" on="0"/>
        <pt x="226" y="148" on="1"/>
        <pt x="136" y="65" on="1"/>
        <pt x="52" y="158" on="1"/>
        <pt x="141" y="241" on="1"/>
        <pt x="135" y="258" on="0"/>
        <pt x="128" y="295" on="0"/>
        <pt x="128" y="315" on="1"/>
        <pt x="128" y="375" on="0"/>
        <pt x="156" y="425" on="1"/>
        <pt x="92" y="502" on="1"/>
        <pt x="198" y="597" on="1"/>
        <pt x="262" y="521" on="1"/>
        <pt x="281" y="529" on="0"/>
        <pt x="323" y="538" on="0"/>
        <pt x="345" y="538" on="1"/>
        <pt x="372" y="538" on="0"/>
        <pt x="421" y="525" on="0"/>
        <pt x="441" y="514" on="1"/>
        <pt x="531" y="597" on="1"/>
        <pt x="615" y="502" on="1"/>
        <pt x="526" y="420" on="1"/>
        <pt x="532" y="403" on="0"/>
        <pt x="539" y="367" on="0"/>
        <pt x="539" y="347" on="1"/>
        <pt x="539" y="287" on="0"/>
        <pt x="511" y="236" on="1"/>
        <pt x="576" y="158" on="1"/>
        <pt x="469" y="65" on="1"/>
        <pt x="405" y="141" on="1"/>
        <pt x="366" y="124" on="0"/>
      </contour>
    </TTGlyph>
    <TTGlyph name="d" xMin="22" yMin="-8" xMax="554" yMax="709">
      <contour>
        <pt x="259" y="496" on="1"/>
        <pt x="289" y="496" on="0"/>
        <pt x="342" y="475" on="0"/>
        <pt x="368" y="457" on="1"/>
        <pt x="398" y="709" on="1"/>
        <pt x="554" y="709" on="1"/>
        <pt x="484" y="120" on="1"/>
        <pt x="553" y="101" on="1"/>
        <pt x="543" y="23" on="1"/>
        <pt x="520" y="10" on="0"/>
        <pt x="464" y="-2" on="0"/>
        <pt x="441" y="-2" on="1"/>
        <pt x="409" y="-2" on="0"/>
        <pt x="359" y="24" on="0"/>
        <pt x="345" y="47" on="1"/>
        <pt x="319" y="31" on="1"/>
        <pt x="311" y="26" on="0"/>
        <pt x="285" y="13" on="0"/>
        <pt x="254" y="1" on="0"/>
        <pt x="218" y="-8" on="0"/>
        <pt x="200" y="-8" on="1"/>
        <pt x="161" y="-8" on="0"/>
        <pt x="96" y="25" on="0"/>
        <pt x="48" y="85" on="0"/>
        <pt x="22" y="166" on="0"/>
        <pt x="22" y="214" on="1"/>
        <pt x="22" y="270" on="0"/>
        <pt x="60" y="372" on="0"/>
        <pt x="125" y="450" on="0"/>
        <pt x="211" y="496" on="0"/>
      </contour>
      <contour>
        <pt x="354" y="328" on="1"/>
        <pt x="355" y="337" on="0"/>
        <pt x="353" y="344" on="0"/>
        <pt x="346" y="347" on="1"/>
        <pt x="321" y="358" on="0"/>
        <pt x="284" y="358" on="1"/>
        <pt x="236" y="358" on="0"/>
        <pt x="181" y="283" on="0"/>
        <pt x="181" y="220" on="1"/>
        <pt x="181" y="178" on="0"/>
        <pt x="216" y="131" on="0"/>
        <pt x="251" y="131" on="1"/>
        <pt x="268" y="131" on="0"/>
        <pt x="311" y="141" on="0"/>
        <pt x="323" y="149" on="1"/>
        <pt x="329" y="153" on="0"/>
        <pt x="333" y="159" on="0"/>
        <pt x="334" y="167" on="1"/>
      </contour>
    </TTGlyph>
    <TTGlyph name="dagger" xMin="60" yMin="-229" xMax="570" yMax="663">
      <contour>
        <pt x="570" y="445" on="1"/>
        <pt x="553" y="301" on="1"/>
        <pt x="490" y="301" on="1"/>
        <pt x="476" y="301" on="0"/>
        <pt x="449" y="303" on="0"/>
        <pt x="433" y="306" on="1"/>
        <pt x="373" y="316" on="1"/>
        <pt x="374" y="291" on="1"/>
        <pt x="375" y="266" on="0"/>
        <pt x="370" y="211" on="0"/>
        <pt x="365" y="169" on="1"/>
        <pt x="349" y="27" on="1"/>
        <pt x="347" y="10" on="0"/>
        <pt x="342" y="-27" on="0"/>
        <pt x="336" y="-52" on="1"/>
        <pt x="296" y="-229" on="1"/>
        <pt x="193" y="-229" on="1"/>
        <pt x="193" y="-54" on="1"/>
        <pt x="193" y="-29" on="0"/>
        <pt x="197" y="10" on="0"/>
        <pt x="199" y="30" on="1"/>
        <pt x="214" y="156" on="1"/>
        <pt x="219" y="194" on="0"/>
        <pt x="228" y="265" on="0"/>
        <pt x="234" y="288" on="1"/>
        <pt x="241" y="316" on="1"/>
        <pt x="180" y="306" on="1"/>
        <pt x="162" y="303" on="0"/>
        <pt x="125" y="301" on="0"/>
        <pt x="108" y="301" on="1"/>
        <pt x="60" y="301" on="1"/>
        <pt x="77" y="445" on="1"/>
        <pt x="138" y="445" on="1"/>
        <pt x="152" y="445" on="0"/>
        <pt x="180" y="442" on="0"/>
        <pt x="196" y="440" on="1"/>
        <pt x="258" y="430" on="1"/>
        <pt x="257" y="445" on="0"/>
        <pt x="256" y="473" on="0"/>
        <pt x="257" y="508" on="0"/>
        <pt x="260" y="554" on="0"/>
        <pt x="264" y="586" on="1"/>
        <pt x="273" y="663" on="1"/>
        <pt x="424" y="663" on="1"/>
        <pt x="415" y="587" on="1"/>
        <pt x="411" y="556" on="0"/>
        <pt x="405" y="514" on="0"/>
        <pt x="399" y="480" on="0"/>
        <pt x="392" y="449" on="0"/>
        <pt x="387" y="430" on="1"/>
        <pt x="443" y="439" on="1"/>
        <pt x="465" y="443" on="0"/>
        <pt x="504" y="445" on="0"/>
        <pt x="521" y="445" on="1"/>
      </contour>
    </TTGlyph>
    <TTGlyph name="daggerdbl" xMin="22" yMin="-229" xMax="571" yMax="662">
      <contour>
        <pt x="221" y="116" on="1"/>
        <pt x="219" y="131" on="0"/>
        <pt x="218" y="161" on="0"/>
        <pt x="218" y="175" on="1"/>
        <pt x="218" y="234" on="0"/>
        <pt x="233" y="284" on="1"/>
        <pt x="242" y="315" on="1"/>
        <pt x="181" y="305" on="1"/>
        <pt x="163" y="302" on="0"/>
        <pt x="126" y="300" on="0"/>
        <pt x="109" y="300" on="1"/>
        <pt x="61" y="300" on="1"/>
        <pt x="78" y="444" on="1"/>
        <pt x="139" y="444" on="1"/>
        <pt x="153" y="444" on="0"/>
        <pt x="181" y="441" on="0"/>
        <pt x="197" y="439" on="1"/>
        <pt x="259" y="429" on="1"/>
        <pt x="258" y="444" on="0"/>
        <pt x="257" y="472" on="0"/>
        <pt x="258" y="507" on="0"/>
        <pt x="261" y="553" on="0"/>
        <pt x="265" y="585" on="1"/>
        <pt x="274" y="662" on="1"/>
        <pt x="425" y="662" on="1"/>
        <pt x="416" y="586" on="1"/>
        <pt x="412" y="555" on="0"/>
        <pt x="406" y="513" on="0"/>
        <pt x="400" y="479" on="0"/>
        <pt x="393" y="448" on="0"/>
        <pt x="388" y="429" on="1"/>
        <pt x="444" y="438" on="1"/>
        <pt x="466" y="442" on="0"/>
        <pt x="505" y="444" on="0"/>
        <pt x="522" y="444" on="1"/>
        <pt x="571" y="444" on="1"/>
        <pt x="554" y="300" on="1"/>
        <pt x="491" y="300" on="1"/>
        <pt x="477" y="300" on="0"/>
        <pt x="450" y="303" on="0"/>
        <pt x="434" y="305" on="1"/>
        <pt x="372" y="315" on="1"/>
        <pt x="373" y="301" on="0"/>
        <pt x="373" y="271" on="0"/>
        <pt x="373" y="257" on="1"/>
        <pt x="373" y="204" on="0"/>
        <pt x="361" y="155" on="1"/>
        <pt x="351" y="116" on="1"/>
        <pt x="412" y="126" on="1"/>
        <pt x="430" y="129" on="0"/>
        <pt x="467" y="131" on="0"/>
        <pt x="484" y="131" on="1"/>
        <pt x="532" y="131" on="1"/>
        <pt x="515" y="-13" on="1"/>
        <pt x="454" y="-13" on="1"/>
        <pt x="440" y="-13" on="0"/>
        <pt x="412" y="-10" on="0"/>
        <pt x="396" y="-8" on="1"/>
        <pt x="334" y="2" on="1"/>
        <pt x="335" y="-13" on="0"/>
        <pt x="336" y="-41" on="0"/>
        <pt x="335" y="-76" on="0"/>
        <pt x="332" y="-122" on="0"/>
        <pt x="328" y="-154" on="1"/>
        <pt x="319" y="-229" on="1"/>
        <pt x="168" y="-229" on="1"/>
        <pt x="177" y="-155" on="1"/>
        <pt x="181" y="-124" on="0"/>
        <pt x="186" y="-82" on="0"/>
        <pt x="192" y="-48" on="0"/>
        <pt x="200" y="-18" on="0"/>
        <pt x="205" y="2" on="1"/>
        <pt x="149" y="-7" on="1"/>
        <pt x="127" y="-11" on="0"/>
        <pt x="88" y="-13" on="0"/>
        <pt x="71" y="-13" on="1"/>
        <pt x="22" y="-13" on="1"/>
        <pt x="39" y="131" on="1"/>
        <pt x="102" y="131" on="1"/>
        <pt x="116" y="131" on="0"/>
        <pt x="143" y="128" on="0"/>
        <pt x="159" y="126" on="1"/>
      </contour>
    </TTGlyph>
    <TTGlyph name="dcaron" xMin="22" yMin="-8" xMax="747" yMax="709">
      <component glyphName="d" x="0" y="0" flags="0x4"/>
      <component glyphName="commaaccent" x="509" y="767" flags="0x4"/>
    </TTGlyph>
    <TTGlyph name="dcroat" xMin="22" yMin="-8" xMax="610" yMax="709">
      <contour>
        <pt x="259" y="496" on="1"/>
        <pt x="289" y="496" on="0"/>
        <pt x="342" y="475" on="0"/>
        <pt x="368" y="457" on="1"/>
        <pt x="379" y="549" on="1"/>
        <pt x="252" y="549" on="1"/>
        <pt x="263" y="640" on="1"/>
        <pt x="390" y="640" on="1"/>
        <pt x="398" y="709" on="1"/>
        <pt x="554" y="709" on="1"/>
        <pt x="546" y="640" on="1"/>
        <pt x="610" y="628" on="1"/>
        <pt x="601" y="549" on="1"/>
        <pt x="535" y="549" on="1"/>
        <pt x="484" y="120" on="1"/>
        <pt x="553" y="101" on="1"/>
        <pt x="543" y="23" on="1"/>
        <pt x="520" y="10" on="0"/>
        <pt x="464" y="-2" on="0"/>
        <pt x="441" y="-2" on="1"/>
        <pt x="409" y="-2" on="0"/>
        <pt x="359" y="24" on="0"/>
        <pt x="345" y="47" on="1"/>
        <pt x="319" y="31" on="1"/>
        <pt x="311" y="26" on="0"/>
        <pt x="285" y="13" on="0"/>
        <pt x="254" y="1" on="0"/>
        <pt x="218" y="-8" on="0"/>
        <pt x="200" y="-8" on="1"/>
        <pt x="161" y="-8" on="0"/>
        <pt x="96" y="25" on="0"/>
        <pt x="48" y="85" on="0"/>
        <pt x="22" y="166" on="0"/>
        <pt x="22" y="214" on="1"/>
        <pt x="22" y="270" on="0"/>
        <pt x="60" y="372" on="0"/>
        <pt x="125" y="450" on="0"/>
        <pt x="211" y="496" on="0"/>
      </contour>
      <contour>
        <pt x="354" y="328" on="1"/>
        <pt x="356" y="338" on="0"/>
        <pt x="353" y="344" on="0"/>
        <pt x="346" y="347" on="1"/>
        <pt x="321" y="358" on="0"/>
        <pt x="284" y="358" on="1"/>
        <pt x="236" y="358" on="0"/>
        <pt x="181" y="283" on="0"/>
        <pt x="181" y="220" on="1"/>
        <pt x="181" y="178" on="0"/>
        <pt x="216" y="131" on="0"/>
        <pt x="251" y="131" on="1"/>
        <pt x="268" y="131" on="0"/>
        <pt x="311" y="141" on="0"/>
        <pt x="323" y="149" on="1"/>
        <pt x="329" y="153" on="0"/>
        <pt x="333" y="159" on="0"/>
        <pt x="334" y="167" on="1"/>
      </contour>
    </TTGlyph>
    <TTGlyph name="degree" xMin="65" yMin="313" xMax="417" yMax="673">
      <contour>
        <pt x="417" y="505" on="1"/>
        <pt x="417" y="464" on="0"/>
        <pt x="387" y="393" on="0"/>
        <pt x="336" y="342" on="0"/>
        <pt x="268" y="313" on="0"/>
        <pt x="229" y="313" on="1"/>
        <pt x="194" y="313" on="0"/>
        <pt x="134" y="339" on="0"/>
        <pt x="90" y="384" on="0"/>
        <pt x="65" y="446" on="0"/>
        <pt x="65" y="482" on="1"/>
        <pt x="65" y="523" on="0"/>
        <pt x="95" y="593" on="0"/>
        <pt x="146" y="644" on="0"/>
        <pt x="214" y="673" on="0"/>
        <pt x="252" y="673" on="1"/>
        <pt x="287" y="673" on="0"/>
        <pt x="348" y="647" on="0"/>
        <pt x="392" y="602" on="0"/>
        <pt x="417" y="541" on="0"/>
      </contour>
      <contour>
        <pt x="301" y="500" on="1"/>
        <pt x="301" y="526" on="0"/>
        <pt x="271" y="559" on="0"/>
        <pt x="246" y="559" on="1"/>
        <pt x="217" y="559" on="0"/>
        <pt x="181" y="519" on="0"/>
        <pt x="181" y="487" on="1"/>
        <pt x="181" y="460" on="0"/>
        <pt x="210" y="428" on="0"/>
        <pt x="235" y="428" on="1"/>
        <pt x="265" y="428" on="0"/>
        <pt x="301" y="468" on="0"/>
      </contour>
    </TTGlyph>
    <TTGlyph name="dieresis" xMin="71" yMin="570" xMax="432" yMax="707">
      <contour>
        <pt x="192" y="707" on="1"/>
        <pt x="210" y="707" on="0"/>
        <pt x="222" y="695" on="0"/>
        <pt x="220" y="678" on="1"/>
        <pt x="207" y="570" on="1"/>
        <pt x="71" y="570" on="1"/>
        <pt x="87" y="707" on="1"/>
      </contour>
      <contour>
        <pt x="402" y="707" on="1"/>
        <pt x="420" y="707" on="0"/>
        <pt x="432" y="695" on="0"/>
        <pt x="430" y="678" on="1"/>
        <pt x="417" y="570" on="1"/>
        <pt x="281" y="570" on="1"/>
        <pt x="297" y="707" on="1"/>
      </contour>
    </TTGlyph>
    <TTGlyph name="dieresis.cap" xMin="85" yMin="742" xMax="446" yMax="879">
      <contour>
        <pt x="206" y="879" on="1"/>
        <pt x="224" y="879" on="0"/>
        <pt x="236" y="867" on="0"/>
        <pt x="234" y="850" on="1"/>
        <pt x="221" y="742" on="1"/>
        <pt x="85" y="742" on="1"/>
        <pt x="101" y="879" on="1"/>
      </contour>
      <contour>
        <pt x="416" y="879" on="1"/>
        <pt x="434" y="879" on="0"/>
        <pt x="446" y="867" on="0"/>
        <pt x="444" y="850" on="1"/>
        <pt x="431" y="742" on="1"/>
        <pt x="295" y="742" on="1"/>
        <pt x="311" y="879" on="1"/>
      </contour>
    </TTGlyph>
    <TTGlyph name="divide" xMin="55" yMin="6" xMax="493" yMax="513">
      <contour>
        <pt x="346" y="513" on="1"/>
        <pt x="363" y="513" on="0"/>
        <pt x="377" y="503" on="0"/>
        <pt x="375" y="483" on="1"/>
        <pt x="361" y="369" on="1"/>
        <pt x="217" y="369" on="1"/>
        <pt x="234" y="513" on="1"/>
      </contour>
      <contour>
        <pt x="493" y="326" on="1"/>
        <pt x="477" y="194" on="1"/>
        <pt x="55" y="194" on="1"/>
        <pt x="71" y="326" on="1"/>
      </contour>
      <contour>
        <pt x="302" y="150" on="1"/>
        <pt x="319" y="150" on="0"/>
        <pt x="333" y="140" on="0"/>
        <pt x="331" y="120" on="1"/>
        <pt x="317" y="6" on="1"/>
        <pt x="173" y="6" on="1"/>
        <pt x="190" y="150" on="1"/>
      </contour>
    </TTGlyph>
    <TTGlyph name="dollar" xMin="44" yMin="-131" xMax="598" yMax="793">
      <contour>
        <pt x="156" y="149" on="1"/>
        <pt x="202" y="141" on="0"/>
        <pt x="290" y="131" on="0"/>
        <pt x="317" y="131" on="1"/>
        <pt x="372" y="131" on="0"/>
        <pt x="424" y="167" on="0"/>
        <pt x="424" y="198" on="1"/>
        <pt x="424" y="218" on="0"/>
        <pt x="386" y="245" on="0"/>
        <pt x="341" y="263" on="1"/>
        <pt x="303" y="278" on="1"/>
        <pt x="249" y="299" on="0"/>
        <pt x="171" y="339" on="0"/>
        <pt x="146" y="364" on="1"/>
        <pt x="123" y="387" on="0"/>
        <pt x="97" y="444" on="0"/>
        <pt x="97" y="482" on="1"/>
        <pt x="97" y="528" on="0"/>
        <pt x="135" y="596" on="0"/>
        <pt x="197" y="641" on="0"/>
        <pt x="278" y="666" on="0"/>
        <pt x="320" y="670" on="1"/>
        <pt x="350" y="793" on="1"/>
        <pt x="453" y="793" on="1"/>
        <pt x="438" y="668" on="1"/>
        <pt x="479" y="663" on="0"/>
        <pt x="562" y="644" on="0"/>
        <pt x="598" y="630" on="1"/>
        <pt x="573" y="520" on="1"/>
        <pt x="507" y="525" on="1"/>
        <pt x="465" y="528" on="0"/>
        <pt x="391" y="532" on="0"/>
        <pt x="359" y="532" on="1"/>
        <pt x="301" y="532" on="0"/>
        <pt x="248" y="512" on="0"/>
        <pt x="248" y="488" on="1"/>
        <pt x="248" y="471" on="0"/>
        <pt x="287" y="450" on="0"/>
        <pt x="329" y="433" on="1"/>
        <pt x="377" y="414" on="1"/>
        <pt x="437" y="390" on="0"/>
        <pt x="518" y="348" on="0"/>
        <pt x="541" y="324" on="1"/>
        <pt x="583" y="282" on="0"/>
        <pt x="583" y="220" on="1"/>
        <pt x="583" y="169" on="0"/>
        <pt x="550" y="88" on="0"/>
        <pt x="491" y="31" on="0"/>
        <pt x="407" y="-3" on="0"/>
        <pt x="356" y="-8" on="1"/>
        <pt x="327" y="-131" on="1"/>
        <pt x="224" y="-131" on="1"/>
        <pt x="239" y="-4" on="1"/>
        <pt x="188" y="3" on="0"/>
        <pt x="87" y="32" on="0"/>
        <pt x="44" y="54" on="1"/>
        <pt x="82" y="161" on="1"/>
      </contour>
    </TTGlyph>
    <TTGlyph name="dollar.lprop" xMin="16" yMin="-131" xMax="570" yMax="793">
      <component glyphName="dollar" x="-28" y="0" flags="0x4"/>
    </TTGlyph>
    <TTGlyph name="dollar.oprop" xMin="38" yMin="-131" xMax="471" yMax="619">
      <component glyphName="dollar.otab" x="-66" y="0" flags="0x4"/>
    </TTGlyph>
    <TTGlyph name="dollar.otab" xMin="104" yMin="-131" xMax="537" yMax="619">
      <contour>
        <pt x="133" y="138" on="1"/>
        <pt x="208" y="127" on="1"/>
        <pt x="248" y="121" on="0"/>
        <pt x="308" y="116" on="0"/>
        <pt x="332" y="116" on="1"/>
        <pt x="389" y="116" on="0"/>
        <pt x="389" y="148" on="1"/>
        <pt x="389" y="159" on="0"/>
        <pt x="369" y="172" on="0"/>
        <pt x="339" y="180" on="1"/>
        <pt x="291" y="193" on="1"/>
        <pt x="218" y="213" on="0"/>
        <pt x="137" y="277" on="0"/>
        <pt x="137" y="336" on="1"/>
        <pt x="137" y="374" on="0"/>
        <pt x="170" y="434" on="0"/>
        <pt x="199" y="454" on="1"/>
        <pt x="240" y="483" on="0"/>
        <pt x="303" y="492" on="1"/>
        <pt x="333" y="619" on="1"/>
        <pt x="435" y="619" on="1"/>
        <pt x="420" y="491" on="1"/>
        <pt x="450" y="486" on="0"/>
        <pt x="509" y="469" on="0"/>
        <pt x="537" y="458" on="1"/>
        <pt x="511" y="362" on="1"/>
        <pt x="448" y="368" on="1"/>
        <pt x="421" y="370" on="0"/>
        <pt x="372" y="373" on="0"/>
        <pt x="349" y="373" on="1"/>
        <pt x="307" y="373" on="0"/>
        <pt x="278" y="360" on="0"/>
        <pt x="278" y="349" on="1"/>
        <pt x="278" y="340" on="0"/>
        <pt x="298" y="329" on="0"/>
        <pt x="322" y="322" on="1"/>
        <pt x="362" y="311" on="1"/>
        <pt x="399" y="301" on="0"/>
        <pt x="462" y="278" on="0"/>
        <pt x="507" y="246" on="0"/>
        <pt x="532" y="201" on="0"/>
        <pt x="532" y="168" on="1"/>
        <pt x="532" y="93" on="0"/>
        <pt x="442" y="6" on="0"/>
        <pt x="364" y="-4" on="1"/>
        <pt x="335" y="-131" on="1"/>
        <pt x="233" y="-131" on="1"/>
        <pt x="249" y="-1" on="1"/>
        <pt x="211" y="5" on="0"/>
        <pt x="136" y="28" on="0"/>
        <pt x="104" y="42" on="1"/>
      </contour>
    </TTGlyph>
    <TTGlyph name="dotaccent" xMin="166" yMin="561" xMax="323" yMax="703">
      <contour>
        <pt x="292" y="703" on="1"/>
        <pt x="310" y="703" on="0"/>
        <pt x="323" y="690" on="0"/>
        <pt x="321" y="673" on="1"/>
        <pt x="307" y="561" on="1"/>
        <pt x="166" y="561" on="1"/>
        <pt x="183" y="703" on="1"/>
      </contour>
    </TTGlyph>
    <TTGlyph name="dotaccent.cap" xMin="185" yMin="733" xMax="342" yMax="875">
      <contour>
        <pt x="311" y="875" on="1"/>
        <pt x="329" y="875" on="0"/>
        <pt x="342" y="862" on="0"/>
        <pt x="340" y="845" on="1"/>
        <pt x="326" y="733" on="1"/>
        <pt x="185" y="733" on="1"/>
        <pt x="202" y="875" on="1"/>
      </contour>
    </TTGlyph>
    <TTGlyph name="dotlessi" xMin="24" yMin="0" xMax="238" yMax="488">
      <contour>
        <pt x="82" y="488" on="1"/>
        <pt x="238" y="488" on="1"/>
        <pt x="180" y="0" on="1"/>
        <pt x="24" y="0" on="1"/>
      </contour>
    </TTGlyph>
    <TTGlyph name="e" xMin="22" yMin="-8" xMax="503" yMax="496">
      <contour>
        <pt x="178" y="198" on="1"/>
        <pt x="183" y="163" on="0"/>
        <pt x="239" y="124" on="0"/>
        <pt x="281" y="124" on="1"/>
        <pt x="301" y="124" on="0"/>
        <pt x="346" y="131" on="0"/>
        <pt x="381" y="139" on="1"/>
        <pt x="441" y="153" on="1"/>
        <pt x="479" y="69" on="1"/>
        <pt x="461" y="53" on="0"/>
        <pt x="410" y="25" on="0"/>
        <pt x="352" y="4" on="0"/>
        <pt x="290" y="-8" on="0"/>
        <pt x="260" y="-8" on="1"/>
        <pt x="207" y="-8" on="0"/>
        <pt x="120" y="25" on="0"/>
        <pt x="57" y="85" on="0"/>
        <pt x="22" y="171" on="0"/>
        <pt x="22" y="224" on="1"/>
        <pt x="22" y="285" on="0"/>
        <pt x="64" y="385" on="0"/>
        <pt x="135" y="457" on="0"/>
        <pt x="229" y="496" on="0"/>
        <pt x="281" y="496" on="1"/>
        <pt x="327" y="496" on="0"/>
        <pt x="408" y="465" on="0"/>
        <pt x="468" y="407" on="0"/>
        <pt x="503" y="325" on="0"/>
        <pt x="503" y="275" on="1"/>
        <pt x="503" y="234" on="0"/>
        <pt x="488" y="198" on="0"/>
        <pt x="468" y="198" on="1"/>
      </contour>
      <contour>
        <pt x="356" y="300" on="1"/>
        <pt x="354" y="330" on="0"/>
        <pt x="313" y="369" on="0"/>
        <pt x="278" y="369" on="1"/>
        <pt x="243" y="369" on="0"/>
        <pt x="195" y="334" on="0"/>
        <pt x="186" y="300" on="1"/>
      </contour>
    </TTGlyph>
    <TTGlyph name="eacute" xMin="22" yMin="-8" xMax="503" yMax="763">
      <component glyphName="e" x="0" y="0" flags="0x204"/>
      <component glyphName="acute" x="63" y="0" flags="0x4"/>
    </TTGlyph>
    <TTGlyph name="ebreve" xMin="22" yMin="-8" xMax="503" yMax="732">
      <component glyphName="e" x="0" y="0" flags="0x204"/>
      <component glyphName="breve" x="53" y="0" flags="0x4"/>
    </TTGlyph>
    <TTGlyph name="ecaron" xMin="22" yMin="-8" xMax="503" yMax="759">
      <component glyphName="e" x="0" y="0" flags="0x204"/>
      <component glyphName="caron" x="62" y="0" flags="0x4"/>
    </TTGlyph>
    <TTGlyph name="ecircumflex" xMin="22" yMin="-8" xMax="503" yMax="747">
      <component glyphName="e" x="0" y="0" flags="0x204"/>
      <component glyphName="circumflex" x="61" y="0" flags="0x4"/>
    </TTGlyph>
    <TTGlyph name="edieresis" xMin="22" yMin="-8" xMax="503" yMax="707">
      <component glyphName="e" x="0" y="0" flags="0x204"/>
      <component glyphName="dieresis" x="52" y="0" flags="0x4"/>
    </TTGlyph>
    <TTGlyph name="edotaccent" xMin="22" yMin="-8" xMax="503" yMax="703">
      <component glyphName="e" x="0" y="0" flags="0x204"/>
      <component glyphName="dotaccent" x="58" y="0" flags="0x4"/>
    </TTGlyph>
    <TTGlyph name="egrave" xMin="22" yMin="-8" xMax="503" yMax="765">
      <component glyphName="e" x="0" y="0" flags="0x204"/>
      <component glyphName="grave" x="67" y="0" flags="0x4"/>
    </TTGlyph>
    <TTGlyph name="eight" xMin="53" yMin="-10" xMax="610" yMax="673">
      <contour>
        <pt x="166" y="351" on="1"/>
        <pt x="140" y="371" on="0"/>
        <pt x="105" y="436" on="0"/>
        <pt x="105" y="476" on="1"/>
        <pt x="105" y="517" on="0"/>
        <pt x="144" y="589" on="0"/>
        <pt x="213" y="642" on="0"/>
        <pt x="307" y="673" on="0"/>
        <pt x="363" y="673" on="1"/>
        <pt x="417" y="673" on="0"/>
        <pt x="505" y="644" on="0"/>
        <pt x="568" y="595" on="0"/>
        <pt x="602" y="528" on="0"/>
        <pt x="602" y="490" on="1"/>
        <pt x="602" y="446" on="0"/>
        <pt x="553" y="371" on="0"/>
        <pt x="518" y="347" on="1"/>
        <pt x="558" y="326" on="0"/>
        <pt x="610" y="261" on="0"/>
        <pt x="610" y="213" on="1"/>
        <pt x="610" y="163" on="0"/>
        <pt x="563" y="80" on="0"/>
        <pt x="485" y="22" on="0"/>
        <pt x="382" y="-10" on="0"/>
        <pt x="326" y="-10" on="1"/>
        <pt x="268" y="-10" on="0"/>
        <pt x="168" y="22" on="0"/>
        <pt x="95" y="78" on="0"/>
        <pt x="53" y="155" on="0"/>
        <pt x="53" y="200" on="1"/>
        <pt x="53" y="228" on="0"/>
        <pt x="71" y="273" on="0"/>
        <pt x="101" y="311" on="0"/>
        <pt x="142" y="340" on="0"/>
      </contour>
      <contour>
        <pt x="278" y="296" on="1"/>
        <pt x="265" y="301" on="0"/>
        <pt x="248" y="293" on="0"/>
        <pt x="239" y="285" on="1"/>
        <pt x="226" y="274" on="0"/>
        <pt x="209" y="241" on="0"/>
        <pt x="209" y="224" on="1"/>
        <pt x="209" y="179" on="0"/>
        <pt x="279" y="128" on="0"/>
        <pt x="335" y="128" on="1"/>
        <pt x="357" y="128" on="0"/>
        <pt x="397" y="138" on="0"/>
        <pt x="428" y="158" on="0"/>
        <pt x="446" y="186" on="0"/>
        <pt x="446" y="204" on="1"/>
        <pt x="446" y="224" on="0"/>
        <pt x="409" y="245" on="0"/>
        <pt x="378" y="257" on="1"/>
      </contour>
      <contour>
        <pt x="401" y="393" on="1"/>
        <pt x="410" y="389" on="0"/>
        <pt x="421" y="396" on="0"/>
        <pt x="429" y="402" on="1"/>
        <pt x="441" y="413" on="0"/>
        <pt x="461" y="445" on="0"/>
        <pt x="461" y="464" on="1"/>
        <pt x="461" y="501" on="0"/>
        <pt x="400" y="540" on="0"/>
        <pt x="355" y="540" on="1"/>
        <pt x="337" y="540" on="0"/>
        <pt x="302" y="533" on="0"/>
        <pt x="274" y="517" on="0"/>
        <pt x="257" y="493" on="0"/>
        <pt x="257" y="476" on="1"/>
        <pt x="257" y="454" on="0"/>
        <pt x="294" y="436" on="0"/>
        <pt x="317" y="427" on="1"/>
      </contour>
    </TTGlyph>
    <TTGlyph name="eight.lprop" xMin="40" yMin="-10" xMax="597" yMax="673">
      <component glyphName="eight" x="-13" y="0" flags="0x4"/>
    </TTGlyph>
    <TTGlyph name="eight.oprop" xMin="36" yMin="-8" xMax="581" yMax="676">
      <component glyphName="eight.otab" x="-16" y="0" flags="0x4"/>
    </TTGlyph>
    <TTGlyph name="eight.otab" xMin="52" yMin="-8" xMax="597" yMax="676">
      <contour>
        <pt x="164" y="354" on="1"/>
        <pt x="138" y="377" on="0"/>
        <pt x="106" y="442" on="0"/>
        <pt x="106" y="479" on="1"/>
        <pt x="106" y="523" on="0"/>
        <pt x="146" y="596" on="0"/>
        <pt x="214" y="648" on="0"/>
        <pt x="305" y="676" on="0"/>
        <pt x="357" y="676" on="1"/>
        <pt x="409" y="676" on="0"/>
        <pt x="495" y="647" on="0"/>
        <pt x="556" y="597" on="0"/>
        <pt x="589" y="533" on="0"/>
        <pt x="589" y="497" on="1"/>
        <pt x="589" y="452" on="0"/>
        <pt x="543" y="376" on="0"/>
        <pt x="504" y="350" on="1"/>
        <pt x="548" y="326" on="0"/>
        <pt x="597" y="259" on="0"/>
        <pt x="597" y="213" on="1"/>
        <pt x="597" y="162" on="0"/>
        <pt x="552" y="81" on="0"/>
        <pt x="476" y="23" on="0"/>
        <pt x="376" y="-8" on="0"/>
        <pt x="320" y="-8" on="1"/>
        <pt x="263" y="-8" on="0"/>
        <pt x="165" y="22" on="0"/>
        <pt x="93" y="77" on="0"/>
        <pt x="52" y="153" on="0"/>
        <pt x="52" y="199" on="1"/>
        <pt x="52" y="253" on="0"/>
        <pt x="117" y="332" on="0"/>
      </contour>
      <contour>
        <pt x="273" y="302" on="1"/>
        <pt x="261" y="307" on="0"/>
        <pt x="245" y="307" on="0"/>
        <pt x="236" y="296" on="1"/>
        <pt x="223" y="281" on="0"/>
        <pt x="206" y="246" on="0"/>
        <pt x="206" y="222" on="1"/>
        <pt x="206" y="181" on="0"/>
        <pt x="267" y="124" on="0"/>
        <pt x="327" y="124" on="1"/>
        <pt x="351" y="124" on="0"/>
        <pt x="392" y="137" on="0"/>
        <pt x="422" y="158" on="0"/>
        <pt x="438" y="187" on="0"/>
        <pt x="438" y="203" on="1"/>
        <pt x="438" y="223" on="0"/>
        <pt x="411" y="247" on="0"/>
        <pt x="376" y="261" on="1"/>
      </contour>
      <contour>
        <pt x="391" y="394" on="1"/>
        <pt x="402" y="389" on="0"/>
        <pt x="414" y="391" on="0"/>
        <pt x="423" y="401" on="1"/>
        <pt x="434" y="412" on="0"/>
        <pt x="452" y="449" on="0"/>
        <pt x="452" y="470" on="1"/>
        <pt x="452" y="507" on="0"/>
        <pt x="394" y="549" on="0"/>
        <pt x="348" y="549" on="1"/>
        <pt x="331" y="549" on="0"/>
        <pt x="298" y="541" on="0"/>
        <pt x="271" y="524" on="0"/>
        <pt x="254" y="499" on="0"/>
        <pt x="254" y="483" on="1"/>
        <pt x="254" y="461" on="0"/>
        <pt x="285" y="436" on="0"/>
        <pt x="315" y="424" on="1"/>
      </contour>
    </TTGlyph>
    <TTGlyph name="ellipsis" xMin="12" yMin="0" xMax="683" yMax="161">
      <contour>
        <pt x="158" y="161" on="1"/>
        <pt x="178" y="161" on="0"/>
        <pt x="193" y="145" on="0"/>
        <pt x="191" y="126" on="1"/>
        <pt x="177" y="0" on="1"/>
        <pt x="12" y="0" on="1"/>
        <pt x="31" y="161" on="1"/>
      </contour>
      <contour>
        <pt x="403" y="161" on="1"/>
        <pt x="423" y="161" on="0"/>
        <pt x="438" y="145" on="0"/>
        <pt x="436" y="126" on="1"/>
        <pt x="422" y="0" on="1"/>
        <pt x="257" y="0" on="1"/>
        <pt x="276" y="161" on="1"/>
      </contour>
      <contour>
        <pt x="648" y="161" on="1"/>
        <pt x="668" y="161" on="0"/>
        <pt x="683" y="145" on="0"/>
        <pt x="681" y="126" on="1"/>
        <pt x="667" y="0" on="1"/>
        <pt x="502" y="0" on="1"/>
        <pt x="521" y="161" on="1"/>
      </contour>
    </TTGlyph>
    <TTGlyph name="emacron" xMin="22" yMin="-8" xMax="503" yMax="697">
      <component glyphName="e" x="0" y="0" flags="0x204"/>
      <component glyphName="macron" x="58" y="0" flags="0x4"/>
    </TTGlyph>
    <TTGlyph name="emdash" xMin="33" yMin="180" xMax="1008" yMax="306">
      <contour>
        <pt x="33" y="180" on="1"/>
        <pt x="48" y="306" on="1"/>
        <pt x="1008" y="306" on="1"/>
        <pt x="993" y="180" on="1"/>
      </contour>
    </TTGlyph>
    <TTGlyph name="emdash.cap" xMin="43" yMin="267" xMax="1018" yMax="393">
      <component glyphName="emdash" x="10" y="87" flags="0x204"/>
    </TTGlyph>
    <TTGlyph name="endash" xMin="33" yMin="180" xMax="528" yMax="306">
      <contour>
        <pt x="33" y="180" on="1"/>
        <pt x="48" y="306" on="1"/>
        <pt x="528" y="306" on="1"/>
        <pt x="513" y="180" on="1"/>
      </contour>
    </TTGlyph>
    <TTGlyph name="endash.cap" xMin="43" yMin="267" xMax="538" yMax="393">
      <component glyphName="endash" x="10" y="87" flags="0x204"/>
    </TTGlyph>
    <TTGlyph name="eng" xMin="22" yMin="-213" xMax="515" yMax="496">
      <contour>
        <pt x="355" y="278" on="1"/>
        <pt x="356" y="284" on="0"/>
        <pt x="358" y="303" on="0"/>
        <pt x="358" y="308" on="1"/>
        <pt x="358" y="332" on="0"/>
        <pt x="327" y="351" on="0"/>
        <pt x="298" y="351" on="1"/>
        <pt x="279" y="351" on="0"/>
        <pt x="242" y="343" on="0"/>
        <pt x="228" y="338" on="1"/>
        <pt x="220" y="335" on="0"/>
        <pt x="217" y="330" on="0"/>
        <pt x="216" y="323" on="1"/>
        <pt x="178" y="0" on="1"/>
        <pt x="22" y="0" on="1"/>
        <pt x="80" y="488" on="1"/>
        <pt x="199" y="488" on="1"/>
        <pt x="211" y="443" on="1"/>
        <pt x="242" y="460" on="1"/>
        <pt x="273" y="477" on="0"/>
        <pt x="330" y="496" on="0"/>
        <pt x="359" y="496" on="1"/>
        <pt x="392" y="496" on="0"/>
        <pt x="449" y="474" on="0"/>
        <pt x="491" y="432" on="0"/>
        <pt x="515" y="371" on="0"/>
        <pt x="515" y="332" on="1"/>
        <pt x="515" y="319" on="0"/>
        <pt x="512" y="288" on="0"/>
        <pt x="510" y="271" on="1"/>
        <pt x="476" y="-16" on="1"/>
        <pt x="463" y="-129" on="0"/>
        <pt x="418" y="-172" on="1"/>
        <pt x="376" y="-213" on="0"/>
        <pt x="304" y="-213" on="1"/>
        <pt x="253" y="-213" on="0"/>
        <pt x="195" y="-193" on="1"/>
        <pt x="205" y="-110" on="1"/>
        <pt x="258" y="-101" on="1"/>
        <pt x="292" y="-95" on="0"/>
        <pt x="313" y="-71" on="0"/>
        <pt x="317" y="-41" on="1"/>
      </contour>
    </TTGlyph>
    <TTGlyph name="eogonek" xMin="22" yMin="-233" xMax="503" yMax="496">
      <contour>
        <pt x="356" y="300" on="1"/>
        <pt x="354" y="331" on="0"/>
        <pt x="312" y="369" on="0"/>
        <pt x="278" y="369" on="1"/>
        <pt x="243" y="369" on="0"/>
        <pt x="195" y="333" on="0"/>
        <pt x="186" y="300" on="1"/>
      </contour>
      <contour>
        <pt x="294" y="-5" on="1"/>
        <pt x="279" y="-8" on="0"/>
        <pt x="260" y="-8" on="1"/>
        <pt x="207" y="-8" on="0"/>
        <pt x="120" y="25" on="0"/>
        <pt x="57" y="85" on="0"/>
        <pt x="22" y="171" on="0"/>
        <pt x="22" y="224" on="1"/>
        <pt x="22" y="285" on="0"/>
        <pt x="64" y="385" on="0"/>
        <pt x="135" y="457" on="0"/>
        <pt x="229" y="496" on="0"/>
        <pt x="280" y="496" on="1"/>
        <pt x="326" y="496" on="0"/>
        <pt x="407" y="464" on="0"/>
        <pt x="468" y="406" on="0"/>
        <pt x="503" y="324" on="0"/>
        <pt x="503" y="274" on="1"/>
        <pt x="503" y="233" on="0"/>
        <pt x="488" y="198" on="0"/>
        <pt x="468" y="198" on="1"/>
        <pt x="178" y="198" on="1"/>
        <pt x="183" y="163" on="0"/>
        <pt x="236" y="124" on="0"/>
        <pt x="281" y="124" on="1"/>
        <pt x="301" y="124" on="0"/>
        <pt x="346" y="131" on="0"/>
        <pt x="381" y="139" on="1"/>
        <pt x="441" y="153" on="1"/>
        <pt x="479" y="69" on="1"/>
        <pt x="440" y="43" on="0"/>
        <pt x="385" y="0" on="0"/>
        <pt x="350" y="-39" on="0"/>
        <pt x="334" y="-75" on="0"/>
        <pt x="334" y="-94" on="1"/>
        <pt x="334" y="-136" on="0"/>
        <pt x="386" y="-136" on="1"/>
        <pt x="394" y="-136" on="0"/>
        <pt x="429" y="-132" on="0"/>
        <pt x="446" y="-129" on="1"/>
        <pt x="458" y="-206" on="1"/>
        <pt x="434" y="-219" on="0"/>
        <pt x="371" y="-233" on="0"/>
        <pt x="347" y="-233" on="1"/>
        <pt x="290" y="-233" on="0"/>
        <pt x="221" y="-172" on="0"/>
        <pt x="221" y="-124" on="1"/>
        <pt x="221" y="-86" on="0"/>
        <pt x="265" y="-24" on="0"/>
      </contour>
    </TTGlyph>
    <TTGlyph name="equal" xMin="43" yMin="78" xMax="506" yMax="416">
      <contour>
        <pt x="68" y="284" on="1"/>
        <pt x="84" y="416" on="1"/>
        <pt x="506" y="416" on="1"/>
        <pt x="490" y="284" on="1"/>
      </contour>
      <contour>
        <pt x="43" y="78" on="1"/>
        <pt x="59" y="210" on="1"/>
        <pt x="481" y="210" on="1"/>
        <pt x="465" y="78" on="1"/>
      </contour>
    </TTGlyph>
    <TTGlyph name="estimated" xMin="57" yMin="-10" xMax="820" yMax="673">
      <contour>
        <pt x="203" y="323" on="1"/>
        <pt x="195" y="323" on="0"/>
        <pt x="195" y="317" on="1"/>
        <pt x="195" y="130" on="1"/>
        <pt x="195" y="123" on="0"/>
        <pt x="201" y="115" on="0"/>
        <pt x="207" y="109" on="1"/>
        <pt x="251" y="64" on="0"/>
        <pt x="372" y="11" on="0"/>
        <pt x="441" y="11" on="1"/>
        <pt x="515" y="11" on="0"/>
        <pt x="640" y="71" on="0"/>
        <pt x="685" y="121" on="1"/>
        <pt x="741" y="121" on="1"/>
        <pt x="687" y="61" on="0"/>
        <pt x="531" y="-10" on="0"/>
        <pt x="440" y="-10" on="1"/>
        <pt x="361" y="-10" on="0"/>
        <pt x="221" y="43" on="0"/>
        <pt x="117" y="135" on="0"/>
        <pt x="57" y="260" on="0"/>
        <pt x="57" y="331" on="1"/>
        <pt x="57" y="402" on="0"/>
        <pt x="117" y="527" on="0"/>
        <pt x="221" y="620" on="0"/>
        <pt x="361" y="673" on="0"/>
        <pt x="440" y="673" on="1"/>
        <pt x="518" y="673" on="0"/>
        <pt x="656" y="620" on="0"/>
        <pt x="759" y="527" on="0"/>
        <pt x="820" y="402" on="0"/>
        <pt x="820" y="331" on="1"/>
        <pt x="820" y="323" on="1"/>
      </contour>
      <contour>
        <pt x="681" y="537" on="1"/>
        <pt x="681" y="543" on="0"/>
        <pt x="674" y="553" on="0"/>
        <pt x="668" y="559" on="1"/>
        <pt x="626" y="603" on="0"/>
        <pt x="507" y="653" on="0"/>
        <pt x="441" y="653" on="1"/>
        <pt x="372" y="653" on="0"/>
        <pt x="252" y="601" on="0"/>
        <pt x="207" y="556" on="1"/>
        <pt x="201" y="550" on="0"/>
        <pt x="195" y="540" on="0"/>
        <pt x="195" y="532" on="1"/>
        <pt x="195" y="347" on="1"/>
        <pt x="195" y="342" on="0"/>
        <pt x="203" y="342" on="1"/>
        <pt x="673" y="342" on="1"/>
        <pt x="681" y="342" on="0"/>
        <pt x="681" y="347" on="1"/>
      </contour>
    </TTGlyph>
    <TTGlyph name="eth" xMin="30" yMin="-8" xMax="533" yMax="745">
      <contour>
        <pt x="364" y="433" on="1"/>
        <pt x="359" y="459" on="0"/>
        <pt x="336" y="517" on="0"/>
        <pt x="318" y="540" on="1"/>
        <pt x="207" y="484" on="1"/>
        <pt x="158" y="573" on="1"/>
        <pt x="232" y="612" on="1"/>
        <pt x="215" y="622" on="0"/>
        <pt x="177" y="644" on="0"/>
        <pt x="160" y="653" on="1"/>
        <pt x="214" y="737" on="1"/>
        <pt x="249" y="728" on="0"/>
        <pt x="322" y="695" on="0"/>
        <pt x="352" y="675" on="1"/>
        <pt x="484" y="745" on="1"/>
        <pt x="533" y="655" on="1"/>
        <pt x="436" y="603" on="1"/>
        <pt x="481" y="550" on="0"/>
        <pt x="531" y="416" on="0"/>
        <pt x="531" y="333" on="1"/>
        <pt x="531" y="269" on="0"/>
        <pt x="499" y="146" on="0"/>
        <pt x="432" y="50" on="0"/>
        <pt x="329" y="-8" on="0"/>
        <pt x="258" y="-8" on="1"/>
        <pt x="212" y="-8" on="0"/>
        <pt x="130" y="23" on="0"/>
        <pt x="67" y="83" on="0"/>
        <pt x="30" y="170" on="0"/>
        <pt x="30" y="225" on="1"/>
        <pt x="30" y="277" on="0"/>
        <pt x="64" y="365" on="0"/>
        <pt x="123" y="427" on="0"/>
        <pt x="203" y="462" on="0"/>
        <pt x="249" y="462" on="1"/>
        <pt x="276" y="462" on="0"/>
        <pt x="338" y="447" on="0"/>
      </contour>
      <contour>
        <pt x="269" y="131" on="1"/>
        <pt x="323" y="131" on="0"/>
        <pt x="374" y="224" on="0"/>
        <pt x="374" y="303" on="1"/>
        <pt x="374" y="314" on="0"/>
        <pt x="369" y="323" on="0"/>
        <pt x="361" y="327" on="1"/>
        <pt x="348" y="333" on="0"/>
        <pt x="309" y="342" on="0"/>
        <pt x="286" y="342" on="1"/>
        <pt x="238" y="342" on="0"/>
        <pt x="182" y="288" on="0"/>
        <pt x="182" y="236" on="1"/>
        <pt x="182" y="188" on="0"/>
        <pt x="227" y="131" on="0"/>
      </contour>
    </TTGlyph>
    <TTGlyph name="exclam" xMin="38" yMin="0" xMax="275" yMax="663">
      <contour>
        <pt x="257" y="506" on="1"/>
        <pt x="253" y="474" on="0"/>
        <pt x="239" y="399" on="0"/>
        <pt x="227" y="351" on="1"/>
        <pt x="193" y="215" on="1"/>
        <pt x="91" y="215" on="1"/>
        <pt x="90" y="365" on="1"/>
        <pt x="90" y="409" on="0"/>
        <pt x="93" y="475" on="0"/>
        <pt x="97" y="509" on="1"/>
        <pt x="115" y="663" on="1"/>
        <pt x="275" y="663" on="1"/>
      </contour>
      <contour>
        <pt x="56" y="152" on="1"/>
        <pt x="177" y="152" on="1"/>
        <pt x="199" y="152" on="0"/>
        <pt x="215" y="139" on="0"/>
        <pt x="212" y="116" on="1"/>
        <pt x="198" y="0" on="1"/>
        <pt x="38" y="0" on="1"/>
      </contour>
    </TTGlyph>
    <TTGlyph name="exclamdown" xMin="17" yMin="-175" xMax="254" yMax="488">
      <component glyphName="exclam" x="292" y="488" scale="-0.99994" flags="0x4"/>
    </TTGlyph>
    <TTGlyph name="exclamdown.cap" xMin="39" yMin="0" xMax="276" yMax="663">
      <component glyphName="exclam" x="314" y="663" scale="-0.99994" flags="0x4"/>
    </TTGlyph>
    <TTGlyph name="f" xMin="15" yMin="-206" xMax="481" yMax="722">
      <contour>
        <pt x="111" y="484" on="1"/>
        <pt x="106" y="497" on="0"/>
        <pt x="101" y="526" on="0"/>
        <pt x="101" y="541" on="1"/>
        <pt x="101" y="581" on="0"/>
        <pt x="133" y="648" on="0"/>
        <pt x="188" y="696" on="0"/>
        <pt x="265" y="722" on="0"/>
        <pt x="310" y="722" on="1"/>
        <pt x="356" y="722" on="0"/>
        <pt x="446" y="691" on="0"/>
        <pt x="481" y="662" on="1"/>
        <pt x="439" y="573" on="1"/>
        <pt x="395" y="583" on="1"/>
        <pt x="356" y="592" on="0"/>
        <pt x="328" y="592" on="1"/>
        <pt x="292" y="592" on="0"/>
        <pt x="256" y="558" on="0"/>
        <pt x="256" y="527" on="1"/>
        <pt x="256" y="506" on="0"/>
        <pt x="262" y="488" on="1"/>
        <pt x="416" y="488" on="1"/>
        <pt x="402" y="367" on="1"/>
        <pt x="254" y="367" on="1"/>
        <pt x="188" y="-206" on="1"/>
        <pt x="32" y="-206" on="1"/>
        <pt x="98" y="367" on="1"/>
        <pt x="15" y="367" on="1"/>
        <pt x="27" y="466" on="1"/>
      </contour>
    </TTGlyph>
</ttFont>
